<svg width="27" height="35" viewBox="0 0 27 35" fill="none" xmlns="http://www.w3.org/2000/svg">
<path fill-rule="evenodd" clip-rule="evenodd" d="M15.9062 0.935509C16.6763 1.17827 17.2 1.89246 17.2 2.69993V11.9499H24.6C25.2899 11.9499 25.9224 12.3337 26.241 12.9456C26.5596 13.5574 26.5113 14.2957 26.1156 14.8608L13.1656 33.3608C12.7026 34.0224 11.864 34.3071 11.0939 34.0644C10.3238 33.8216 9.80005 33.1074 9.80005 32.3V23.05H2.40005C1.71024 23.05 1.07771 22.6661 0.759135 22.0543C0.440584 21.4424 0.488887 20.7042 0.884473 20.139L13.8345 1.63903C14.2976 0.977522 15.1362 0.692755 15.9062 0.935509Z" fill="white"/>
</svg>
