<?xml version="1.0" encoding="utf-8"?>
<!-- Generator: Adobe Illustrator 25.4.1, SVG Export Plug-In . SVG Version: 6.00 Build 0)  -->
<svg version="1.1" id="Capa_1" xmlns="http://www.w3.org/2000/svg" xmlns:xlink="http://www.w3.org/1999/xlink" x="0px" y="0px"
	 viewBox="0 0 27 35" style="enable-background:new 0 0 27 35;" xml:space="preserve">
<style type="text/css">
	.st0{fill-rule:evenodd;clip-rule:evenodd;fill:#FFFFFF;}
</style>
<path class="st0" d="M17,8.2c0.7,0.2,1.1,1,0.9,1.7l-5.4,16.2c-0.2,0.7-1,1.1-1.7,0.9c-0.7-0.2-1.1-1-0.9-1.7L15.3,9
	C15.5,8.3,16.3,7.9,17,8.2z M8,12.6c0.5,0.5,0.5,1.4,0,1.9l-3.1,3.1L8,20.7c0.5,0.5,0.5,1.4,0,1.9c-0.5,0.5-1.4,0.5-1.9,0l-4.1-4.1
	c-0.5-0.5-0.5-1.4,0-1.9l4.1-4.1C6.6,12,7.5,12,8,12.6z M19.7,12.6c0.5-0.5,1.4-0.5,1.9,0l4.1,4.1c0.5,0.5,0.5,1.4,0,1.9l-4.1,4.1
	c-0.5,0.5-1.4,0.5-1.9,0c-0.5-0.5-0.5-1.4,0-1.9l3.1-3.1l-3.1-3.1C19.1,13.9,19.1,13.1,19.7,12.6z"/>
</svg>
