<svg width="32" height="36" viewBox="0 0 32 36" fill="none" xmlns="http://www.w3.org/2000/svg">
<path fill-rule="evenodd" clip-rule="evenodd" d="M0 16.7639C0 20.5762 3.09048 23.6667 6.90279 23.6667H13.8056V28.7665L11.2557 26.2166C10.4855 25.4464 9.23676 25.4464 8.46654 26.2166C7.69635 26.9867 7.69635 28.2355 8.46654 29.0057L14.3832 34.9224C15.1534 35.6925 16.4022 35.6925 17.1724 34.9224L23.089 29.0057C23.8592 28.2355 23.8592 26.9867 23.089 26.2166C22.3189 25.4464 21.0701 25.4464 20.2999 26.2166L17.75 28.7665V23.6667H22.6806C27.5822 23.6667 31.5556 19.6933 31.5556 14.7917C31.5556 9.89015 27.5822 5.91667 22.6806 5.91667C22.2688 5.91667 21.8635 5.94472 21.4667 5.99901C20.6198 2.55478 17.511 0 13.8056 0C9.44865 0 5.91667 3.53198 5.91667 7.8889C5.91667 8.58357 6.00647 9.25727 6.17507 9.89903C2.70483 10.2626 0 13.1974 0 16.7639ZM17.75 23.6667H13.8056V13.8056C13.8056 12.7164 14.6886 11.8333 15.7778 11.8333C16.8671 11.8333 17.75 12.7164 17.75 13.8056V23.6667Z" fill="white"/>
</svg>
