<?xml version="1.0" encoding="utf-8"?>
<!-- Generator: Adobe Illustrator 25.4.1, SVG Export Plug-In . SVG Version: 6.00 Build 0)  -->
<svg version="1.1" id="Capa_1" xmlns="http://www.w3.org/2000/svg" xmlns:xlink="http://www.w3.org/1999/xlink" x="0px" y="0px"
	 viewBox="0 0 27 35" style="enable-background:new 0 0 27 35;" xml:space="preserve">
<style type="text/css">
	.st0{fill-rule:evenodd;clip-rule:evenodd;fill:#FFFFFF;}
</style>
<path class="st0" d="M19.7,11.7c-3.3-3.3-8.5-3.3-11.8,0c-3.3,3.3-3.3,8.5,0,11.8c2.8,2.8,7.2,3.2,10.4,1.1c0.6-0.4,1.5-0.2,1.9,0.4
	c0.4,0.6,0.2,1.5-0.4,1.9C15.6,29.7,9.8,29.2,6,25.4C1.7,21.1,1.7,14.1,6,9.7c4.3-4.3,11.4-4.3,15.7,0c2.2,2.2,3.3,5,3.3,7.8
	c0,2.3-1.9,4.2-4.2,4.2c-0.9,0-1.8-0.3-2.5-0.8c-1,1.3-2.6,2.2-4.4,2.2c-3.1,0-5.6-2.5-5.6-5.6c0-3.1,2.5-5.5,5.6-5.5
	c3.1,0,5.6,2.5,5.6,5.5c0,0.8,0.6,1.4,1.4,1.4c0.8,0,1.4-0.6,1.4-1.4C22.2,15.4,21.4,13.3,19.7,11.7z M16.6,17.6
	c0-1.5-1.2-2.8-2.8-2.8c-1.5,0-2.8,1.2-2.8,2.8c0,1.5,1.2,2.8,2.8,2.8C15.4,20.3,16.6,19.1,16.6,17.6z"/>
</svg>
