<svg width="144" height="45" viewBox="0 0 144 45" fill="none" xmlns="http://www.w3.org/2000/svg">
<path d="M131.031 6.68524C131.09 6.32044 131.311 6.014 131.474 5.70757C131.828 5.00715 132.183 4.32133 132.375 3.56254C132.449 3.24152 132.582 2.84753 132.286 2.59947C131.946 2.30763 131.577 2.55569 131.267 2.73079C130.425 3.21233 129.686 3.81061 128.962 4.42347C126.747 6.27666 124.767 8.37792 122.95 10.6251C119.582 14.7984 116.613 19.2344 113.895 23.8309C113.348 24.7502 112.802 25.6695 112.329 26.7201C112.743 26.7201 112.979 26.4866 113.215 26.3115C114.53 25.3193 115.8 24.2832 117.012 23.1888C118.976 21.4232 120.867 19.5846 122.699 17.673C124.073 16.243 125.388 14.7692 126.614 13.2079C127.19 12.4783 127.648 12.3178 128.697 12.5075C128.416 13.1641 127.958 13.704 127.515 14.2439C125.004 17.3082 122.315 20.2121 119.434 22.9408C116.938 25.2901 114.279 27.4643 111.428 29.3759C110.896 29.7261 110.527 30.1347 110.261 30.7329C109.537 32.3526 108.858 34.0015 108.311 35.6942C108.119 36.2925 107.956 36.9054 107.853 37.5328C107.779 37.9414 107.794 38.35 107.897 38.7586C108.104 39.5319 108.636 39.7946 109.33 39.3714C110.098 38.9191 110.689 38.2478 111.251 37.5766C112.728 35.8401 113.939 33.914 115.224 32.0462C116.953 29.551 118.799 27.1579 121.03 25.0712C122.197 23.9768 123.482 23.0429 124.871 22.255C125.624 21.8318 126.466 21.6129 127.337 21.5983C128.372 21.5837 129.214 21.9339 129.775 22.824C129.804 22.8824 129.878 22.9116 129.923 22.9408C129.967 22.9262 129.996 22.9262 130.011 22.9262C130.381 22.0507 131.104 21.9631 131.946 22.0069C132.848 22.0653 133.763 22.0069 134.679 22.0215C135.196 22.0361 135.255 22.1236 134.989 22.576L131.533 28.3544C129.583 31.623 127.618 34.8771 125.772 38.2041C125.594 38.5105 125.328 38.8753 125.653 39.1963C125.978 39.5319 126.348 39.2693 126.658 39.0796C127.5 38.5689 128.239 37.9268 128.903 37.1972C130.159 35.8256 131.311 34.3663 132.404 32.878C132.759 32.3964 133.483 32.1775 134.029 32.3818C134.207 32.4548 134.251 32.5715 134.177 32.7174C134.118 32.8488 134.029 32.9655 133.941 33.0968C132.375 35.4608 130.602 37.6642 128.623 39.707C127.544 40.8014 126.407 41.8521 125.063 42.64C124.339 43.0632 123.585 43.3988 122.743 43.5447C121.325 43.7928 120.247 43.0924 120.129 41.6916C120.099 41.283 120.04 40.889 119.996 40.4658C119.641 40.4658 119.508 40.7285 119.316 40.9036C118.282 41.8083 117.189 42.6254 115.933 43.2383C115.269 43.5593 114.574 43.6761 113.851 43.5593C112.713 43.3696 111.915 42.5087 111.753 41.3268C111.664 40.7285 111.709 40.1302 111.709 39.459C111.384 39.5757 111.251 39.8092 111.059 39.9989C110.039 41.0641 108.991 42.0855 107.72 42.8443C107.144 43.1945 106.524 43.428 105.874 43.5593C104.308 43.8658 102.845 42.6838 102.565 40.9619C102.387 39.8238 102.55 38.7294 102.816 37.635C103.185 36.0736 103.746 34.556 104.263 33.0385C104.323 32.878 104.382 32.7174 104.426 32.5569C104.603 31.9733 104.574 31.9587 103.938 32.0316C103.865 32.0462 103.791 32.0462 103.717 32.0608C102.003 32.1775 102.328 32.0462 101.472 33.4033C100.127 35.5337 98.6796 37.5766 96.9069 39.4006C95.5479 40.8014 94.0411 41.9834 92.3128 42.9027C91.6185 43.2821 90.8651 43.501 90.0674 43.5885C88.4573 43.749 87.2755 42.9173 86.921 41.3559C86.596 39.9113 86.8176 38.4959 87.2459 37.1096C87.955 34.8479 88.9891 32.7174 90.3481 30.7621C91.7662 28.7338 93.273 26.7931 95.1195 25.1296C96.5819 23.8017 98.1921 22.6927 100.039 21.9777C100.689 21.7296 101.353 21.5837 102.048 21.5983C103.85 21.6129 104.751 22.4884 104.854 24.2832C104.928 25.5673 104.692 26.7931 104.234 27.9896C103.968 28.69 103.673 29.3905 103.333 30.0617C103.244 30.2222 103.067 30.4119 103.185 30.6016C103.333 30.8351 103.599 30.66 103.805 30.6454C103.983 30.6454 104.145 30.587 104.308 30.5578C105.032 30.4265 105.504 30.0325 105.844 29.3613C107.912 25.3047 110.246 21.3794 112.876 17.6439C116.096 13.0766 119.745 8.87405 123.999 5.22603C125.742 3.73765 127.5 2.23466 129.642 1.27159C130.484 0.892197 131.341 0.614948 132.271 0.658724C133.365 0.7025 133.867 1.19863 133.926 2.29303C133.97 3.11019 133.778 3.88357 133.497 4.64235C133.35 5.02175 133.158 5.40114 132.98 5.76594C132.567 6.55391 132.035 6.80197 131.031 6.68524ZM118.43 39.2255C118.829 39.2109 119.213 38.9191 119.582 38.5834C120.926 37.3869 121.975 35.9277 122.921 34.4247C124.797 31.4771 126.599 28.5003 128.445 25.5382C128.593 25.2901 128.756 25.042 128.844 24.7648C129.022 24.2103 128.697 23.8455 128.106 23.933C127.589 24.006 127.101 24.1957 126.702 24.5459C125.978 25.2025 125.196 25.8008 124.531 26.5158C123.408 27.7416 122.315 28.9965 121.37 30.3535C119.966 32.3526 118.651 34.4101 117.795 36.7157C117.617 37.1972 117.455 37.6933 117.425 38.1895C117.381 38.8607 117.721 39.2401 118.43 39.2255ZM96.8774 28.7776C96.5081 29.0986 96.2717 29.5364 95.991 29.9304C94.6911 31.769 93.5093 33.6659 92.7116 35.7818C92.4901 36.3509 92.3423 36.9491 92.298 37.5474C92.1946 38.8461 93.0957 39.5173 94.3218 39.0504C94.9274 38.8169 95.4445 38.4521 95.9172 38.0289C97.6898 36.453 99.0489 34.5415 100.245 32.5278C100.629 31.8857 100.615 31.8711 99.9057 31.5063C98.9159 30.9956 98.0296 30.3681 97.3796 29.4342C97.2319 29.2154 97.1433 28.9527 96.8774 28.7776ZM103.303 25.3631V25.0712C103.229 23.8309 102.476 23.3639 101.294 23.8017C100.585 24.0644 99.9943 24.4875 99.5068 25.042C99.0193 25.5965 98.6648 26.224 98.6205 26.9974C98.5023 28.7922 99.817 29.799 101.087 30.3389C101.412 30.4703 101.59 30.2952 101.723 30.0325C102.121 29.2883 102.535 28.5295 102.786 27.7124C103.023 26.939 103.333 26.1802 103.303 25.3631ZM62.5617 12.0113C62.7833 11.3547 63.2856 11.2963 63.8764 11.3255C64.8071 11.3547 65.7525 11.3401 66.6831 11.3401C67.5695 11.3401 67.6138 11.4131 67.1411 12.1864C66.1218 13.8791 65.0877 15.5572 64.0537 17.2499C62.0742 20.5039 60.0948 23.7433 58.1153 26.9974C57.9824 27.2308 57.8494 27.4643 57.8199 27.7416C57.7608 28.2961 58.0562 28.5441 58.5732 28.3398C58.8391 28.2377 59.0903 28.0626 59.3414 27.9021C60.7743 26.939 61.9265 25.6695 63.0344 24.3562C63.5662 23.7287 64.0832 23.0721 64.615 22.4301C64.9548 22.0069 65.8559 21.7734 66.3434 21.9777C66.4763 22.0361 66.5206 22.1528 66.4468 22.2695C66.3434 22.4301 66.2252 22.5906 66.107 22.7511C64.6446 24.7064 63.1526 26.6472 61.439 28.3836C59.9027 29.945 58.3073 31.4917 56.2688 32.4402C55.6188 32.7466 54.9393 32.9947 54.2155 32.8926C53.1666 32.7466 52.4576 31.9733 52.3689 30.8497C52.3394 30.5432 52.3689 30.2222 52.3689 29.8428C52.0144 29.9596 51.8815 30.2076 51.6894 30.3827C50.8326 31.1999 49.8872 31.8857 48.8089 32.3964C48.085 32.732 47.3317 32.8925 46.5192 32.8634C45.0863 32.805 44.2 31.9441 44.1261 30.514C44.0818 29.7553 44.1852 29.0111 44.3329 28.2669C44.3772 28.0626 44.4954 27.8583 44.3772 27.581C43.6091 28.2669 42.9296 28.9965 42.1319 29.6093C40.9353 30.5432 39.724 31.4625 38.3207 32.1046C37.0503 32.6737 35.7503 33.0822 34.3174 32.8488C32.5743 32.5569 31.0823 31.1707 30.8903 29.2445C30.7278 27.5519 31.1266 25.9613 31.7323 24.4146C32.2493 23.0721 32.8845 21.788 33.7413 20.4018C32.9879 20.5769 32.4118 20.7082 31.8209 20.8395C31.5698 20.8979 31.4812 21.1022 31.3778 21.2919C29.871 23.9039 27.9949 26.2386 25.9121 28.4128C24.878 29.4926 23.7849 30.4995 22.5588 31.3604C21.6872 31.9587 20.7714 32.4694 19.7373 32.7466C17.4476 33.3741 15.5716 32.0754 15.3943 29.7261C15.2909 28.3398 15.5125 26.9974 15.9409 25.6987C16.9158 22.8094 18.4817 20.2412 20.4021 17.8627C21.7611 16.1847 23.2679 14.6525 24.9962 13.3538C26.2961 12.3761 27.6847 11.5444 29.2506 11.0629C29.9153 10.8586 30.5948 10.7272 31.2891 10.8294C32.8697 11.0337 33.8299 12.0697 33.9186 13.6602C34.0072 15.28 33.5345 16.7829 32.8993 18.2421C32.7959 18.4756 32.6038 18.6945 32.6629 19.0301C33.0618 19.0593 33.3868 18.8988 33.7118 18.7383C34.9674 18.14 36.0457 17.3082 37.0946 16.4181C38.2911 15.3967 39.3399 14.2439 40.5808 13.2808C41.7626 12.3615 43.0034 11.5298 44.4511 11.0629C45.3817 10.7564 46.3419 10.7418 47.2873 10.9607C48.8532 11.3255 49.71 12.9014 49.3259 14.6525C49.0304 15.995 48.3657 17.1477 47.4203 18.14C47.1101 18.461 46.7555 18.7237 46.3271 18.855C45.1897 19.2052 44.3329 18.4464 44.584 17.3082C44.8943 15.8636 45.751 14.9152 47.2282 14.5941C47.5976 14.5066 47.893 14.4482 47.8782 13.9813C47.8634 13.5289 47.6123 13.1787 47.1544 13.1057C46.7408 13.0328 46.3272 13.1057 45.9283 13.2662C45.042 13.6165 44.3477 14.2439 43.6534 14.8714C40.4774 17.7606 38.2616 21.2773 36.6957 25.2317C36.4003 25.9613 36.1935 26.7055 36.2526 27.5081C36.356 29.1716 37.3752 29.9158 39.0002 29.4488C40.2115 29.0986 41.1864 28.3544 42.1023 27.5373C44.4954 25.3922 46.5192 22.9116 48.4396 20.3434C50.035 18.213 51.7337 16.1555 53.6984 14.3461C55.1166 13.0328 56.5938 11.7779 58.4846 11.1212C58.8539 10.9899 59.238 10.9023 59.6368 10.8586C60.5232 10.7564 61.2913 10.9899 61.9413 11.5882C62.1186 11.7049 62.2367 11.9092 62.5617 12.0113ZM60.597 13.0766C60.3311 13.062 60.0357 13.1787 59.7402 13.31C58.9721 13.6602 58.4698 14.2877 57.9085 14.8714C55.2791 17.6585 53.0632 20.752 51.1576 24.0498C50.552 25.1004 49.9906 26.1948 49.7986 27.4205C49.6656 28.3106 50.1679 28.7192 51.0099 28.3982C51.719 28.1355 52.2803 27.6686 52.7678 27.1141C53.9496 25.7716 54.9836 24.327 55.9586 22.8386C57.8051 19.9932 59.5482 17.0894 61.2322 14.1564C61.6606 13.4559 61.439 13.0766 60.597 13.0766ZM25.72 17.8773C25.6757 17.8919 25.6166 17.9065 25.6019 17.9357C24.1394 19.9494 22.7656 22.0215 21.8054 24.3124C21.4509 25.1588 21.1702 26.0489 21.1998 26.9974C21.2293 28.0334 21.8645 28.5149 22.9133 28.2961C23.6962 28.1355 24.3019 27.6978 24.878 27.1871C26.6064 25.6403 27.9359 23.7725 29.1619 21.8464C29.3097 21.6275 29.4574 21.394 29.5903 21.1605C29.8415 20.7082 29.8267 20.6498 29.3687 20.4747C29.2949 20.4455 29.2358 20.4309 29.1619 20.4018C27.8768 19.9056 26.7541 19.2052 25.9712 18.0378C25.8973 17.9649 25.8382 17.8919 25.72 17.8773ZM27.4336 16.5932C27.4188 16.9143 27.5222 17.2353 27.7143 17.5271C28.3347 18.461 29.2801 18.8988 30.3437 19.1031C30.6687 19.1614 30.846 19.0009 30.9789 18.7237C31.6437 17.4542 32.0868 16.1117 32.1755 14.6963C32.2493 13.5581 31.7175 12.8431 30.6244 12.9744C29.1028 13.1641 27.4336 15.0319 27.4336 16.5932Z" fill="black"/>
<path d="M99.6544 2.43897C99.1373 2.10336 98.6646 2.19091 98.2067 2.24928C97.0545 2.3952 96.05 2.89133 95.0455 3.44583C92.5047 4.83207 90.2741 6.62689 88.1764 8.58222C85.4436 11.1212 82.9176 13.8354 80.7165 16.8413C78.2939 20.1245 76.1224 23.5683 74.4975 27.3184C73.4634 29.7261 72.6953 32.2067 72.3555 34.8041C72.193 36.1028 72.3555 37.3869 73.1236 38.5105C73.9804 39.78 75.4724 40.3637 76.9939 40.0573C77.8212 39.8822 78.5893 39.5465 79.2984 39.1088C81.2483 37.883 82.8732 36.2925 84.2618 34.4831C85.5618 32.7904 86.6549 30.981 87.3935 28.9673C87.748 27.975 87.9992 26.9682 88.073 25.9176C88.0878 25.7716 88.0878 25.6257 88.073 25.4798C87.9844 23.9914 86.9947 23.4807 85.6947 24.2833C84.7198 24.8815 84.0107 25.7716 83.3903 26.7055C82.6369 27.8583 82.1199 29.1278 81.8096 30.4557C81.721 30.8205 81.5585 31.0394 81.204 31.2145C79.2984 32.1192 77.6587 33.3887 76.1519 34.8333C76.0781 34.9063 76.0042 34.9646 75.9303 35.023C75.9008 35.0522 75.8417 35.0376 75.7974 35.0522C75.6349 34.95 75.694 34.7895 75.7088 34.6582C76.0781 32.1046 76.8019 29.6677 78.2053 27.4643C79.6234 25.2317 81.4847 23.4661 83.8925 22.2987C84.9709 21.7734 86.0936 21.4378 87.3196 21.7297C88.2651 21.9631 88.9298 22.5322 89.2991 23.4369C89.698 24.4146 89.6536 25.436 89.565 26.4575C89.4025 28.3982 88.6048 30.1201 87.7185 31.8128C86.8174 33.5492 85.7538 35.1835 84.4982 36.6865C82.3858 39.2401 79.9188 41.3851 76.8758 42.786C75.1474 43.5885 73.3009 43.895 71.4101 43.4572C68.9727 42.8735 67.4364 41.283 66.6387 39.0066C65.7228 36.4092 65.8558 33.7681 66.7125 31.1999C67.85 27.7416 69.4749 24.5021 71.3214 21.3503C72.7396 18.9426 74.3202 16.6662 76.1076 14.5212C78.9291 11.1212 82.1051 8.08609 85.7243 5.5179C88.0583 3.86899 90.4957 2.42438 93.1399 1.32998C94.8387 0.629562 96.6113 0.264761 98.4578 0.279353C99.4476 0.293945 100.363 0.571193 101.132 1.16947C101.457 1.41753 101.708 1.43212 102.062 1.3008C103.687 0.673338 105.386 0.381497 107.114 0.323129C109.581 0.235576 111.9 0.819258 114.057 1.97203C116.435 3.24154 118.814 4.54023 121.177 5.82433C121.266 5.8681 121.355 5.91188 121.428 5.97025C121.827 6.23291 121.827 6.27668 121.488 6.62689C120.557 7.56078 119.611 8.48008 118.696 9.44315C118.385 9.76418 118.12 9.735 117.795 9.53071L114.426 7.56078C112.949 6.68526 111.472 5.79514 109.995 4.94881C108.37 4.01492 106.612 3.38746 104.766 3.00806C104.16 2.87674 103.539 2.86214 102.934 2.99347C102.653 3.05184 102.461 3.16858 102.461 3.51879C102.402 6.49556 101.338 9.1805 99.8907 11.7195C98.7828 13.6603 97.3499 15.3529 95.4443 16.6224C94.6171 17.1623 93.7308 17.5855 92.7853 17.8482C91.1309 18.3297 89.8161 17.3958 89.7127 15.6885C89.6536 14.6233 89.9048 13.6165 90.3036 12.6388C91.4115 9.92469 93.258 7.72129 95.3705 5.72218C96.5522 4.61319 97.8374 3.63552 99.2112 2.77459C99.3146 2.65786 99.4328 2.5849 99.6544 2.43897ZM100.792 4.83207C100.821 3.69389 100.792 3.65011 99.9941 4.08788C98.4874 4.91962 97.1579 5.99943 95.9318 7.21057C94.1296 8.97621 92.6672 10.9753 91.5888 13.2371C91.3229 13.8062 91.1013 14.4044 91.0865 15.0465C91.0718 16.0679 91.8251 16.6078 92.8001 16.3014C93.9523 15.9512 94.8977 15.2654 95.7841 14.4628C97.3056 13.062 98.4431 11.3985 99.3589 9.58908C100.157 8.02773 100.674 6.34964 100.792 4.83207ZM62.3105 44.4932C61.5571 44.0847 60.9219 43.7199 60.2571 43.3988C57.3766 42.0272 54.3631 41.2246 51.128 41.3851C49.4292 41.4727 47.8929 41.9542 46.6225 43.107C46.4304 43.2821 46.2532 43.4864 46.0759 43.6907C45.5589 44.3035 45.5441 44.3181 45.1009 43.6761C44.3476 42.5963 43.3726 41.7645 42.2056 41.1225C40.5216 40.1886 38.6898 39.78 36.7695 39.6195C33.2094 39.3277 29.7527 39.9259 26.3256 40.7431C22.5735 41.6478 18.8213 42.5525 15.0101 43.2091C13.2375 43.5156 11.4501 43.7345 9.64785 43.4426C6.45707 42.9173 3.75378 41.5894 1.89249 38.8899C1.08002 37.7225 0.740265 36.3801 0.503911 35.0084C-0.0426575 31.8711 0.385734 28.8068 1.36069 25.8154C2.55724 22.1236 4.43329 18.7821 6.7082 15.6302C8.74675 12.7993 11.1103 10.2603 13.6806 7.92558C16.8123 5.08013 20.269 2.67245 24.2723 1.14028C25.912 0.512825 27.596 0.104248 29.3834 0.104248C32.0276 0.11884 33.5491 1.75315 33.1798 4.30676C32.9583 5.82433 32.2935 7.18139 31.1708 8.27579C30.7572 8.66978 30.2845 8.96162 29.6936 9.06376C28.9255 9.19509 28.2755 8.75733 28.113 7.99854C27.8619 6.81659 28.4971 5.45953 29.605 4.84666C30.0629 4.5986 30.5356 4.39431 31.0527 4.33594C31.4072 4.29216 31.5401 4.07328 31.5697 3.73767C31.6435 2.89133 31.1708 2.33683 30.2993 2.27846C29.6788 2.23469 29.0732 2.35142 28.4823 2.54112C26.2369 3.28531 24.2722 4.54023 22.4848 6.0578C18.3929 9.5453 14.9806 13.6311 12.0114 18.067C10.0467 21 8.52517 24.1665 7.57976 27.5665C6.98887 29.6969 6.54571 31.8711 6.7082 34.1183C6.84115 35.9861 7.5059 37.6058 8.93879 38.8899C9.75126 39.6049 10.6967 40.0573 11.7159 40.3491C12.6318 40.6118 13.5772 40.7869 14.5522 40.8306C17.6248 40.9911 20.6383 40.5388 23.6223 39.853C27.5073 38.9483 31.3776 38.0436 35.2627 37.1388C38.099 36.4676 40.9647 36.0007 43.8749 36.059C48.8678 36.1612 53.4767 37.4745 57.6425 40.247C59.1197 41.2246 60.4492 42.3774 61.7048 43.6177C61.9412 43.822 62.1775 44.0409 62.3105 44.4932ZM143.601 0.527417C143.675 0.775482 143.557 0.90681 143.468 1.05273C141.297 4.5986 138.431 7.44404 134.738 9.44315C132.345 10.7418 129.819 11.6466 127.071 11.8946C125.934 11.9968 124.811 11.9384 123.689 11.7049C123.127 11.5882 123.083 11.486 123.423 11.0629C124.279 9.99765 125.181 8.96162 126.126 7.96936C126.362 7.72129 126.643 7.73589 126.938 7.73589C128.017 7.73589 129.095 7.77966 130.188 7.63374C132.67 7.29812 134.93 6.39342 137.116 5.24065C139.362 4.0441 141.356 2.51193 143.217 0.790074C143.291 0.717114 143.365 0.658746 143.439 0.600378C143.468 0.556602 143.513 0.556602 143.601 0.527417ZM72.9612 11.3255C73.5225 11.3255 74.0986 11.3109 74.66 11.3255C75.0293 11.3401 75.1031 11.4569 74.8963 11.7779C74.2463 12.8431 73.5816 13.8791 72.9168 14.9444C72.7543 15.207 72.5475 15.3092 72.2521 15.2946C71.1442 15.2946 70.0363 15.3092 68.9284 15.28C68.4261 15.28 68.3522 15.1486 68.6181 14.7109C69.2386 13.6894 69.8738 12.6826 70.509 11.6611C70.6715 11.3985 70.8783 11.2963 71.1885 11.3109C71.7794 11.3255 72.3703 11.3255 72.9612 11.3255Z" fill="black"/>
</svg>
