<svg width="119" height="76" viewBox="0 0 119 76" fill="none" xmlns="http://www.w3.org/2000/svg">
<path d="M52.813 29.3103V23.1218H57.8083V24.5787H54.7603V25.4472H57.3473V26.852H54.7603V27.8249H57.9305V29.3103H52.813Z" fill="black"/>
<path d="M61.082 29.3103H58.7866L60.9644 26.0927L59.0077 23.1218H61.2607L62.1168 24.6974L63.0058 23.1218H65.2588L63.1986 26.0927L65.2823 29.3103H63.0152L62.0651 27.5924L61.082 29.3103Z" fill="black"/>
<path d="M68.7397 24.6215C69.1159 24.6215 69.3888 24.6689 69.5534 24.7591C69.718 24.8493 69.798 25.0154 69.798 25.2574C69.798 25.4093 69.7603 25.5421 69.6898 25.6513C69.6192 25.7605 69.5252 25.8316 69.4123 25.8649C69.2994 25.8981 69.1018 25.9171 68.8149 25.9171H68.0906V24.6215H68.7397ZM68.1282 29.3103V27.393H69.2759C69.6428 27.393 69.9861 27.3456 70.3154 27.2459C70.527 27.1842 70.6823 27.1225 70.7904 27.0561C70.9363 26.9706 71.0821 26.852 71.2185 26.7001C71.3596 26.5483 71.4772 26.3442 71.5759 26.0879C71.6747 25.8316 71.7265 25.5421 71.7265 25.2242C71.7265 24.9394 71.6841 24.6831 71.6042 24.4601C71.5242 24.2323 71.4019 24.0282 71.242 23.8479C71.0821 23.6675 70.9033 23.5299 70.7152 23.4302C70.527 23.3306 70.2824 23.2546 69.9814 23.2024C69.6851 23.1502 69.2429 23.1218 68.655 23.1218H66.1479V29.3103H68.1282Z" fill="black"/>
<path d="M72.8457 29.3103V23.1218H74.8542V27.692H77.6199V29.3103H72.8457Z" fill="black"/>
<path d="M80.9784 27.5734C80.715 27.2459 80.5833 26.7951 80.5833 26.2114C80.5833 25.8269 80.6397 25.4995 80.7573 25.2385C80.8702 24.9774 81.0254 24.7829 81.2229 24.6547C81.4158 24.5313 81.6228 24.4649 81.8438 24.4649C82.0414 24.4649 82.2201 24.5123 82.3753 24.6025C82.5306 24.6927 82.6576 24.8066 82.7516 24.9395C82.8457 25.0724 82.921 25.2479 82.9727 25.4663C83.0244 25.6846 83.0527 25.9313 83.0527 26.2114C83.0527 26.6005 82.9962 26.928 82.8833 27.1937C82.7704 27.4643 82.6199 27.6541 82.4318 27.7727C82.2436 27.8914 82.032 27.9483 81.8015 27.9483C81.4534 27.9483 81.1806 27.8249 80.9784 27.5734ZM83.5983 29.0161C84.0828 28.7077 84.4402 28.309 84.6801 27.8154C84.9153 27.3219 85.0376 26.7666 85.0376 26.1449C85.0376 25.509 84.9012 24.949 84.6331 24.4601C84.365 23.9713 83.9746 23.6011 83.4666 23.3449C82.9586 23.0886 82.3989 22.9604 81.7921 22.9604C81.4722 22.9604 81.1712 22.9984 80.8796 23.0743C80.588 23.1503 80.3199 23.2547 80.0706 23.3923C79.8213 23.53 79.5814 23.7293 79.3509 23.9856C79.1204 24.2418 78.937 24.5598 78.8053 24.9347C78.6689 25.3096 78.603 25.732 78.603 26.2066C78.603 27.1937 78.8947 27.9863 79.4826 28.5795C80.0706 29.1775 80.8514 29.4717 81.8344 29.4717C82.5211 29.4765 83.1138 29.3246 83.5983 29.0161Z" fill="black"/>
<path d="M91.4301 24.9157H89.5158C89.4687 24.7354 89.384 24.6025 89.2618 24.5123C89.1348 24.4222 88.956 24.3795 88.7208 24.3795C88.4951 24.3795 88.3163 24.4269 88.1987 24.5218C88.1094 24.593 88.0623 24.6832 88.0623 24.7971C88.0623 24.892 88.0953 24.9727 88.1658 25.0296C88.2646 25.1151 88.4904 25.2005 88.8478 25.2907L89.6333 25.4805C90.3577 25.6561 90.8657 25.9076 91.1573 26.2303C91.4489 26.5531 91.5948 26.928 91.5948 27.3551C91.5948 27.6968 91.5195 28.0053 91.369 28.2853C91.2185 28.5653 91.035 28.7883 90.814 28.9497C90.5929 29.1111 90.3107 29.2392 89.9579 29.3341C89.6098 29.429 89.2382 29.4765 88.8525 29.4765C88.4292 29.4765 88.0294 29.4195 87.6578 29.3104C87.2862 29.2012 86.9805 29.0399 86.7359 28.8311C86.496 28.6222 86.3126 28.3849 86.1903 28.1097C86.1009 27.9151 86.0398 27.6778 86.0068 27.3931H87.94C87.9871 27.5876 88.0811 27.7395 88.2317 27.8439C88.3822 27.9483 88.6079 28.0005 88.9184 28.0005C89.1865 28.0005 89.384 27.9531 89.5016 27.8629C89.591 27.7965 89.6333 27.7015 89.6333 27.5782C89.6333 27.4548 89.591 27.3504 89.511 27.2744C89.4311 27.1985 89.21 27.1131 88.8478 27.0276L88.147 26.852C87.7801 26.7619 87.4367 26.6432 87.1169 26.4866C86.797 26.33 86.5525 26.1307 86.3925 25.8791C86.2279 25.6324 86.1479 25.3334 86.1479 24.9774C86.1479 24.631 86.2232 24.3225 86.369 24.052C86.5148 23.7815 86.7124 23.5632 86.957 23.3971C87.2063 23.231 87.4791 23.1171 87.7801 23.0459C88.0811 22.9794 88.3963 22.9415 88.7161 22.9415C89.0971 22.9415 89.4499 22.9794 89.7697 23.0601C90.0896 23.136 90.3436 23.2405 90.5317 23.3686C90.7199 23.4967 90.8751 23.6391 90.9927 23.8052C91.1103 23.9666 91.2044 24.1374 91.2702 24.3035C91.3361 24.4934 91.3925 24.6879 91.4301 24.9157Z" fill="black"/>
<path d="M92.8882 29.3103V23.1218H94.9013V29.3103H92.8882Z" fill="black"/>
<path d="M96.082 23.1218H98.1093L99.2147 27.2364L100.306 23.1218H102.328L100.217 29.3103H98.1799L96.082 23.1218Z" fill="black"/>
<path d="M105.597 27.5734C105.334 27.2459 105.202 26.7951 105.202 26.2114C105.202 25.8269 105.258 25.4995 105.376 25.2385C105.489 24.9774 105.644 24.7829 105.842 24.6547C106.034 24.5313 106.241 24.4649 106.462 24.4649C106.66 24.4649 106.839 24.5123 106.994 24.6025C107.149 24.6927 107.276 24.8066 107.37 24.9395C107.464 25.0724 107.54 25.2479 107.591 25.4663C107.648 25.6846 107.671 25.9313 107.671 26.2114C107.671 26.6005 107.615 26.928 107.502 27.1937C107.389 27.4643 107.239 27.6541 107.05 27.7727C106.862 27.8914 106.651 27.9483 106.42 27.9483C106.077 27.9483 105.799 27.8249 105.597 27.5734ZM108.217 29.0161C108.701 28.7077 109.059 28.309 109.299 27.8154C109.534 27.3219 109.656 26.7666 109.656 26.1449C109.656 25.509 109.52 24.949 109.252 24.4601C108.984 23.9713 108.593 23.6011 108.085 23.3449C107.577 23.0886 107.018 22.9604 106.411 22.9604C106.091 22.9604 105.785 22.9984 105.498 23.0743C105.207 23.1503 104.939 23.2547 104.689 23.3923C104.44 23.53 104.2 23.7293 103.97 23.9856C103.739 24.2418 103.556 24.5598 103.424 24.9347C103.288 25.3096 103.222 25.732 103.222 26.2066C103.222 27.1937 103.513 27.9863 104.101 28.5795C104.689 29.1775 105.47 29.4717 106.448 29.4717C107.145 29.4765 107.732 29.3246 108.217 29.0161Z" fill="black"/>
<path d="M116.054 24.9157H114.139C114.092 24.7354 114.008 24.6025 113.885 24.5123C113.758 24.4222 113.58 24.3795 113.344 24.3795C113.119 24.3795 112.945 24.4269 112.822 24.5218C112.733 24.593 112.686 24.6832 112.686 24.7971C112.686 24.892 112.719 24.9727 112.789 25.0296C112.888 25.1151 113.114 25.2005 113.471 25.2907L114.257 25.4805C114.981 25.6561 115.489 25.9076 115.781 26.2303C116.072 26.5531 116.218 26.928 116.218 27.3551C116.218 27.6968 116.143 28.0053 115.992 28.2853C115.842 28.5653 115.659 28.7883 115.437 28.9497C115.216 29.1111 114.934 29.2392 114.581 29.3341C114.233 29.429 113.862 29.4765 113.476 29.4765C113.053 29.4765 112.653 29.4195 112.281 29.3104C111.91 29.2012 111.604 29.0399 111.359 28.8311C111.12 28.6222 110.936 28.3849 110.814 28.1097C110.724 27.9151 110.663 27.6778 110.63 27.3931H112.564C112.611 27.5876 112.705 27.7395 112.855 27.8439C113.006 27.9483 113.236 28.0005 113.542 28.0005C113.81 28.0005 114.008 27.9531 114.125 27.8629C114.215 27.7965 114.257 27.7015 114.257 27.5782C114.257 27.4548 114.215 27.3504 114.135 27.2744C114.055 27.1985 113.834 27.1131 113.471 27.0276L112.771 26.852C112.404 26.7619 112.06 26.6432 111.74 26.4866C111.421 26.33 111.176 26.1307 111.016 25.8791C110.851 25.6324 110.771 25.3334 110.771 24.9774C110.771 24.631 110.847 24.3225 110.993 24.052C111.138 23.7815 111.336 23.5632 111.581 23.3971C111.83 23.231 112.103 23.1171 112.404 23.0459C112.705 22.9794 113.02 22.9415 113.34 22.9415C113.721 22.9415 114.073 22.9794 114.393 23.0601C114.713 23.136 114.967 23.2405 115.155 23.3686C115.343 23.4967 115.499 23.6391 115.616 23.8052C115.734 23.9666 115.828 24.1374 115.894 24.3035C115.96 24.4934 116.011 24.6879 116.054 24.9157Z" fill="black"/>
<path d="M76.43 71.2874H76.9945C78.208 71.2874 78.8571 72.0705 78.8571 73.0529C78.8571 74.0163 78.3256 74.9939 77.018 74.9939H75.9173L76.43 71.2874ZM75.3858 70.3572L74.6191 75.9289H77.4695C78.9418 75.9289 80.0753 74.7282 80.0753 73.0719C80.0753 71.8617 79.4262 70.362 77.2249 70.362H75.3858V70.3572Z" fill="black"/>
<path d="M81.9989 73.5891C82.1588 73.124 82.4034 72.9105 82.7609 72.9105C83.1325 72.9105 83.3535 73.1905 83.2877 73.5891H81.9989ZM84.2942 74.2251C84.5529 73.0386 83.9321 72.1511 82.7797 72.1511C81.6696 72.1511 80.79 73.0576 80.79 74.1918C80.79 75.2881 81.5003 75.9953 82.6198 75.9953C83.0007 75.9953 83.4429 75.8956 83.8991 75.7247L84.092 74.7993C83.4946 75.0461 83.0713 75.1742 82.7326 75.1742C82.2058 75.1742 81.8342 74.823 81.8907 74.2203H84.2942V74.2251Z" fill="black"/>
<path d="M87.6057 73.3613C87.2106 73.1572 86.7309 73.0528 86.5474 73.0528C86.4016 73.0528 86.3028 73.1193 86.3028 73.2142C86.3028 73.6223 87.5258 73.9308 87.5258 74.8325C87.5258 75.5112 86.9613 75.9905 86.1523 75.9905C85.7149 75.9905 85.3433 75.8908 84.8823 75.6535L85.0375 74.8278C85.3433 74.9417 85.6914 75.0888 86.0394 75.0888C86.2558 75.0888 86.3969 75.0081 86.3969 74.8847C86.3969 74.4861 85.1645 74.0827 85.1645 73.3471C85.1645 72.6352 85.729 72.1464 86.5427 72.1464C86.9331 72.1464 87.2765 72.246 87.6998 72.4833L87.6057 73.3613Z" fill="black"/>
<path d="M90.6631 75.0604C90.5503 75.0841 90.4703 75.1031 90.3621 75.1031C89.7553 75.1031 89.3838 74.7661 89.3838 74.2299C89.3838 73.6176 89.887 73.0054 90.9313 73.1336L90.6631 75.0604ZM92.4129 70.3572H91.3217L91.0724 72.1939C90.9171 72.1796 90.7243 72.1512 90.5361 72.1512C88.9981 72.1512 88.2549 73.2142 88.2549 74.2156C88.2549 75.3119 89.0827 75.9953 90.3809 75.9953C90.7854 75.9953 91.1758 75.9526 91.6462 75.8719L92.4129 70.3572Z" fill="black"/>
<path d="M94.0073 73.5891C94.1673 73.124 94.4119 72.9105 94.7693 72.9105C95.1409 72.9105 95.362 73.1905 95.2961 73.5891H94.0073ZM96.3074 74.2251C96.5661 73.0386 95.9452 72.1511 94.7929 72.1511C93.6828 72.1511 92.8032 73.0576 92.8032 74.1918C92.8032 75.2881 93.5135 75.9953 94.6329 75.9953C95.0139 75.9953 95.4608 75.8956 95.9123 75.7247L96.1052 74.7993C95.5078 75.0461 95.0845 75.1742 94.7458 75.1742C94.219 75.1742 93.8474 74.823 93.9039 74.2203H96.3074V74.2251Z" fill="black"/>
<path d="M101.656 75.9241H100.513L101.289 70.3525H102.432L101.656 75.9241Z" fill="black"/>
<path d="M106.641 71.9138C106.641 72.2792 106.392 72.863 105.823 72.863C105.489 72.863 105.273 72.6494 105.273 72.322C105.273 71.7999 105.654 71.3158 106.072 71.3158C106.397 71.3206 106.641 71.5721 106.641 71.9138ZM104.52 75.924H105.799L107.102 73.9308C107.577 73.2047 107.789 72.6162 107.789 72.0277C107.789 70.9599 107.14 70.2812 106.115 70.2812C104.774 70.2812 104.125 71.4392 104.125 72.3979C104.125 73.2284 104.652 73.8264 105.381 73.8264C105.55 73.8264 105.687 73.8027 105.908 73.722L105.922 73.7362L104.52 75.924Z" fill="black"/>
<path d="M109.092 70.585C109.529 70.3904 110 70.2812 110.404 70.2812C111.392 70.2812 112.069 70.8792 112.069 71.7335C112.069 72.4026 111.735 72.8867 111.147 73.0813C111.566 73.2996 111.787 73.703 111.787 74.2488C111.787 75.2834 110.945 75.9953 109.732 75.9953C109.252 75.9953 108.899 75.9051 108.339 75.6441L108.485 74.581C108.979 74.842 109.341 74.9559 109.699 74.9559C110.193 74.9559 110.588 74.6284 110.588 74.2108C110.588 73.7932 110.23 73.5227 109.689 73.5227C109.543 73.5227 109.454 73.5322 109.266 73.5654L109.412 72.5023C109.656 72.5593 109.863 72.5925 110.037 72.5925C110.545 72.5925 110.922 72.2982 110.922 71.9091C110.922 71.5579 110.644 71.3111 110.24 71.3111C109.882 71.3111 109.543 71.406 108.937 71.6765L109.092 70.585Z" fill="black"/>
<path d="M115.028 72.0372L115.042 72.0515L114.784 73.8786H113.561L115.028 72.0372ZM116.425 70.2812H115.513L112.794 73.7125V74.6427H114.68L114.501 75.924H115.644L115.823 74.6427H116.42L116.524 73.8833H115.927L116.425 70.2812Z" fill="black"/>
<path d="M118.09 62.7733H30.6309L31.4775 65.8012H118.085C118.128 65.8012 118.156 65.7679 118.156 65.7252V62.8492C118.161 62.8065 118.128 62.7733 118.09 62.7733Z" fill="black"/>
<path d="M27.9215 10.6212C27.9215 10.6212 28.8528 6.68214 29.2527 4.97363C30.5509 6.05094 33.787 8.73234 33.787 8.73234C33.787 8.73234 36.5433 6.93367 38.1896 5.86111C37.6533 8.18657 36.4351 13.4545 36.4351 13.4545C36.4351 13.4545 41.2845 12.885 43.547 12.6192C41.8631 14.6552 37.4417 19.9942 37.4417 19.9942C37.4417 19.9942 41.261 21.0099 43.0954 21.4987C40.8471 22.8987 34.7794 26.6669 34.7794 26.6669C34.7794 26.6669 33.3966 34.1796 32.484 39.1437C31.675 33.5721 30.2404 23.6723 30.2404 23.6723C30.2404 23.6723 23.8011 21.4655 21.3882 20.6397C23.0156 19.7475 26.0071 18.1101 26.0071 18.1101C26.0071 18.1101 23.1191 12.6429 22.1361 10.7778C23.9046 10.9487 27.7569 11.3236 27.7569 11.3236L27.9215 10.6212Z" fill="black"/>
<path d="M29.9207 33.1213L28.6977 24.8825L17.329 20.9529L23.7542 17.46L19.2434 8.79406L26.4117 9.5439L28.265 2.06444L33.8247 6.67741L40.6214 2.37292L38.5189 11.5372L47.2912 10.5405L40.3721 19.0831L47.1077 20.8912L36.2941 27.6873L35.184 33.1735H41.4257C41.4257 33.1735 41.8585 33.1735 42.3523 32.9219C42.8462 32.6704 43.0955 32.1104 43.0955 32.1104L51.896 17.7305C51.896 17.7305 52.3335 17.0661 52.3193 16.6294C52.3005 16.0552 51.9948 15.6328 51.9948 15.6328L43.152 1.12951C43.152 1.12951 42.7192 0.507804 42.3476 0.256274C41.9761 0.00474443 40.9271 0.00474441 40.9271 0.00474441H23.8765C23.8765 0.00474441 22.8276 -0.0569516 22.3337 0.256274C21.8398 0.5695 21.2848 1.62782 21.2848 1.62782L13.1851 14.9067C13.1851 14.9067 12.5078 15.965 12.442 16.4016C12.3808 16.8383 12.8135 17.6498 12.8135 17.6498L21.4259 31.6833C21.4259 31.6833 21.8304 32.4806 22.2443 32.7938C22.6535 33.1023 23.1286 33.1165 23.1286 33.1165H29.9207V33.1213Z" fill="black"/>
<path d="M5.12768 46.4904C5.12768 39.775 8.89999 38.1092 11.5811 38.1092C14.2621 38.1092 18.0344 39.7797 18.0344 46.4904C18.0344 53.2057 14.2621 54.8715 11.5811 54.8715C8.89999 54.8763 5.12768 53.2057 5.12768 46.4904ZM0.160645 46.4904C0.160645 57.7475 8.43433 59.1143 11.5811 59.1143C14.7278 59.1143 23.0015 57.7428 23.0015 46.4904C23.0015 35.2379 14.7278 33.8664 11.5811 33.8664C8.43433 33.8664 0.160645 35.2379 0.160645 46.4904Z" fill="black"/>
<path d="M49.3232 58.4831H44.3608V34.5023H49.3279V58.4831H49.3232Z" fill="black"/>
<path d="M70.1131 38.7404H57.5027V43.7852H69.0878V48.028H57.5027V54.2403H70.6776V58.4831H52.6392V34.5023H70.1178V38.7404H70.1131Z" fill="black"/>
<path d="M78.2552 38.6407H83.0199C85.1366 38.6407 88.4809 39.2102 88.4809 46.291C88.4809 50.2348 87.1215 54.34 83.0858 54.34H78.2505V38.6407H78.2552ZM73.3916 58.4831H83.6879C91.5335 58.4831 93.5514 51.0701 93.5514 45.9256C93.5514 41.3838 91.8957 34.5023 83.8854 34.5023H73.3916V58.4831Z" fill="black"/>
<path d="M99.8728 46.4904C99.8728 39.775 103.645 38.1092 106.326 38.1092C109.007 38.1092 112.78 39.7797 112.78 46.4904C112.78 53.2057 109.007 54.8715 106.326 54.8715C103.645 54.8763 99.8728 53.2057 99.8728 46.4904ZM94.9058 46.4904C94.9058 57.7475 103.179 59.1143 106.326 59.1143C109.473 59.1143 117.747 57.7428 117.747 46.4904C117.747 35.2379 109.468 33.8664 106.326 33.8664C103.184 33.8664 94.9058 35.2379 94.9058 46.4904Z" fill="black"/>
<path d="M36.9808 37.2786L32.6064 52.6694H32.5406L28.2226 37.2786H23.0439L30.1229 58.4831H34.8595L41.9996 37.2786H36.9808Z" fill="black"/>
</svg>
