<svg width="144" height="42" viewBox="0 0 144 42" fill="none" xmlns="http://www.w3.org/2000/svg">
<path d="M18.9253 8.52983C17.6547 7.09403 16.3311 6.66861 14.7428 7.04085C10.9309 7.99805 8.97198 12.2523 10.6132 16.1342C11.0897 17.1978 11.8309 18.2082 12.4662 19.2717C7.22485 21.3456 4.20708 25.1213 3.73059 31.1835C3.35999 30.6517 3.09527 30.2795 2.8835 29.9073C-1.03431 22.2497 0.606932 12.465 6.90719 6.56225C10.9838 2.68028 16.6488 1.93579 20.8313 4.64786C24.0608 6.77496 25.3844 10.8165 23.902 14.1135C22.3666 17.5169 18.2371 18.6868 15.537 16.5065C13.9487 15.2302 13.3663 13.5285 13.8428 11.6141C14.3193 9.80609 15.7487 9.00843 17.4429 8.68936C17.8665 8.63618 18.29 8.58301 18.9253 8.52983Z" fill="#1C1C1C"/>
<path d="M24.9078 29.535C29.5138 33.2574 34.4905 33.5765 40.2084 31.0771C39.4672 32.1407 39.0436 32.7788 38.5671 33.417C33.2728 40.3832 23.0018 43.3612 14.9544 40.2769C9.97774 38.3625 7.17174 33.8956 7.96589 29.0032C8.7071 24.4831 13.7897 21.452 17.8663 23.1537C20.3017 24.164 21.5194 26.3975 20.937 29.0032C20.5135 30.9176 19.1899 32.0875 17.3369 32.5129C15.6956 32.8852 14.372 32.1939 13.3132 30.9708C12.9955 30.5985 12.6778 30.2263 12.3602 29.8009C11.5131 32.0343 12.4131 34.0551 14.6368 35.0655C18.131 36.714 22.6312 34.8528 24.3254 31.1303C24.5372 30.6517 24.696 30.12 24.9078 29.535Z" fill="#1C1C1C"/>
<path d="M22.4194 0.5C29.355 0.712711 35.0729 3.63748 39.2554 9.54021C42.1144 13.5817 43.5438 18.0486 41.7438 22.941C39.5201 28.8969 32.5846 31.024 27.9785 27.2484C26.3372 25.8658 25.3313 24.1109 25.7019 21.9306C26.0196 19.8567 27.2373 18.4209 29.355 17.7296C31.3669 17.0914 33.0081 17.6764 34.3317 19.1122C35.6023 20.4948 35.3906 22.1433 34.7023 23.7387C34.5964 24.0045 34.4905 24.2704 34.3846 24.5895C36.7141 24.3236 38.2495 22.356 38.0377 20.1226C37.6142 15.8152 34.014 13.5285 28.5609 13.9008C28.0314 11.4014 27.9785 8.68937 26.9196 6.4559C25.9137 4.22244 23.9018 2.4144 22.4194 0.5Z" fill="#1C1C1C"/>
<path d="M110.146 20.0162C110.146 14.7516 114.7 10.5506 120.418 10.5506C126.135 10.5506 130.9 14.8048 130.741 19.963C130.53 26.0785 126.559 29.8009 120.47 29.8009C114.117 29.8541 110.358 25.7062 110.146 20.0162ZM120.576 14.8048C117.559 14.7516 114.858 17.1446 114.805 19.963C114.753 22.9942 117.4 25.7062 120.418 25.7594C123.382 25.8126 126.135 22.9942 126.082 20.0162C126.082 17.251 123.488 14.8048 120.576 14.8048Z" fill="#1C1C1C"/>
<path d="M72.3981 19.9631C72.3981 14.6453 76.8982 10.5506 82.6691 10.5506C88.2281 10.5506 93.1519 14.7516 92.993 19.8035C92.7813 25.8658 89.1811 29.8009 82.6691 29.8009C75.7864 29.8541 72.3451 25.1213 72.3981 19.9631ZM82.722 14.8048C79.6513 14.7516 77.0571 17.1446 77.0571 19.9631C77.0041 23.1005 79.5984 25.7062 82.6691 25.7062C85.6339 25.7062 88.334 22.941 88.2811 19.9099C88.2811 17.1978 85.6339 14.8048 82.722 14.8048Z" fill="#1C1C1C"/>
<path d="M105.435 14.9112C104.005 14.6985 102.841 14.3794 101.782 14.4326C101.093 14.4858 99.9816 15.1771 99.9816 15.6025C99.9816 16.2938 100.617 17.1446 101.199 17.6232C101.835 18.1018 102.735 18.2082 103.529 18.4209C106.758 19.4845 108.082 21.0266 107.923 23.7919C107.764 26.7698 105.805 29.1628 102.735 29.4287C100.723 29.5882 98.5521 29.3223 96.5932 28.7906C94.3166 28.2056 94.2637 27.7802 95.4284 25.7594C95.6402 25.3872 95.9049 25.0149 96.2755 24.5363C96.9108 24.8554 97.4932 25.2808 98.1285 25.4404C99.0815 25.7063 100.14 26.1317 101.04 25.919C101.835 25.7594 102.893 24.9618 102.999 24.2705C103.105 23.6855 102.258 22.622 101.623 22.1965C100.776 21.6116 99.611 21.452 98.605 21.133C96.4873 20.4948 95.1637 19.2186 95.0578 16.9851C94.9519 14.9644 95.5873 13.1031 97.3344 11.8801C99.4521 10.3379 103.741 10.1784 106.017 11.6673C106.335 11.8801 106.547 12.6245 106.441 12.9968C106.229 13.7413 105.752 14.3794 105.435 14.9112Z" fill="#1C1C1C"/>
<path d="M48.3085 20.1758C48.3085 17.8359 48.3615 15.4961 48.3085 13.1563C48.2556 11.8269 48.6791 11.1887 50.1086 11.2419C52.4381 11.3483 54.8206 11.2951 57.1501 11.2419C58.4736 11.1887 58.7384 11.8269 58.7384 12.9968C58.7384 14.0603 58.6325 14.9112 57.203 14.8048C56.4089 14.7516 55.5618 14.858 54.7147 14.8048C53.3911 14.6985 52.544 14.9112 52.544 16.6129C52.544 18.2082 53.2852 18.6336 54.6617 18.5273C55.1912 18.4741 55.6676 18.5804 56.1971 18.5273C57.6265 18.3677 58.0501 19.059 58.0501 20.4416C58.0501 21.8774 57.3618 22.0902 56.1441 22.0902C52.4381 22.0902 52.5969 21.3988 52.5969 25.6531C52.5969 26.0253 52.5969 26.3976 52.5969 26.7698C52.5969 29.0564 51.0616 30.12 48.9968 29.1628C48.6262 28.9501 48.3085 28.1524 48.3085 27.6206C48.3085 25.0681 48.3085 22.6219 48.3085 20.1758Z" fill="#1C1C1C"/>
<path d="M60.9624 20.2821C60.9624 17.9423 61.0683 15.6025 60.9095 13.2627C60.7507 11.1887 61.9684 11.2951 63.3978 11.2419C65.0391 11.1887 65.6744 11.6141 65.6214 13.369C65.5156 16.8787 65.6214 20.4416 65.5685 23.9514C65.5685 25.2276 65.992 25.8126 67.3156 25.7594C68.0568 25.7062 68.851 25.8126 69.5922 25.7594C70.9158 25.6531 71.7099 25.8126 71.7099 27.5143C71.7099 29.2691 70.7569 29.2691 69.5392 29.2691C67.2627 29.216 64.9861 29.216 62.7096 29.2691C61.386 29.3223 60.9095 28.7905 60.9624 27.5143C61.0154 25.0681 60.9624 22.6751 60.9624 20.2821Z" fill="#1C1C1C"/>
<path d="M133.389 20.2821C133.389 17.8359 133.442 15.3366 133.389 12.8904C133.336 11.2419 134.289 11.2419 135.454 11.2419C136.618 11.2951 137.783 11.0292 137.73 12.8904C137.677 16.5065 137.73 20.0694 137.677 23.6855C137.624 25.2276 138.207 25.9189 139.795 25.7594C140.43 25.7062 141.066 25.8126 141.701 25.7594C143.077 25.653 143.819 25.9189 143.766 27.5674C143.766 29.1628 142.972 29.2691 141.754 29.2691C139.53 29.2159 137.307 29.2159 135.083 29.2691C133.706 29.3223 133.283 28.7905 133.336 27.5143C133.442 25.0681 133.389 22.6751 133.389 20.2821Z" fill="#1C1C1C"/>
</svg>
