<svg width="146" height="42" viewBox="0 0 146 42" fill="none" xmlns="http://www.w3.org/2000/svg">
<path fill-rule="evenodd" clip-rule="evenodd" d="M77.8663 6.94282L71.7046 10.7444C71.2102 9.97648 70.5907 9.29006 69.7937 8.6246C68.9976 7.95834 68.024 7.31305 66.5826 6.89523C65.1412 6.47821 63.2304 6.29027 61.1654 6.36287C59.0989 6.43627 56.8783 6.77181 54.3939 7.83654C51.9096 8.89885 49.1623 10.6903 46.7731 12.8464L51.3643 0.642379H39.8443L32.0621 5.95875L33.731 0.642379H22.2537L13.8012 6.24107L0.160645 41.8328H11.2023L19.3983 36.0034L17.3181 41.8844H28.588L34.486 37.0746C34.8143 37.9425 35.4386 38.666 36.9002 39.5009C38.3617 40.3373 40.6614 41.2891 43.3087 41.5408C45.9552 41.7916 48.9501 41.344 51.495 40.3575C54.0398 39.371 56.1362 37.8465 57.4276 36.9358C58.719 36.0268 59.2054 35.7324 59.695 35.4436L57.351 41.4004H68.5169L76.1224 35.204C75.9917 36.2801 76.2958 37.4005 77.0992 38.3805C77.901 39.3589 79.1996 40.1954 80.9935 40.6898C82.7882 41.1859 85.0782 41.3407 87.169 41.1826C89.2613 41.0286 91.1528 40.5616 93.0975 39.5694C95.0399 38.5781 97.0314 37.0584 98.7075 35.2589L96.6547 41.1367H119.383L128.58 34.52L130.974 26.8177H122.319L135.331 14.0079L138.116 6.92104H116.24L113.539 7.95995L113.865 6.93475H102.373L104.872 0.115662H95.014L86.1978 6.94201H77.8663V6.94282ZM140.446 12.6625H141.234V11.0622H141.441C141.904 11.0622 142.135 11.2687 142.533 12.0341L142.856 12.6625H143.831L143.374 11.8801C142.973 11.192 142.877 11.0848 142.549 10.9581C143.195 10.8662 143.597 10.4492 143.597 9.87243C143.597 9.16584 143.126 8.76737 142.291 8.76576H140.447V12.6625H140.446V12.6625ZM141.234 10.4492V9.38604H141.955C142.472 9.38604 142.761 9.56591 142.761 9.88775C142.761 10.3024 142.535 10.4435 141.874 10.4475L141.555 10.45H141.234V10.4492ZM142.101 7.02671C141.619 7.02702 141.142 7.12232 140.697 7.30714C140.252 7.49196 139.848 7.76269 139.507 8.10384C139.167 8.44499 138.897 8.84988 138.713 9.29535C138.53 9.74082 138.435 10.2181 138.436 10.7C138.436 11.1818 138.53 11.659 138.714 12.1043C138.898 12.5496 139.167 12.9544 139.508 13.2954C139.848 13.6365 140.252 13.9071 140.697 14.0919C141.142 14.2767 141.619 14.3721 142.101 14.3725C143.074 14.371 144.006 13.9834 144.693 13.2947C145.38 12.6061 145.766 11.6728 145.765 10.7C145.766 10.2182 145.672 9.74097 145.488 9.29559C145.304 8.85022 145.034 8.44542 144.694 8.10431C144.354 7.7632 143.949 7.49247 143.504 7.30757C143.06 7.12267 142.583 7.02723 142.101 7.02671ZM142.107 7.74378C142.495 7.74473 142.878 7.82198 143.235 7.9711C143.593 8.12022 143.918 8.33829 144.191 8.61288C144.464 8.88747 144.681 9.21318 144.828 9.57143C144.975 9.92968 145.051 10.3134 145.05 10.7008C145.051 11.4827 144.742 12.2332 144.19 12.7872C143.638 13.3412 142.889 13.6535 142.107 13.6554C140.481 13.6554 139.166 12.3318 139.165 10.7C139.164 10.3127 139.239 9.92888 139.386 9.57063C139.534 9.21238 139.75 8.88667 140.023 8.61212C140.297 8.33758 140.621 8.11958 140.979 7.97059C141.336 7.82159 141.72 7.74452 142.107 7.74378V7.74378Z" fill="black"/>
<path fill-rule="evenodd" clip-rule="evenodd" d="M28.2427 13.6829L32.7711 1.33929H22.8659L10.0674 34.8822H20.0564L25.2688 20.9964H32.7154L27.5773 34.7491H37.7003L50.2801 1.2796H40.2516L35.4514 13.6829H28.2427ZM71.2117 11.6341C70.9988 10.8912 70.5624 10.2878 69.6194 9.5643C68.3506 8.59018 66.8718 7.9259 65.3009 7.6244C63.3747 7.25578 60.9726 7.36467 59.4594 7.51147C57.9462 7.66069 57.3227 7.84621 56.7104 8.02851C56.0982 8.21 55.4973 8.38584 54.7835 8.70284C54.0696 9.01984 53.2428 9.47718 52.462 10.0039C51.6826 10.5308 50.9511 11.1254 50.2761 11.7809C49.1017 14.3336 47.9989 16.9188 46.969 19.5332C45.9301 22.1636 44.9501 24.8447 44.4943 26.4346C44.0394 28.0244 44.1088 28.5237 44.1128 29.0133C44.1176 29.5029 44.0555 29.982 44.3016 30.6394C44.5476 31.2936 45.1001 32.1236 45.8139 32.7568C46.5262 33.3884 47.4014 33.8231 48.4637 34.1401C49.5276 34.4555 50.7802 34.6523 52.141 34.7652C53.5026 34.8774 54.9698 34.9072 56.5403 34.7241C58.1107 34.5426 59.7836 34.149 61.2371 33.4198C62.6907 32.689 63.9248 31.6219 64.9467 30.2313C65.9687 28.8415 66.7778 27.129 67.2424 25.3368H59.1795C58.4229 26.6209 57.5614 27.8639 56.9903 28.5503C56.4185 29.2391 56.1345 29.373 55.8312 29.5069C55.528 29.6441 55.2029 29.7796 54.7714 29.7384C54.3406 29.6957 53.8018 29.4739 53.5493 28.7995C53.2977 28.1268 53.3308 27.0032 53.5477 25.9603C53.7548 24.9458 54.1569 23.9813 54.7318 23.1202H67.9965C68.5268 21.5875 69.0773 20.0618 69.6477 18.5435C70.2147 17.048 70.806 15.5961 71.1076 14.429C71.4101 13.2594 71.4214 12.3769 71.2117 11.6341V11.6341ZM62.6318 16.1938C62.4092 16.7165 62.1962 17.1835 61.951 17.632H56.7992C57.0607 16.9132 57.348 16.204 57.6606 15.5058C57.9615 14.8282 58.2624 14.191 58.6907 13.7159C59.1198 13.2416 59.6764 12.9303 60.3087 12.7754C60.9411 12.6205 61.6477 12.6222 62.1623 12.9375C62.6769 13.2537 63.0004 13.8829 63.0448 14.487C63.0891 15.092 62.8552 15.6711 62.6318 16.1938V16.1938ZM82.1622 18.0281C82.6728 16.6318 83.3883 15.3187 84.4449 14.6572C85.5024 13.9966 87.0035 14.0297 88.503 14.062L90.7309 7.82524H77.8396L67.6562 34.4265H76.157L82.1622 18.0281ZM85.2443 29.982C85.3895 31.3855 85.9928 32.2712 86.935 32.9536C87.8771 33.6328 89.1547 34.107 91.1842 34.3853C93.212 34.6644 95.9908 34.7475 98.0025 34.4152C100.017 34.0812 101.265 33.3327 102.31 32.4003C103.354 31.4662 104.282 30.3886 104.768 29.1109L108.071 20.4213H100.3L97.9162 26.8427C97.6766 27.4888 97.4338 28.1647 96.9031 28.6027C96.3723 29.0439 95.673 29.2803 95.1245 29.1964C94.5744 29.1125 94.1791 28.7108 93.9993 28.2478C93.8194 27.7848 93.9033 27.2823 94.0718 26.8379L98.8784 14.2273H110.226L112.775 7.65586H101.282L103.915 0.77063H95.3463L86.1267 24.9617C85.471 26.6774 85.1007 28.5769 85.2443 29.982V29.982ZM108.913 27.5356L106.665 34.1304H127.899L130.114 27.5356H120.207L134.572 13.9676L137.046 7.4784H116.242L113.767 13.9676H123.774L108.913 27.5356V27.5356Z" fill="#5B5B5B"/>
</svg>
