<?xml version="1.0" encoding="utf-8"?>
<!-- Generator: Adobe Illustrator 24.0.2, SVG Export Plug-In . SVG Version: 6.00 Build 0)  -->
<svg version="1.1" id="Capa_1" xmlns="http://www.w3.org/2000/svg" xmlns:xlink="http://www.w3.org/1999/xlink" x="0px" y="0px"
	 viewBox="0 0 153 151" style="enable-background:new 0 0 153 151;" xml:space="preserve">
<style type="text/css">
	.st0{fill:#7C8850;}
</style>
<g>
	<g>
		<path class="st0" d="M142,75c0,36.5-29.5,66-66,66s-66-29.5-66-66s30.5,13,67,13S142,38.5,142,75z"/>
	</g>
	<path d="M80.5,6.1c2.6,0.4,5.1,0.6,7.7,1.1c9.3,1.6,17.9,5,25.8,10.2c3.2,2.1,4.1,6.1,2.1,9.2c-2,3.2-6,4.2-9.3,2.1
		c-6.4-4.1-13.2-7.1-20.7-8.3c-21.5-3.3-39.3,3.3-53.2,20c-7.3,8.7-11,19-11.9,30.4c-2,26.7,15.6,51.1,41.5,57.7
		c29.6,7.5,59.7-10.4,67.2-40c2.4-9.5,2.3-19-0.3-28.5c-0.5-1.7-0.7-3.3-0.2-5c0.9-2.8,3.4-4.7,6.4-4.7c2.9,0,5.7,1.7,6.4,4.6
		c1.1,4.6,1.8,9.3,2.7,13.9c0.1,0.6,0.2,1.1,0.3,1.7c0,2.9,0,5.7,0,8.6c-0.1,0.4-0.2,0.8-0.2,1.2c-0.4,5.4-1.5,10.7-3.2,15.9
		c-11.8,36.2-50.5,55.8-86.7,44c-27.7-9-47-34.8-47.5-63.7c-0.3-16.3,4.5-31.1,14.6-44C32.9,18.7,47.1,10.2,64.6,7.1
		c2.4-0.4,4.9-0.7,7.3-1C74.7,6.1,77.6,6.1,80.5,6.1z"/>
	<path d="M66.2,93c0.5-0.7,0.7-1.2,1.1-1.5C80.5,78.2,93.8,65,107,51.8c2.6-2.6,5.7-3.1,8.5-1.5c3.4,2,4.4,6.5,2,9.8
		c-0.3,0.4-0.7,0.8-1.1,1.2C102,75.8,87.6,90.2,73.1,104.7c-3.3,3.3-7.5,4.2-11.3,2.3c-1-0.5-2-1.2-2.8-2
		c-7.7-8-15.6-15.9-23.5-23.8c-3.4-3.4-2.7-8.6,1.3-10.9c2.7-1.5,5.9-1,8.4,1.4c6.6,6.6,13.2,13.1,19.8,19.7
		C65.3,91.8,65.6,92.3,66.2,93z"/>
</g>
</svg>
