<?xml version="1.0" encoding="utf-8"?>
<!-- Generator: Adobe Illustrator 24.0.2, SVG Export Plug-In . SVG Version: 6.00 Build 0)  -->
<svg version="1.1" id="Capa_1" xmlns="http://www.w3.org/2000/svg" xmlns:xlink="http://www.w3.org/1999/xlink" x="0px" y="0px"
	 viewBox="0 0 153 151" style="enable-background:new 0 0 153 151;" xml:space="preserve">
<style type="text/css">
	.st0{fill:#004C98;}
	.st1{fill:#FFFFFF;}
</style>
<circle class="st0" cx="75.3" cy="75.2" r="74.3"/>
<g>
	<path class="st1" d="M133.5,78.6c-0.3,2.2-0.5,4.4-0.9,6.6c-3.3,17.4-12.5,30.8-27.6,40c-9.8,6-20.6,8.7-32.1,8.1
		c-16.5-0.8-30.3-7.4-41.2-19.7c-8.3-9.3-13.1-20.2-14.2-32.5c-1.7-18.4,4.1-34.3,17.2-47.3c8.7-8.7,19.3-13.9,31.5-16
		c1.9-0.3,3.9-0.5,5.8-0.7c2.3,0,4.5,0,6.8,0c0.3,0.1,0.6,0.2,0.9,0.2c9.1,0.6,17.6,3.2,25.4,8c15.1,9.2,24.4,22.6,27.6,40
		c0.4,2.2,0.6,4.4,0.9,6.6C133.5,74,133.5,76.3,133.5,78.6z M130.1,75.2c0-30.1-24.5-54.7-54.7-54.8C45.2,20.3,20.5,45,20.5,75.2
		c0,30.1,24.5,54.7,54.7,54.8C105.4,130,130,105.4,130.1,75.2z"/>
	<path class="st1" d="M26.6,73.3c0.8-22.9,18-42.4,40.8-46.1c25.8-4.2,50.1,12.5,55.5,38.1c0.6,2.8,0.7,5.8,1,8.7
		c0.1,0.9-0.1,1.7-1,2.1c-0.9,0.4-1.7,0-2.3-0.8c-9-10.4-20.6-16.2-34-18.4c-13.7-2.3-26.9-0.7-39.5,5.4c-6.4,3.1-12,7.2-16.7,12.6
		c-0.3,0.3-0.5,0.7-0.9,0.9c-0.6,0.2-1.4,0.6-1.8,0.3c-0.5-0.2-0.8-1-1-1.6C26.5,74.1,26.6,73.6,26.6,73.3z M30.5,69.5
		c12.7-11.8,27.8-17,44.8-17c17,0,32.1,5.3,44.8,17c-1.8-19.1-18.9-39.3-44.4-39.5C50.9,29.8,32.7,48.9,30.5,69.5z"/>
	<path class="st1" d="M38.1,84.4c13.5,0.2,25.9,8.4,31.1,20.9c2.2,5.3,2.9,10.7,2.4,16.3c-0.1,1.4-0.9,2-2.3,1.8
		c-19.5-2.4-35.7-16.3-40.9-35.2c-0.4-1.4,0-2.3,1.5-2.6C32.6,85.2,35.4,84.8,38.1,84.4z M32.2,88.7c5.2,17.8,22,29.6,36,30.9
		C69.6,101.5,52.8,84.7,32.2,88.7z"/>
	<path class="st1" d="M78.8,117.9c0.3-15.1,9.8-27.6,24.3-31.9c5.8-1.7,11.7-1.8,17.6-0.3c1.4,0.3,1.9,1.2,1.5,2.5
		c-5,16.6-15.7,27.7-32.1,33.3c-2.8,1-5.8,1.4-8.7,1.9c-1.5,0.3-2.2-0.4-2.3-1.9C78.9,120.4,78.8,119.2,78.8,117.9z M82.4,119.8
		c9.5-1.5,17.6-5.7,24.5-12.3c5.4-5.3,9.3-11.5,11.5-18.8C97.7,84.7,80.9,101.6,82.4,119.8z"/>
	<path class="st1" d="M90,75.2c0,8.1-6.7,14.7-14.8,14.7c-8.1,0-14.7-6.7-14.7-14.8c0-8.1,6.7-14.7,14.8-14.7
		C83.4,60.4,90,67.1,90,75.2z M86.6,75.2c0-6.1-5.1-11.3-11.2-11.4C69.3,63.8,64,69,64,75.1c0,6.1,5.1,11.3,11.2,11.4
		C81.3,86.6,86.6,81.4,86.6,75.2z"/>
</g>
</svg>
