<?xml version="1.0" encoding="utf-8"?>
<!-- Generator: Adobe Illustrator 24.0.2, SVG Export Plug-In . SVG Version: 6.00 Build 0)  -->
<svg version="1.1" id="Capa_1" xmlns="http://www.w3.org/2000/svg" xmlns:xlink="http://www.w3.org/1999/xlink" x="0px" y="0px"
	 viewBox="0 0 153 151" style="enable-background:new 0 0 153 151;" xml:space="preserve">
<style type="text/css">
	.st0{fill:#004C98;}
	.st1{fill:#FFFFFF;}
</style>
<circle class="st0" cx="75.3" cy="75.2" r="74.3"/>
<g>
	<path class="st1" d="M76.3,19.3c1.4,0.6,2.3,1.6,3.1,2.8c6.8,10.5,13.9,20.8,20.5,31.3c4.8,7.6,9.2,15.3,12.5,23.7
		c2.3,5.8,3.8,11.7,3,18.1c-1.4,11.3-6.6,20.5-15.6,27.5c-5.9,4.6-12.6,7.4-20.1,8.2c-8.7,0.9-16.8-0.8-24.5-5.1
		c-7.7-4.4-13.4-10.6-16.8-18.7c-3.7-8.6-4.6-17.4-1.4-26.4c2.4-6.7,5.4-12.9,8.9-19C52.6,49.7,60.3,38.5,68,27.2
		c1.1-1.6,2.1-3.2,3.1-4.9c0.8-1.3,1.8-2.4,3.2-3.1C75.2,19.3,75.7,19.3,76.3,19.3z M75.5,30.2c-0.2,0.3-0.4,0.5-0.5,0.6
		c-5.8,8.8-11.6,17.5-17.3,26.3C53.3,64,49.2,71.2,46,78.8c-2.3,5.6-3.7,11.2-2.6,17.3c1.5,8.2,5.3,14.9,11.8,20
		c6.7,5.2,14.2,7.6,22.7,6.9c5.8-0.4,11.2-2.3,16-5.6c6.9-4.9,11.2-11.5,13.1-19.7c0.8-3.4,1.1-6.8,0.4-10.3
		c-1.1-5.7-3.5-10.9-6.1-15.9c-4.6-9.1-10-17.5-15.6-25.9C82.4,40.6,78.9,35.5,75.5,30.2z"/>
	<path class="st1" d="M102.7,92.4c-0.9,10-5.4,17.2-13.5,22.2c-2,1.2-4,0.7-5.4-1c-1.2-1.6-1.1-3.8,0.3-5.2c0.3-0.3,0.6-0.6,0.9-0.7
		c6-3.6,9.1-9,9.8-15.9c0.2-1.8,1.3-3.1,2.9-3.5c1.5-0.4,3.3,0.2,4.1,1.6C102.4,90.7,102.5,91.8,102.7,92.4z"/>
</g>
</svg>
