<?xml version="1.0" encoding="utf-8"?>
<!-- Generator: Adobe Illustrator 24.0.2, SVG Export Plug-In . SVG Version: 6.00 Build 0)  -->
<svg version="1.1" id="Capa_1" xmlns="http://www.w3.org/2000/svg" xmlns:xlink="http://www.w3.org/1999/xlink" x="0px" y="0px"
	 viewBox="0 0 153 151" style="enable-background:new 0 0 153 151;" xml:space="preserve">
<style type="text/css">
	.st0{fill:#004C98;}
	.st1{fill:#FFFFFF;}
</style>
<circle class="st0" cx="75.3" cy="75.2" r="74.3"/>
<g>
	<path class="st1" d="M124.8,51.9c0,0.4,0,0.8,0,1.1c-1,1-1.9,2-2.9,2.9c-1.6,1.4-2.7,3.1-3.7,5c-1,1.9-1.7,3.8-1.6,6.1
		c0.1,1.8-0.9,3.2-2.5,4c-0.6,0.3-0.7,0.6-0.7,1.2c0,7.2,0,14.4,0,21.6c0,1.3,0,2.3,1.4,3.1c1.7,1,1.9,2.8,1.8,4.7
		c0,0.6,0.1,0.9,0.7,1.2c1.5,0.8,2.4,2,2.4,3.7c0,1.5,0.3,2.2,1.9,2.6c1.7,0.4,2.5,1.9,3,3.4c0,1.6,0,3.1,0,4.7
		c-0.6,1-1.5,1.1-2.5,1.1c-30.5,0-61.1,0-91.6,0c-0.3,0-0.6,0-0.9,0c-1-0.1-1.5-0.7-1.6-1.7c0-1.2,0-2.3,0-3.5
		c0.1-2.1,1.7-4,3.7-4.3c1.1-0.2,1.2-0.6,1.1-1.5c-0.1-1.8,0.5-3.3,2.1-4.2c1-0.6,1.2-1.2,1.2-2.2c-0.1-2.1,0.8-3.7,2.7-4.7
		c0.2-0.1,0.5-0.6,0.5-0.9c0-7.8,0-15.6,0-23.4c0-0.3-0.3-0.7-0.6-0.9c-1.7-1-2.6-2.5-2.6-4.5c0-0.6,0.1-1.1,0-1.7
		c-0.1-0.6-0.2-1.2-0.4-1.8c-1.4-3.6-3.5-6.5-6.5-9c-0.1-0.1-0.2-0.2-0.3-0.3c-1.4-1.4-1.2-2.3,0.4-3.3C44.7,41.5,59.8,32.3,74.9,23
		c1.2-0.7,2.1-0.7,3.3,0c15,9.2,30.1,18.4,45.2,27.6C123.9,51,124.3,51.5,124.8,51.9z M112.5,55.6c-0.3-0.2-0.5-0.4-0.6-0.5
		C100.3,48,88.7,40.9,77.1,33.8c-0.5-0.3-0.9-0.2-1.3,0.1C64.3,40.9,52.8,48,41.4,55.1c-0.2,0.2-0.5,0.3-0.8,0.6
		C64.6,55.6,88.5,55.6,112.5,55.6z M36.3,108.8c0.5,0,0.9,0,1.3,0c9.5,0,18.9,0,28.4,0c0.4,0,0.8,0,1.1,0c0.8,0.1,1.3,0.6,1.4,1.4
		c0.1,0.8-0.4,1.5-1.2,1.6c-0.4,0.1-0.9,0.1-1.3,0.1c-10.7,0-21.3,0-32,0c-0.3,0-0.7,0-1,0c-0.8,0.1-1.3,0.5-1.4,1.2
		c-0.1,0.6,0,1.3,0,1.9c30.1,0,60.1,0,90,0c0.3-2.4-0.1-3.2-2.7-3.2c-10.6,0.1-21.1,0-31.7,0c-0.4,0-0.9,0-1.3-0.1
		c-0.8-0.2-1.3-0.8-1.2-1.6c0.1-0.8,0.5-1.3,1.4-1.4c0.4-0.1,0.8,0,1.1,0c9.5,0,18.9,0,28.4,0c0.4,0,0.8,0,1.5,0
		c-0.2-1-0.2-2-0.7-2.6c-0.3-0.4-1.3-0.6-1.9-0.6c-25.2,0-50.4,0-75.6,0c-0.3,0-0.7,0-1,0c-0.8,0.1-1.3,0.6-1.4,1.5
		C36.3,107.6,36.3,108.2,36.3,108.8z M71.7,65.4c0,0.4,0,0.7,0,1.1c0.1,2.2-0.8,3.8-2.8,4.9c-0.2,0.1-0.4,0.6-0.4,0.9
		c0,7.8,0,15.5,0,23.3c0,0.5,0.2,0.8,0.6,1c1.7,0.9,2.6,2.3,2.6,4.3c0,0.5,0,1,0,1.5c3.3,0,6.4,0,9.6,0c0.1-0.1,0.1-0.2,0.1-0.2
		c0-0.3,0-0.5,0-0.8c-0.1-2.2,0.8-3.9,2.8-4.9c0.2-0.1,0.4-0.6,0.4-0.9c0-7.7,0-15.5,0-23.2c0-0.5-0.1-0.8-0.6-1.1
		c-1.7-0.9-2.5-2.3-2.6-4.2c0-0.5,0-1.1,0-1.6C78.1,65.4,75,65.4,71.7,65.4z M35,55.2c0.3-0.1,0.6-0.3,0.8-0.5
		c13.1-8,26.1-16.1,39.1-24.1c1.1-0.7,2-0.7,3.1,0c11.6,7.2,23.2,14.3,34.8,21.5c1.7,1.1,3.5,2.1,5.1,3.1c0.9-0.8,1.7-1.6,2.5-2.4
		c-0.2-0.1-0.4-0.3-0.6-0.4c-14.2-8.7-28.5-17.4-42.7-26.1c-0.6-0.4-0.9-0.2-1.4,0.1C63.9,33.5,52.1,40.7,40.3,48
		c-2.6,1.6-5.2,3.2-7.8,4.8C33.4,53.5,34.1,54.3,35,55.2z M37.3,58.9c0.4,0.8,0.8,1.5,1.1,2.2c0.3,0.8,0.7,1,1.5,1
		c24.4,0,48.8,0,73.2,0c0.2,0,0.4,0,0.7,0c0.2,0,0.4-0.1,0.5-0.3c0.5-0.9,1-1.9,1.5-2.9C89.5,58.9,63.5,58.9,37.3,58.9z M49.1,95.9
		c0-8.1,0-16,0-24c-2.1,0-4.2,0-6.3,0c0,8,0,16,0,24C44.9,95.9,47,95.9,49.1,95.9z M58.9,71.8c0,8.1,0,16.1,0,24c2.2,0,4.2,0,6.3,0
		c0-8,0-16,0-24C63,71.8,61,71.8,58.9,71.8z M87.9,71.8c0,8.1,0,16.1,0,24c2.1,0,4.2,0,6.3,0c0-8,0-16,0-24
		C92,71.8,90,71.8,87.9,71.8z M110.3,71.8c-2.2,0-4.2,0-6.3,0c0,8.1,0,16,0,24c2.1,0,4.2,0,6.3,0C110.3,87.8,110.3,79.9,110.3,71.8z
		 M54.1,70.7c-1.7,0.3-1.8,1.4-1.8,2.8c0.1,4.4,0,8.8,0,13.2c0,3.2,0,6.3,0,9.5c0.6,0.3,1.1,0.7,1.6,1c0.5-0.3,1-0.6,1.6-1
		c0-0.3,0-0.7,0-1.1c0-7.2,0-14.4,0-21.7C55.6,72.1,55.4,71.1,54.1,70.7C54.1,70.7,54,70.6,54.1,70.7z M99.1,70.7
		c-1.6,0.4-1.7,1.4-1.6,2.8c0.1,6.9,0.1,13.9,0,20.8c0,1.4,0.3,2.4,1.6,2.8c0.5-0.3,1-0.6,1.6-0.9c0-0.3,0-0.6,0-1
		c0-7.2,0-14.4,0-21.7C100.7,72.2,100.7,71,99.1,70.7z M39.5,65.4c0,0.6,0,1,0,1.5c0,1,0.6,1.7,1.6,1.7c3.2,0,6.4,0,9.6,0
		c0.8,0,1.4-0.5,1.6-1.2c0.1-0.6,0-1.3,0-1.9C48,65.4,43.8,65.4,39.5,65.4z M55.6,65.4c0,0.6,0,1.2,0,1.7c0.1,0.9,0.7,1.4,1.6,1.4
		c3.2,0,6.5,0,9.7,0c0.9,0,1.5-0.6,1.6-1.5c0-0.5,0-1,0-1.6C64.1,65.4,59.9,65.4,55.6,65.4z M84.6,65.4c0,0.6,0,1.1,0,1.6
		c0.1,1,0.6,1.6,1.6,1.6c3.2,0,6.4,0,9.6,0c0.9,0,1.4-0.5,1.6-1.3c0.1-0.6,0-1.2,0-1.8C93.1,65.4,88.9,65.4,84.6,65.4z M113.5,65.4
		c-4.4,0-8.6,0-12.9,0c0,0.5,0,0.9,0,1.4c0,1.1,0.6,1.8,1.7,1.8c3.1,0,6.3,0,9.4,0c1.1,0,1.7-0.6,1.7-1.7
		C113.5,66.4,113.5,65.9,113.5,65.4z M52.4,102.3c0-0.5,0-1,0-1.5c0-1-0.6-1.7-1.6-1.7c-3.2,0-6.4,0-9.6,0c-1,0-1.5,0.7-1.6,1.6
		c0,0.5,0,1,0,1.5C43.8,102.3,48,102.3,52.4,102.3z M68.4,102.3c0-0.6,0-1.1,0-1.6c-0.1-0.9-0.6-1.6-1.5-1.6c-3.3,0-6.5,0-9.8,0
		c-0.9,0-1.4,0.6-1.5,1.5c0,0.5,0,1,0,1.6C59.9,102.3,64.1,102.3,68.4,102.3z M97.4,102.3c0-0.6,0-1,0-1.4c0-1.1-0.6-1.7-1.7-1.7
		c-3.2,0-6.3,0-9.5,0c-0.8,0-1.4,0.4-1.6,1.2c-0.1,0.6,0,1.3,0,1.9C88.9,102.3,93.1,102.3,97.4,102.3z M113.5,102.3
		c0-0.3,0-0.5,0-0.7c0-2.1-0.4-2.5-2.5-2.5c-2.6,0-5.3,0.1-7.9,0c-1.8-0.1-3,0.5-2.3,3.2C105,102.3,109.2,102.3,113.5,102.3z"/>
	<path class="st1" d="M82.9,45.2c0,3.5-2.9,6.4-6.4,6.4c-3.6,0-6.4-2.9-6.4-6.5c0-3.5,3-6.4,6.5-6.4C80.1,38.8,82.9,41.7,82.9,45.2z
		 M76.5,48.4c1.8,0,3.2-1.4,3.3-3.2c0-1.8-1.4-3.2-3.2-3.2c-1.7,0-3.2,1.4-3.2,3.2C73.3,46.9,74.7,48.4,76.5,48.4z"/>
</g>
</svg>
