<?xml version="1.0" encoding="utf-8"?>
<!-- Generator: Adobe Illustrator 24.0.2, SVG Export Plug-In . SVG Version: 6.00 Build 0)  -->
<svg version="1.1" id="Capa_1" xmlns="http://www.w3.org/2000/svg" xmlns:xlink="http://www.w3.org/1999/xlink" x="0px" y="0px"
	 viewBox="0 0 153 151" style="enable-background:new 0 0 153 151;" xml:space="preserve">
<style type="text/css">
	.st0{fill:#004C98;}
	.st1{fill:#FFFFFF;}
</style>
<circle class="st0" cx="75.3" cy="75.2" r="74.3"/>
<g>
	<path class="st1" d="M86.6,138.5c-0.1-0.1-0.2-0.2-0.3-0.2c-7.1-1.2-9.9-9.6-8.7-14.6c0.9-3.8,1.8-7.6,1.6-11.6
		c-0.1-2.6-0.5-5.2-0.8-7.8c-0.3-3.4-0.4-6.9,0.5-10.3c0.7-2.4,0.1-4.6-1.6-6.4c-1.2-1.2-2.7-2.2-4.1-3.2c-1.8-1.3-3.7-2.3-5.4-3.7
		c-3.9-3-5.1-7-3.7-11.7c0.6-2.1,1.6-4.1,2.5-6.1c1.3-2.8,1-4.1-1.7-5.7c-1.1-0.6-2.2-1.1-3.3-1.6c-1.7-0.7-3.2-1.7-4-3.6
		c-0.2-0.4-0.8-0.7-1.3-0.8c-2-0.6-4-1-6-1.5c-9.8-2.8-15.6-9.6-18.6-19c-0.5-1.6-0.9-3.2-1.3-4.8c-0.8-2.9-0.2-4.2,2.5-5.6
		c0.5,0,1.1,0,1.6,0c1.6,0.7,3.3,1.4,4.9,2.2c1.9,1,3.4,2.5,4.3,4.5c0.7,1.5,1.7,2.3,3.4,2.3c2.1,0.1,3,0.9,3.5,3
		c0.5,1.8,0.8,3.6,1.4,5.3c0.6,2,1.2,2.2,3.3,2.1c1.9-0.1,3.8-0.1,5.6,0.2c2.4,0.4,3.9,2,4.4,4.4c0.2,1.1,0.6,2.1,1,3.2
		c0.3,0.8,1,1.2,1.9,0.9c2.2-0.7,3.8,0.1,5.1,1.9c0.5,0.7,1,0.8,1.7,0.3c0.7-0.6,1.4-1.2,2.1-1.8c0.1-0.1,0.3-0.4,0.3-0.6
		c0-1.8,0-3.7,0-5.6c-1.2-0.4-2.5-0.8-3.8-1.1c-1.5-0.4-2.7-1.1-3.5-2.4c-0.9-1.5-2.2-2.2-4-2.3c-5-0.3-6.6-3.9-6.4-7.8
		c0.1-2.2,2-3.4,4.1-2.8c1.2,0.4,2.4,0.9,3.4,1.7c2.7,2,5.6,2.9,8.9,2.8c1.4,0,2.8-0.1,4.3-0.1c0.6,0,1.2-0.1,1.7,0.2
		c1.3,0.7,2.2,0,3.2-0.7c11.4-8.7,28.3-2.4,31.3,11.6c0.1,0.3,0.1,0.5,0.1,0.8c0.1,1-0.4,1.8-1.3,2c-0.9,0.2-1.7-0.3-2-1.3
		c-0.3-1.1-0.5-2.2-0.9-3.2c-2.5-6.9-9.8-11.3-17.1-10.4c-7.6,0.9-13.6,6.7-14.5,14.2C80,51,83.2,57.4,89.5,60.7
		c1.2,0.6,2,1.5,2.7,2.6c1.6,2.9,3.2,5.7,4.9,8.6c0.2-0.4,0.4-0.6,0.6-0.9c1.5-2.6,2.9-5.3,4.5-7.9c0.6-0.9,1.5-1.8,2.4-2.3
		c4.1-2.2,6.8-5.5,8.3-9.9c0.4-1.3,1.2-1.9,2.2-1.6c1.1,0.3,1.4,1.3,1,2.6c-1.2,4-3.5,7.2-6.7,9.8c-0.4,0.3-0.8,0.6-1.2,0.9
		c0.8,1.7,2.1,2.5,3.8,2.9c2,0.5,4.1,1,6.1,1.7c4.3,1.6,5.8,4.4,4.4,8.8c-0.5,1.7-1.6,3.4-2.7,4.9c-1.5,2.1-3.5,3.9-4.9,6.1
		c-1.3,2.1-2,4.5-2.9,6.7c-0.4,1.1-0.7,2.2-1.2,3.2c-0.4,1-1.3,1.3-2.2,0.9c-0.9-0.4-1.3-1.3-0.9-2.3c0.5-1.5,1-2.9,1.4-4.4
		c1.2-3.9,3.3-7.2,6-10.2c0.9-1,2-2,2.6-3.2c0.7-1.3,1.2-2.7,1.6-4.1c0.4-1.3-0.3-2.3-1.6-2.8c-1.4-0.5-2.7-1.1-4.1-1.4
		c-3.3-0.7-6.5-1.6-8.4-5c-1.8,3.3-3.6,6.3-5.3,9.4c-0.6,1.1-1.4,2-2.8,2c-1.4,0-2.2-0.9-2.8-2c-1.7-3-3.4-6-5.1-9
		c-0.3-0.5-0.7-1-1.2-1.2c-4.5-2.4-7.7-6-9.6-10.8c0-0.1-0.1-0.2-0.2-0.4c-0.6,0.4-1.2,0.8-1.8,1.2c-2.2,1.3-4,1-5.6-0.9
		c-0.7-0.8-1.2-1.2-2.4-0.9c-2.2,0.5-4.1-0.4-5.1-2.6c-0.6-1.2-1-2.6-1.4-3.9c-0.4-1.5-1-2.1-2.5-2.2c-1.4-0.1-2.9-0.1-4.3,0.1
		c-2.6,0.3-4.6-0.6-5.7-2.9c-0.8-1.8-1.3-3.8-1.8-5.8c-0.3-1.2-0.6-1.8-2-1.9c-2.1-0.1-3.7-1.4-4.6-3.2c-1.5-3.2-4.2-4.6-7.4-5.6
		c-0.1,0.1-0.2,0.2-0.1,0.3c1.1,4.2,2,8.4,4.3,12.1c3.7,6,9.1,9.5,15.9,10.9c1.4,0.3,2.8,0.7,4.2,1.1c1.3,0.4,2.2,1.2,2.8,2.5
		c0.3,0.6,0.9,1.1,1.4,1.4c0.8,0.5,1.8,0.7,2.6,1.2c1,0.5,2.1,1,3,1.7c3.2,2.5,3.8,5.1,2.1,8.8c-1.1,2.4-2.5,4.8-2.9,7.5
		c-0.4,2.4,0.3,4.5,2.1,6c1.5,1.2,3.1,2.3,4.6,3.4c1.6,1.1,3.4,2.1,4.9,3.4c3.4,3,4.6,6.8,3.4,11.3c-1,3.4-0.6,6.9-0.1,10.3
		c1,6.1,0.5,12.1-1,18c-0.9,3.3,0,6.3,2.1,8.9c1.2,1.4,2.8,2.1,4.7,2.2c0.6,0,1.2-0.2,1.9-0.3c-0.2-0.3-0.3-0.4-0.4-0.4
		c-2.6-0.9-3.8-3.1-3.9-5.6c-0.1-3.4,0.2-6.9,0.5-10.3c0.2-2.1,1.5-3.6,3.4-4.6c0.4-0.2,0.8-0.5,1.2-0.6c3-1,4.7-3.2,5.6-6.1
		c0.9-3,2.8-5.2,5.6-6.7c1.1-0.6,2.1-0.4,2.6,0.5c0.6,0.9,0.2,1.9-0.9,2.6c-2,1.1-3.4,2.7-4,4.9c-1.1,3.9-3.5,6.6-7.3,8
		c-1.9,0.7-2.9,2-3,4c-0.1,2.6-0.3,5.3-0.3,7.9c0,1.4,0.6,2.4,2.1,3c1.4,0.5,2.3,1.7,2.2,3.3c-0.1,1.7-1.1,2.7-2.5,3.4
		c-0.4,0.2-0.9,0.4-1.4,0.5C88.4,138.5,87.5,138.5,86.6,138.5z M80.8,34.5c-3.1-0.2-6.2-0.3-9.3-0.6c-3.2-0.3-5.5-2.7-8.3-4.2
		c0,2.8,0.9,3.8,3.5,3.9c2.2,0.1,4.2,0.8,5.4,2.7c1.5,2.4,4,2.3,6.1,3.1C79.1,37.7,80,36,80.8,34.5z"/>
	<path class="st1" d="M97.2,58.2C90.7,58.3,85.1,53,85,46.3c-0.1-6.5,5.2-12.1,11.6-12.2c6.9-0.2,12.4,5,12.5,11.8
		C109.2,52.5,103.9,58,97.2,58.2z M97,37.5c-4.7,0-8.6,3.9-8.6,8.6c0,4.7,3.9,8.6,8.6,8.6c4.7,0,8.5-3.9,8.6-8.6
		C105.7,41.4,101.8,37.5,97,37.5z"/>
</g>
</svg>
