<?xml version="1.0" encoding="utf-8"?>
<!-- Generator: Adobe Illustrator 24.0.2, SVG Export Plug-In . SVG Version: 6.00 Build 0)  -->
<svg version="1.1" id="Capa_1" xmlns="http://www.w3.org/2000/svg" xmlns:xlink="http://www.w3.org/1999/xlink" x="0px" y="0px"
	 viewBox="0 0 153 151" style="enable-background:new 0 0 153 151;" xml:space="preserve">
<style type="text/css">
	.st0{fill:#004C98;}
	.st1{fill:#FFFFFF;}
</style>
<circle class="st0" cx="75.3" cy="75.2" r="74.3"/>
<g>
	<path class="st1" d="M92.2,25.1c1.3,0,2.7,0,4,0c0.2,0.1,0.3,0.1,0.5,0.2c13.9,2,21.4,16.6,15.1,29.1c-0.3,0.5-0.3,0.9,0,1.4
		c2.9,5.1,4.7,10.5,5.3,16.3c0.2,2,0.2,4,0.3,6.1c0.2,0.1,0.5,0.1,0.8,0.2c4.3,1.1,7.2,3.7,8.6,7.9c0.2,0.6,0.3,1.3,0.5,1.9
		c0,0.9,0,1.9,0,2.8c-0.1,0.4-0.2,0.8-0.3,1.2c-0.4,1.9-1.4,3.6-2.6,5.1c-2.9,3.8-5.7,7.7-8.7,11.6c-2.1-2.8-4.1-5.5-6.2-8.2
		c-0.2,0.3-0.4,0.4-0.5,0.6c-1.8,2-3.6,4-5.4,5.9c-0.5,0.5-0.6,0.9-0.4,1.6c1,2.9,1.1,5.9,1,9c-0.1,2-1.4,3.3-3.4,3.4
		c-1.2,0-2.4,0-3.6,0c-0.3,0-0.7,0.3-1,0.6c-1.1,1.2-2.1,2.6-3.4,3.8c-1.5,1.3-3.4,1.8-5.3,2.2c-1,0-2,0-3,0c-0.1,0-0.2-0.1-0.3-0.1
		c-3.7-0.7-6.5-2.7-8.4-6c-0.2-0.3-0.7-0.5-1-0.5c-5.7,0-11.4,0-17.2,0c-0.6,0-0.9,0.2-1.2,0.7c-1.5,2.7-3.8,4.5-6.7,5.4
		c-0.6,0.2-1.2,0.3-1.8,0.5c-1,0-2,0-3,0c-0.1,0-0.2-0.1-0.3-0.1c-3.7-0.6-6.5-2.6-8.4-5.9c-0.2-0.3-0.7-0.5-1-0.5
		c-2.3,0-4.6,0-6.9,0c-1.9,0-3.3-1.3-3.4-3.1c-0.1-1.2,0-2.5,0-3.7c0.1-1.3,1-2.6,2.2-2.9c1-0.2,1.1-0.7,1.1-1.5
		c0-10.4,0-20.9,0-31.3c0-2.5,1.3-3.7,3.8-3.7c1,0,1.9,0,2.9,0c0.3-7.4,2.4-14.1,6.2-20.2c-0.3-0.5-0.7-0.9-1-1.4
		c-1.2-1.8-1.9-3.9-2-6.1c-0.1-4.7,2.6-9.1,6.9-11c4.3-1.9,9.2-1,12.6,2.4c0.5,0.5,0.9,0.6,1.5,0.3c5.4-2.4,11-3.6,16.9-3.6
		c0.6,0,1-0.2,1.3-0.7c2.3-3.7,5.5-6.4,9.6-7.9C88.8,25.8,90.5,25.5,92.2,25.1z M94.2,77.3c-0.2-0.2-0.3-0.4-0.4-0.5
		c-5.1-6.5-10.2-13-15.3-19.5c-3.5-4.5-4.7-9.6-3.9-15.2c0.2-1.3,0.5-2.5,0.8-3.8c-5.3,0.1-10.4,1.2-15.2,3.5
		c0.1,0.2,0.1,0.4,0.2,0.6c1.4,4,0.9,7.8-1.6,11.2c-2.9,3.9-5.8,7.8-8.7,11.7c-0.1,0.2-0.2,0.4-0.3,0.7c-2.3-3.1-4.4-5.8-6.5-8.7
		c-3.1,5.5-4.8,11.2-5,17.4c0.5,0,0.9,0,1.3,0c11.1,0,22.3,0,33.4,0c0.3,0,0.5,0,0.8,0c2.8,0,4,1.2,4,3.9c0,1.7,0,3.3,0,5
		c0,0.3,0,0.6,0.1,1c0.4,0,0.8,0,1.2,0c4.6,0,9.3,0,13.9,0c3,0,4.7,1.4,5.4,4.3c1.2,4.7,2.3,9.3,3.5,14c0.1,0.4,0.2,0.7,0.4,1.3
		c1.6-1.8,3-3.5,4.3-5.1c1-1.2,0.9-1.2,0-2.5c-4.4-6.1-2.4-14.3,4.3-17.4c1-0.5,2.1-0.7,3.2-1.1c0.3-7-1.2-13.6-4.6-19.9
		C104.3,64.5,99.3,70.8,94.2,77.3z M61.3,90.6c-2.4-1.2-4.6-2.2-6.7-3.4c-1.2-0.7-2.1-0.7-3.3,0c-2.1,1.2-4.3,2.2-6.6,3.3
		c0-4.3,0-8.4,0-12.5c-4.4,0-8.8,0-13.1,0c0,11,0,22,0,33c1.2,0,2.3,0,3.4,0c0.7,0,1.1-0.2,1.5-0.8c4.5-7.7,15.4-7.7,19.9,0
		c0.4,0.6,0.7,0.9,1.5,0.9c5.2,0,10.4,0,15.6,0c0.3,0,0.6,0,1,0c0-11,0-22,0-33c-4.4,0-8.7,0-13.1,0C61.3,82.1,61.3,86.2,61.3,90.6z
		 M94.2,71.9c0.2-0.2,0.4-0.4,0.5-0.6c4.2-5.3,8.4-10.6,12.5-16c2.3-2.9,3.4-6.3,3.5-10c0.4-12.6-13.1-21-24.2-15.1
		c-9.2,4.9-11.6,16.8-5.2,25.2c2.6,3.4,5.2,6.7,7.8,10C90.8,67.6,92.5,69.8,94.2,71.9z M95.3,91.2c-0.1-0.4-0.1-0.7-0.2-1
		c-0.5-2.1-0.7-2.2-2.8-2.2c-4.5,0-9,0-13.5,0c-0.4,0-0.7,0-1,0c0,6.6,0,13.2,0,19.7c0.1-0.1,0.2-0.1,0.3-0.1
		c5.6-5.3,14.5-3.7,18.1,2.9c0.1,0.2,0.3,0.4,0.5,0.4c1.2,0,2.4,0,3.7,0c-0.8-3.4-1.7-6.6-2.5-9.9c-3.4,0-6.7,0-10.1,0
		c-2.1,0-3.4-1.4-3.5-3.4c0-0.9,0-1.7,0-2.6c0-2.6,1.3-3.9,3.9-3.9C90.5,91.2,92.9,91.2,95.3,91.2z M49.6,60.3
		c2.2-2.9,4.2-5.6,6.3-8.4c0.3-0.4,0.6-0.9,0.9-1.3c2-3.5,1.1-8-2.1-10.5c-3.2-2.5-7.7-2.3-10.7,0.4c-3,2.8-3.6,7.3-1.2,10.6
		C45,54.2,47.3,57.2,49.6,60.3z M115.6,103.3c2.4-3.2,4.8-6.3,6.9-9.4c0.7-1.1,1.2-2.6,1.3-3.9c0.3-3.4-1.2-6-4.2-7.7
		c-3-1.7-6.1-1.4-8.8,0.6c-2.8,2.1-3.8,4.9-3.2,8.3c0.2,0.8,0.4,1.7,0.9,2.3C110.8,96.8,113.1,100,115.6,103.3z M86,124.2
		c4.6,0,8.3-3.8,8.2-8.3c0-4.6-3.8-8.2-8.3-8.2c-4.5,0-8.2,3.8-8.2,8.3C77.7,120.5,81.4,124.2,86,124.2z M46.2,124.2
		c4.5,0.1,8.3-3.5,8.4-8.1c0.1-4.4-3.6-8.3-8-8.4c-4.6-0.1-8.5,3.5-8.5,8.1C38,120.4,41.6,124.1,46.2,124.2z M57.8,85.2
		c0-2.5,0-4.8,0-7.2c-3.3,0-6.5,0-9.7,0c0,2.4,0,4.7,0,7.1c1.5-0.7,2.8-1.4,4.2-2.1c0.4-0.2,1-0.2,1.3,0
		C55,83.7,56.4,84.4,57.8,85.2z M57.9,114.4c0,1.1,0,2.1,0,3.2c5.5,0,11,0,16.5,0c0-1.1,0-2.1,0-3.2
		C68.9,114.4,63.4,114.4,57.9,114.4z M87.7,94.5c0,1.1,0,2.2,0,3.2c3.1,0,6.2,0,9.3,0c-0.3-1.1-0.6-2.2-0.8-3.2
		C93.3,94.5,90.5,94.5,87.7,94.5z M28.3,114.4c0,1.1,0,2.1,0,3.2c2.2,0,4.4,0,6.6,0c0-1.1,0-2.1,0-3.2
		C32.7,114.4,30.5,114.4,28.3,114.4z M97.5,114.4c0,1.1,0,2.1,0,3.2c1.1,0,2.2,0,3.2,0c0-1.1,0-2.1,0-3.2
		C99.6,114.4,98.5,114.4,97.5,114.4z"/>
	<path class="st1" d="M80.9,68.1c0,1.1,0,2.1,0,3.1c-1.1,0-2.1,0-3.2,0c0-1.1,0-2.1,0-3.1C78.8,68.1,79.9,68.1,80.9,68.1z"/>
	<path class="st1" d="M74.3,71.3c-1.1,0-2.1,0-3.2,0c0-1,0-2.1,0-3.2c1.1,0,2.1,0,3.2,0C74.3,69.2,74.3,70.2,74.3,71.3z"/>
	<path class="st1" d="M64.6,68.1c1.1,0,2.1,0,3.2,0c0,1.1,0,2.1,0,3.2c-1.1,0-2.1,0-3.2,0C64.6,70.2,64.6,69.2,64.6,68.1z"/>
	<path class="st1" d="M81,44.9c0-7.3,5.9-13.3,13.2-13.3c7.3,0,13.2,5.9,13.2,13.2c0,7.3-5.9,13.2-13.1,13.2
		C86.9,58.1,81,52.3,81,44.9z M94.2,35c-5.5,0-9.9,4.5-9.9,9.9c0,5.4,4.5,9.9,10,9.9c5.4,0,9.8-4.4,9.8-9.9
		C104.1,39.4,99.7,35,94.2,35z"/>
	<path class="st1" d="M49.7,41.6c2.7,0,5,2.2,4.9,5c0,2.7-2.3,4.9-5,4.9c-2.7,0-4.9-2.2-4.9-5C44.7,43.8,46.9,41.6,49.7,41.6z
		 M51.3,46.6c0-0.9-0.7-1.7-1.6-1.7c-0.9,0-1.6,0.7-1.6,1.6c0,0.9,0.6,1.7,1.5,1.7C50.5,48.2,51.3,47.5,51.3,46.6z"/>
	<path class="st1" d="M120.6,89.5c0,2.7-2.2,5-4.9,5c-2.7,0-4.9-2.2-5-5c0-2.7,2.2-5,4.9-5C118.3,84.6,120.6,86.8,120.6,89.5z
		 M115.7,91.1c0.9,0,1.6-0.8,1.6-1.7c0-0.9-0.7-1.6-1.6-1.6c-0.9,0-1.6,0.7-1.6,1.6C114,90.5,114.7,91.2,115.7,91.1z"/>
	<path class="st1" d="M51.3,115.9c0,2.7-2.2,5-4.9,5c-2.7,0-4.9-2.2-5-4.9c0-2.7,2.2-5,4.9-5C49,111,51.3,113.2,51.3,115.9z M48,116
		c0-0.9-0.8-1.7-1.7-1.6c-0.9,0-1.7,0.8-1.6,1.7c0,0.9,0.7,1.6,1.6,1.6C47.2,117.6,48,116.9,48,116z"/>
	<path class="st1" d="M90.9,115.9c0,2.7-2.2,5-4.9,5c-2.7,0-4.9-2.2-5-4.9c0-2.7,2.2-5,4.9-5C88.6,111,90.9,113.2,90.9,115.9z
		 M87.6,116c0-0.9-0.8-1.7-1.7-1.6c-0.9,0-1.7,0.8-1.6,1.7c0,0.9,0.7,1.6,1.6,1.6C86.8,117.6,87.6,116.9,87.6,116z"/>
</g>
</svg>
