<?xml version="1.0" encoding="utf-8"?>
<!-- Generator: Adobe Illustrator 24.0.2, SVG Export Plug-In . SVG Version: 6.00 Build 0)  -->
<svg version="1.1" id="Capa_1" xmlns="http://www.w3.org/2000/svg" xmlns:xlink="http://www.w3.org/1999/xlink" x="0px" y="0px"
	 viewBox="0 0 153 151" style="enable-background:new 0 0 153 151;" xml:space="preserve">
<style type="text/css">
	.st0{fill:#004C98;}
	.st1{fill:#FFFFFF;}
</style>
<circle class="st0" cx="75.3" cy="75.2" r="74.3"/>
<g>
	<path class="st1" d="M121,65.5c-1.2,2.8-2.2,3.5-5.3,3.5c-3.7,0-7.5,0-11.2,0c-3.1,0-4.8-1.7-4.8-4.8c0-1.2,0-2.3,0-3.5
		c-0.9,0-1.8,0-2.6,0c-3.1,0-6.2,0-9.3,0c-0.2,0-0.5,0-0.7,0c-0.9-0.1-1.5-0.7-1.5-1.5c0-0.8,0.6-1.4,1.5-1.4c2.6,0,5.2,0,7.8,0
		c1.5,0,3.1,0,4.7,0c0-1.6,0.1-3,0-4.5c-0.3-3.9,1.9-5.9,5.6-5.6c1.1,0.1,2.3,0,3.5,0c0.8-3.1-1.2-5.7-4.4-5.7
		c-14.2,0-28.4,0-42.6,0c-0.3,0-0.6,0-0.9,0c-1-0.1-1.5-0.6-1.5-1.5c0-0.8,0.6-1.3,1.5-1.4c1,0,2,0,2.9,0c13.4,0,26.8,0,40.2,0
		c4.1,0,6.7,2.6,7.3,5.2c0.3,1.1,0.3,2.2,0.4,3.5c1.2,0,2.4,0.1,3.6,0c2.7-0.2,4.6,0.8,5.6,3.4C121,55.9,121,60.7,121,65.5z
		 M102.5,58.4c0,2,0,4.1,0,6.1c0,1.1,0.5,1.6,1.6,1.6c4.1,0,8.2,0,12.3,0c1.2,0,1.7-0.5,1.7-1.7c0-4,0-8.1,0-12.1
		c0-1.3-0.5-1.8-1.8-1.8c-4,0-8,0-12,0c-1.3,0-1.8,0.5-1.8,1.8C102.5,54.3,102.5,56.3,102.5,58.4z"/>
	<path class="st1" d="M121,117.8c-0.6,1.6-1.6,2.9-3.4,3.3c-0.4,0.1-0.8,0.1-1.2,0.1c-4,0-8,0-12,0c-2.8,0-4.6-1.7-4.6-4.5
		c0-1.3,0-2.6,0-4c-1,0-1.9,0-2.8,0c-1,0-1.6-0.5-1.6-1.4c0-0.9,0.6-1.4,1.6-1.4c0.9,0,1.8,0,2.7,0c0,0,0.1,0,0.2-0.1
		c0-1.6,0-3.3,0-4.9c0-0.6,0-1.2,0.2-1.8c0.5-1.8,2.1-3.1,4.1-3.1c1.6,0,3.2,0,4.8,0c0.8-3.3-1.2-6-4.5-6c-5.7,0-11.3,0-17,0
		c-0.3,0-0.7,0-1,0c-0.7-0.1-1.1-0.6-1.2-1.3c-0.1-0.7,0.3-1.2,0.9-1.4c0.3-0.1,0.6-0.1,0.9-0.1c5.8,0,11.6,0,17.4,0
		c3.7,0,6.7,2.4,7.3,5.9c0.2,0.9,0.1,1.8,0.2,2.9c1.6,0,3.1,0,4.7,0c1.6,0,3,0.6,3.8,2c0.3,0.4,0.4,1,0.7,1.4
		C121,108.2,121,113,121,117.8z M110.3,118.3c2,0,4,0,6.1,0c1.3,0,1.8-0.5,1.8-1.8c0-4,0-8.1,0-12.1c0-1.2-0.5-1.7-1.7-1.7
		c-4.1,0-8.1,0-12.2,0c-1.2,0-1.7,0.5-1.7,1.7c0,4.1,0,8.1,0,12.2c0,1.2,0.5,1.7,1.8,1.7C106.3,118.3,108.3,118.3,110.3,118.3z"/>
	<path class="st1" d="M47.5,29.8c0.7,0.4,1.5,0.7,2.1,1.2c1,0.8,1.4,2,1.4,3.4c0,1.5,0,3,0,4.7c1,0,1.9,0,2.7,0
		c1.1,0,1.8,0.6,1.7,1.5c0,0.8-0.7,1.4-1.7,1.4c-0.9,0-1.8,0-2.8,0c0,1.5,0,2.9,0,4.3c0,3.3-1.7,4.9-4.9,4.9c-3.9,0-7.8,0-11.7,0
		c-3,0-4.7-1.8-4.7-4.7c0-3.7,0.1-7.4,0-11.1c-0.1-2.7,0.8-4.5,3.4-5.5C37.8,29.8,42.7,29.8,47.5,29.8z M32.5,40.5c0,2,0,3.9,0,5.9
		c0,1.4,0.5,1.9,1.8,1.9c4,0,8,0,12,0c1.3,0,1.8-0.5,1.8-1.8c0-4,0-8,0-12c0-1.3-0.5-1.8-1.8-1.8c-4,0-8,0-12,0
		c-1.3,0-1.8,0.5-1.8,1.8C32.5,36.5,32.5,38.5,32.5,40.5z"/>
	<path class="st1" d="M93.6,69c-0.2,0.3-0.4,0.7-0.7,1c-0.8,0.7-1.6,1.4-2.4,2c-0.4,0.3-0.5,0.7-0.5,1.2c0.1,1.5,0,3,0,4.5
		c0,0.4,0.1,0.8,0.4,1c0.8,0.7,1.6,1.4,2.4,2.1c0.7,0.6,0.8,1.3,0.4,2.1c-0.8,1.4-1.6,2.8-2.5,4.2c-0.5,0.9-1.1,1.1-2.1,0.7
		c-1-0.3-1.9-0.8-2.9-1.1c-0.3-0.1-0.7,0-1,0.2c-1.4,0.8-2.7,1.5-4.1,2.4C80.3,89.6,80,90,80,90.3c-0.2,1-0.4,2-0.5,3
		c-0.2,1.1-0.7,1.5-1.8,1.5c-1.6,0-3.2,0-4.7,0c-1,0-1.5-0.4-1.7-1.4c-0.2-1-0.4-1.9-0.5-2.9c-0.1-0.6-0.3-0.8-0.8-1.1
		c-1.3-0.7-2.6-1.4-3.8-2.2c-0.5-0.3-0.8-0.4-1.3-0.2c-0.9,0.4-1.9,0.7-2.8,1c-1,0.3-1.5,0.2-2-0.7c-0.8-1.4-1.7-2.8-2.5-4.2
		c-0.5-0.9-0.4-1.4,0.4-2.1c0.8-0.7,1.6-1.3,2.4-2c0.2-0.2,0.4-0.7,0.4-1c0-1.5,0-3.1,0-4.6c0-0.4-0.2-0.8-0.4-1
		c-0.7-0.7-1.6-1.3-2.4-2c-0.8-0.7-0.9-1.2-0.4-2.2c0.8-1.4,1.6-2.8,2.4-4.2c0.5-0.9,1.1-1.1,2-0.7c1,0.3,1.9,0.8,2.9,1
		c0.3,0.1,0.8,0,1.1-0.1c1.4-0.7,2.7-1.5,4.1-2.4c0.3-0.2,0.6-0.5,0.6-0.8c0.2-1,0.4-2,0.6-3.1c0.2-1,0.7-1.5,1.7-1.5
		c1.6,0,3.2,0,4.8,0c1,0,1.5,0.4,1.7,1.5c0.2,1.1,0.1,2.4,0.7,3.3c0.6,0.8,1.8,1.1,2.8,1.7c0.3,0.2,0.7,0.4,1,0.6c1,1.1,2,1,3.2,0.4
		c0.6-0.3,1.3-0.6,2-0.7c0.5-0.1,1.3,0.1,1.5,0.5c1,1.6,1.9,3.2,2.8,4.8C93.5,68.5,93.5,68.7,93.6,69z M76.8,91.9
		c0.2-1.1,0.4-2.1,0.6-3.2c0.1-0.9,0.6-1.4,1.5-1.7c1.8-0.5,3.4-1.5,4.8-2.8c0.6-0.6,1.3-0.7,2.1-0.4c1,0.4,2,0.7,3.1,1.1
		c0.4-0.7,0.7-1.3,1.1-2c0.3-0.4,0.2-0.7-0.2-1c-0.7-0.6-1.4-1.2-2.1-1.7c-0.7-0.5-0.8-1.2-0.7-2c0.2-1.6,0.3-3.3,0.1-4.9
		c-0.2-1.5,0.1-2.4,1.2-3.2c0.7-0.5,1.6-1,1.7-1.7c0.1-0.6-0.7-1.4-1.1-2.2c0-0.1-0.1-0.1-0.2-0.2c-1,0.4-2,0.7-3,1.1
		c-0.8,0.4-1.5,0.2-2.2-0.4c-1.3-1.3-2.9-2.2-4.7-2.7c-0.9-0.3-1.4-0.8-1.5-1.7c-0.1-1.1-0.4-2.1-0.5-3.2c-1,0-1.9,0-2.9,0
		c-0.2,1.1-0.4,2.1-0.6,3.2c-0.1,0.9-0.6,1.4-1.5,1.7c-1.8,0.5-3.4,1.5-4.8,2.8c-0.6,0.6-1.3,0.7-2.1,0.4c-1-0.4-2-0.8-3.1-1.1
		c-0.4,0.7-0.8,1.4-1.2,2.1c-0.1,0.2,0,0.6,0.2,0.8c0.7,0.6,1.4,1.3,2.2,1.8c0.6,0.5,0.8,1.1,0.6,1.9c-0.5,1.9-0.5,3.8,0,5.7
		c0.2,0.9,0,1.5-0.7,2c-0.9,0.7-1.7,1.4-2.5,2.1c0.5,0.9,1,1.7,1.4,2.5c1-0.4,2.1-0.7,3-1.1c0.9-0.4,1.6-0.2,2.3,0.5
		c1.3,1.3,2.9,2.2,4.7,2.7c1,0.3,1.4,0.8,1.5,1.8c0.1,1,0.4,2,0.5,3.1C74.8,91.9,75.7,91.9,76.8,91.9z"/>
	<path class="st1" d="M50.9,91.1c0.4,0,0.7,0,1.1,0c3.7,0,7.3,0,11,0c1.1,0,1.7,0.4,1.8,1.2c0.1,0.9-0.6,1.6-1.7,1.6
		c-3.7,0-7.4,0-11.1,0c-0.3,0-0.6,0-1.1,0c0,1.5,0,3,0,4.4c0,0.6,0,1.3-0.2,1.9c-0.5,1.9-2.2,3.1-4.2,3.1c-4.2,0-8.4,0-12.6,0
		c-2.6,0-4.4-1.9-4.4-4.4c0-4.1,0-8.3,0-12.4c0-2.6,1.8-4.4,4.4-4.5c1.6,0,3.1,0,4.8,0c0-0.4,0-0.8,0-1.1c0-4.3,0-8.6,0-12.9
		c0-5.2,3.4-9.1,8.5-10c0.5-0.1,1-0.1,1.5-0.1c5,0,10.1,0,15.1,0c0.2,0,0.4,0,0.5,0c0.7,0.1,1.1,0.5,1.2,1.2
		c0.1,0.7-0.2,1.2-0.8,1.5c-0.3,0.1-0.8,0.2-1.1,0.2c-4.8,0-9.6,0-14.5,0c-4.5,0-7.5,3-7.5,7.5c0,4.3,0,8.6,0,12.9
		c0,0.3,0,0.5,0,0.9c0.7,0,1.3,0,2,0c1,0,1.9,0,2.9,0c2.6,0.1,4.3,1.8,4.4,4.3C51,87.9,50.9,89.4,50.9,91.1z M32.5,92.6
		c0,2,0,4,0,6.1c0,1.3,0.5,1.8,1.8,1.8c4,0,8,0,12,0c1.3,0,1.8-0.5,1.8-1.8c0-4,0-8,0-12c0-1.3-0.5-1.8-1.8-1.8c-4,0-8,0-12,0
		c-1.3,0-1.8,0.5-1.8,1.9C32.5,88.7,32.5,90.6,32.5,92.6z"/>
	<path class="st1" d="M74,109.8c5.2,0,10.2,0,15.2,0c0.3,0,0.7,0,1,0c0.9,0,1.5,0.6,1.5,1.4c0,0.8-0.6,1.4-1.6,1.4
		c-4,0-8.1,0-12.1,0c-1.2,0-2.5,0-3.8,0.2c1.1,0.8,2.3,1.7,3.4,2.5c0.3,0.2,0.5,0.4,0.8,0.6c0.5,0.6,0.5,1.2,0.1,1.8
		c-0.4,0.6-1.1,0.8-1.7,0.4c-0.3-0.1-0.5-0.3-0.7-0.5c-2.3-1.7-4.7-3.4-7-5.1c-1-0.8-1.1-1.8-0.1-2.6c2.4-1.8,4.8-3.5,7.2-5.3
		c0.1-0.1,0.3-0.2,0.4-0.3c0.7-0.4,1.5-0.3,1.9,0.3c0.4,0.6,0.4,1.4-0.3,1.9c-1,0.8-2.1,1.6-3.2,2.4C74.7,109.2,74.5,109.4,74,109.8
		z"/>
	<path class="st1" d="M109.7,59.5c0.9-1.5,1.8-2.9,2.6-4.4c0.2-0.3,0.3-0.5,0.5-0.8c0.5-0.6,1.2-0.8,1.9-0.4
		c0.6,0.4,0.9,1.2,0.5,1.9c-1.3,2.2-2.6,4.3-3.9,6.4c-0.4,0.7-1.2,0.9-2,0.4c-1.1-0.7-2.2-1.4-3.3-2.1c-0.7-0.5-0.9-1.3-0.4-2
		c0.4-0.6,1.2-0.8,2-0.4c0.4,0.2,0.7,0.4,1.1,0.7C108.9,59,109.3,59.2,109.7,59.5z"/>
	<path class="st1" d="M109.6,111.7c0.9-1.5,1.8-2.9,2.6-4.3c0.2-0.3,0.3-0.6,0.5-0.8c0.5-0.6,1.1-0.7,1.8-0.4c0.7,0.3,1,1.2,0.6,1.8
		c-1.3,2.2-2.6,4.4-4,6.5c-0.4,0.7-1.1,0.8-1.8,0.4c-1.2-0.7-2.3-1.4-3.4-2.2c-0.7-0.5-0.8-1.3-0.4-1.9c0.4-0.6,1.2-0.8,1.9-0.5
		c0.4,0.2,0.7,0.4,1.1,0.7C108.9,111.2,109.2,111.4,109.6,111.7z"/>
	<path class="st1" d="M39.6,41.6c1-1.6,1.9-3.2,2.9-4.7c0.6-1,1.4-1.3,2.1-0.8c0.8,0.5,0.9,1.3,0.3,2.3c-1.2,1.9-2.3,3.9-3.5,5.8
		c-0.6,1-1.3,1.1-2.3,0.5c-1-0.6-1.9-1.2-2.9-1.8c-0.9-0.6-1.2-1.4-0.7-2.1c0.5-0.7,1.3-0.9,2.2-0.3c0.3,0.2,0.6,0.4,0.9,0.6
		C38.9,41.2,39.2,41.4,39.6,41.6z"/>
	<path class="st1" d="M66.8,75.5c0-4.7,3.8-8.5,8.5-8.5c4.7,0,8.6,3.9,8.5,8.6c0,4.7-3.9,8.5-8.6,8.5C70.6,84,66.8,80.2,66.8,75.5z
		 M69.6,75.5c0,3.1,2.6,5.7,5.7,5.7c3.1,0,5.6-2.5,5.7-5.6c0-3.1-2.5-5.7-5.6-5.7C72.3,69.8,69.7,72.4,69.6,75.5z"/>
	<path class="st1" d="M39.6,93.8c0.9-1.5,1.8-2.9,2.7-4.4c0.2-0.3,0.3-0.5,0.5-0.8c0.5-0.6,1.3-0.8,1.9-0.4c0.6,0.4,0.9,1.1,0.5,1.8
		c-1.3,2.2-2.6,4.4-4,6.5c-0.4,0.7-1.2,0.8-1.9,0.3c-1.1-0.7-2.2-1.4-3.3-2.1c-0.7-0.5-0.9-1.3-0.4-1.9c0.4-0.7,1.2-0.8,2-0.4
		C38.2,92.9,38.8,93.3,39.6,93.8z"/>
</g>
</svg>
