<?xml version="1.0" encoding="utf-8"?>
<!-- Generator: Adobe Illustrator 24.0.2, SVG Export Plug-In . SVG Version: 6.00 Build 0)  -->
<svg version="1.1" id="Capa_1" xmlns="http://www.w3.org/2000/svg" xmlns:xlink="http://www.w3.org/1999/xlink" x="0px" y="0px"
	 viewBox="0 0 331.1 87.8" style="enable-background:new 0 0 331.1 87.8;" xml:space="preserve">
<style type="text/css">
	.st0{fill:#DAD9DA;}
	.st1{fill:#DBDBDB;}
	.st2{fill:#FFB200;}
	.st3{fill:#A5A5A5;}
</style>
<path class="st0" d="M-4784.5,460.8c0-0.5,0-1,0-1.5c2.3-2.4,5.4-2.3,8.4-2.3c15.9-0.1,31.8-0.1,47.7,0c3,0,6-0.1,8.4,2.3
	c0,0.5,0,1,0,1.5C-4741.5,460.8-4763,460.8-4784.5,460.8z"/>
<g>
	<path class="st1" d="M11.5,31.3c-0.1-0.3,0-0.6-0.1-0.8c0-0.2,0.1-0.3-0.1-0.5c0-0.3,0-0.7,0-1h0.1C11.6,29.8,11.9,30.5,11.5,31.3z
		"/>
	<path class="st2" d="M236.3,52.3c0.1-0.2,0.3-0.3,0.4-0.5c0.5-0.7,1.2-1.3,1.9-1.9c0.7-0.6,1.5-1.1,2.3-1.5c1-0.4,2.1-0.8,3.3-0.9
		c1.1-0.1,2.2,0,3.2,0.1s2,0.4,2.9,0.9s1.7,1.2,2.5,1.9c0.1,0.1,0.2,0.3,0.3,0.4c1,1.3,1.6,2.8,2,4.4c0.2,1,0.3,1.9,0.4,2.9
		c0.1,3.3,0,6.6,0.1,9.9c0,3.3,0,6.7,0,10c0,0.1,0,0.2,0,0.4c0,0.2-0.1,0.3-0.2,0.3c-0.1,0-0.2,0-0.3,0c-2.6,0-5.1,0-7.7,0
		c-0.1,0-0.2,0-0.3,0c-0.2,0-0.2-0.1-0.2-0.3c0-0.1,0-0.2,0-0.4c0-5.4,0-10.7,0-16.1c0-1.3-0.2-2.5-0.6-3.7c-0.2-0.5-0.5-1-0.9-1.4
		s-0.9-0.8-1.4-1c-0.7-0.3-1.5-0.5-2.2-0.5s-1.4,0-2.1,0.3c-0.4,0.2-0.8,0.3-1.2,0.6c-0.6,0.4-1,1-1.4,1.6c-0.1,0.1-0.1,0.2-0.2,0.4
		c-0.4,1.3-0.6,2.7-0.6,4.1c0,5.2,0,10.4,0,15.6c0,0.1,0,0.2,0,0.3c0,0.5,0,0.5-0.5,0.5c-2.6,0-5.2,0-7.7,0c-0.6,0-0.5,0-0.5-0.5
		c0-5.1,0-10.2,0-15.2c0-4.8,0-9.5,0-14.3c0-0.1,0-0.2,0-0.3c0-0.4,0-0.4,0.4-0.4c2.6,0,5.3,0,7.9,0c0.4,0,0.4,0,0.4,0.4
		c0,1.1,0,2.2,0,3.4C236.2,52,236.2,52.1,236.3,52.3L236.3,52.3z"/>
	<path class="st3" d="M255.7,17.9c0.1,0,0.2-0.1,0.2-0.1c0.6-0.9,1.5-1.6,2.5-2.2c0.7-0.4,1.4-0.6,2.2-0.7c0.8-0.1,1.7,0,2.5,0.1
		c0.6,0.1,1.2,0.4,1.8,0.7c0.7,0.4,1.3,1,1.8,1.6c0.4,0.5,0.7,1,0.8,1.5c0.2,0.8,0.4,1.5,0.5,2.3c0.1,0.7,0.1,1.4,0.1,2.2
		c0,3.2,0,6.5,0,9.7c0,0.1,0,0.2,0,0.3c0,0.2-0.1,0.3-0.3,0.3c-1.2,0-2.5,0-3.7,0c-0.2,0-0.3-0.1-0.3-0.3c0-0.1,0-0.2,0-0.3
		c0-3.2,0-6.3,0-9.5c0-1-0.2-2.1-0.6-3c-0.1-0.1-0.1-0.2-0.2-0.3c-0.5-0.5-1-0.9-1.6-1.2c-0.3-0.2-0.6-0.2-0.9-0.2
		c-0.9-0.2-1.8,0.1-2.6,0.5c-1.1,0.5-1.7,1.5-2,2.7c-0.1,0.5-0.2,1.1-0.2,1.6c0,3.2,0,6.4,0,9.6c0,0.6,0,0.6-0.5,0.6
		c-1.1,0-2.2,0-3.3,0c-0.4,0-0.4,0-0.4-0.4c0-3.5,0-6.9,0-10.4c0-2.4,0-4.7,0-7.1c0-0.5,0-0.5,0.5-0.5c1.1,0,2.2,0,3.4,0
		c0.4,0,0.4,0,0.4,0.4C255.7,16.4,255.7,17.1,255.7,17.9z"/>
	<path class="st3" d="M219.7,31c-0.4,0.4-0.8,0.8-1.1,1.2c-0.5,0.6-1.1,0.9-1.7,1.2c-0.9,0.4-1.8,0.6-2.8,0.6
		c-0.8,0-1.7-0.1-2.5-0.4c-0.8-0.3-1.6-0.7-2.2-1.3c-0.7-0.7-1.2-1.6-1.5-2.5c-0.2-0.7-0.3-1.3-0.4-2c-0.1-4,0-8-0.1-12.1
		c0-0.4,0-0.4,0.4-0.4c1.1,0,2.3,0,3.4,0c0.4,0,0.4,0,0.4,0.4c0,3.2,0,6.4,0,9.7c0,1,0.1,2,0.6,2.9c0.3,0.6,0.6,1.1,1.2,1.4
		c0.9,0.5,1.9,0.5,2.8,0.4c0.6-0.1,1.2-0.3,1.7-0.6c0.4-0.3,0.8-0.7,1-1.2c0.5-1,0.7-2,0.7-3.1c0-3.1,0-6.2,0-9.3c0-0.1,0-0.2,0-0.2
		c0-0.4,0-0.4,0.4-0.4c1.2,0,2.3,0,3.5,0c0.4,0,0.4,0,0.4,0.4c0,1.6,0,3.2,0,4.8c0,4.2,0,8.4,0,12.6c0,0.1,0,0.2,0,0.3
		c0,0.2-0.1,0.3-0.3,0.3c-0.6,0-1.2,0-1.8,0s-1.1,0-1.7,0c-0.4,0-0.4,0-0.4-0.4C219.7,32.5,219.7,31.8,219.7,31z"/>
	<path class="st3" d="M234,34c-1-0.1-2.1-0.1-3.1-0.5c-1-0.3-1.9-0.6-2.8-1.1c-0.7-0.3-1.3-0.8-1.9-1.2c-0.2-0.1-0.2-0.2-0.1-0.3
		c0.2-0.2,0.3-0.5,0.5-0.7c0.4-0.6,0.8-1.1,1.1-1.7c0.1-0.2,0.2-0.2,0.4-0.1c0.5,0.3,1,0.6,1.5,0.9c1,0.5,2.1,0.9,3.3,1.1
		c0.1,0,0.2,0,0.3,0c0.6,0.1,1.2,0.1,1.7,0c0.7-0.1,1.2-0.5,1.6-1c0.2-0.2,0.2-0.6,0.2-0.9c0-0.4-0.1-0.8-0.5-1.1
		c-0.7-0.6-1.6-0.9-2.5-1.1c-1.5-0.4-2.9-0.9-4.2-1.6c-0.7-0.4-1.4-0.9-1.9-1.6c-0.4-0.6-0.6-1.3-0.7-2c-0.1-0.8-0.1-1.5,0.1-2.2
		c0.2-0.7,0.5-1.4,1-1.9c0.9-1.1,2.2-1.7,3.5-2c0.9-0.2,1.9-0.3,2.8-0.1c0.2,0.1,0.5,0,0.7,0.1c1.5,0.3,2.9,0.8,4.3,1.6
		c0.1,0.1,0.2,0.1,0.3,0.2c0.5,0.2,0.5,0.2,0.2,0.7c-0.4,0.8-0.9,1.5-1.3,2.3c-0.2,0.3-0.2,0.3-0.5,0.1c-0.8-0.4-1.6-0.9-2.5-1.2
		c-0.4-0.2-0.9-0.3-1.3-0.4c-0.7-0.1-1.4-0.1-2.1,0c-0.8,0.1-1.6,1-1.5,1.7c0,0.6,0.4,1.1,1,1.4c1.1,0.6,2.2,1,3.4,1.3
		c1,0.3,2,0.6,2.9,1.1s1.5,1.2,2.1,2c0.4,0.6,0.5,1.4,0.6,2.1c0,0.3-0.1,0.7-0.1,1c-0.1,1.1-0.7,2.1-1.4,3c-0.4,0.5-0.8,0.8-1.4,1.1
		c-0.6,0.2-1.1,0.4-1.7,0.6C235.4,34,234.7,33.9,234,34z"/>
	<path class="st3" d="M306.6,28.4c0.2,0.1,0.5,0.3,0.7,0.4c0.9,0.6,1.9,1,2.9,1.4c0.6,0.2,1.3,0.2,1.9,0.4c0.5,0.1,1,0.1,1.4,0
		c0.7-0.1,1.3-0.4,1.7-0.9c0.3-0.3,0.3-0.8,0.2-1.2c-0.2-0.6-0.6-1-1.1-1.2c-0.6-0.3-1.2-0.5-1.8-0.7c-0.5-0.2-0.9-0.3-1.4-0.4
		c-1.4-0.4-2.7-1-3.9-1.9c-0.4-0.3-0.8-0.8-1-1.2c-0.4-0.7-0.5-1.5-0.6-2.3c0-0.4,0.1-0.8,0.2-1.2c0.3-1.4,1.1-2.6,2.3-3.4
		c0.7-0.4,1.4-0.7,2.1-0.9c0.3-0.1,0.7-0.1,1-0.1c1.1-0.2,2.1,0,3.1,0.2c0.8,0.1,1.6,0.5,2.4,0.8c0.6,0.3,1.2,0.6,1.9,0.9
		c0.3,0.1,0.3,0.2,0.1,0.5c-0.5,0.8-0.9,1.6-1.4,2.4c-0.2,0.3-0.2,0.3-0.5,0.1c-0.8-0.4-1.5-0.8-2.3-1.1c-0.5-0.2-0.9-0.4-1.4-0.4
		c-0.7-0.1-1.4-0.2-2.1,0c-1.2,0.3-1.9,1.3-1.4,2.4c0.1,0.3,0.4,0.5,0.7,0.6c0.8,0.4,1.6,0.8,2.4,1.1c1,0.3,1.9,0.6,2.9,1
		c1.2,0.5,2.2,1.2,2.9,2.2c0.4,0.5,0.5,1.1,0.6,1.7c0.2,1.2-0.1,2.3-0.6,3.4c-0.2,0.5-0.6,0.9-0.9,1.3c-0.7,0.7-1.5,1.1-2.4,1.4
		c-0.7,0.2-1.4,0.4-2.2,0.4c-1.8,0.1-3.5-0.3-5.1-0.9c-1.1-0.4-2.1-1-3-1.7c-0.3-0.2-0.3-0.2-0.1-0.6
		C305.5,30,306.1,29.2,306.6,28.4z"/>
	<path class="st3" d="M303.2,17.1c0,0.1,0,0.2-0.1,0.3c-0.5,0.8-0.9,1.7-1.4,2.5c-0.2,0.3-0.2,0.3-0.5,0.2c-0.9-0.4-1.7-0.9-2.6-1.2
		c-0.5-0.2-0.9-0.3-1.4-0.3c-0.5-0.1-1-0.1-1.5,0c-0.7,0.1-1.2,0.3-1.6,0.9c-0.3,0.5-0.4,1-0.2,1.6c0.2,0.4,0.5,0.5,0.9,0.7
		c1.2,0.6,2.5,1.1,3.8,1.5s2.5,1,3.5,1.8c0.6,0.5,1,1.2,1.3,1.9c0.2,0.4,0.1,0.9,0.1,1.4c0,0.4,0,0.8,0,1.2
		c-0.1,0.8-0.5,1.4-0.8,2.1c-0.4,0.8-1.2,1.3-2,1.7c-1,0.5-2.2,0.8-3.4,0.9c-0.9,0-1.8,0-2.6-0.2c-1-0.2-2-0.5-2.9-0.9
		c-1-0.4-1.8-1-2.6-1.6c-0.2-0.1-0.2-0.2-0.1-0.4c0.5-0.8,1-1.5,1.5-2.3c0.2-0.3,0.2-0.3,0.5-0.1c0.1,0.1,0.2,0.1,0.4,0.2
		c1,0.7,2.2,1.2,3.4,1.6c0.5,0.2,1.1,0.2,1.7,0.3c0.5,0.1,1,0,1.4,0c0.6-0.1,1.2-0.4,1.5-0.9s0.4-1.6-0.2-2
		c-0.5-0.4-0.9-0.6-1.5-0.8c-0.8-0.3-1.7-0.5-2.5-0.8c-1.4-0.4-2.6-1-3.8-1.9c-0.4-0.3-0.6-0.6-0.8-1c-0.3-0.5-0.5-1-0.6-1.6
		c-0.1-0.7-0.1-1.4,0-2.1c0.1-0.8,0.4-1.5,0.9-2.1c0.5-0.7,1.2-1.2,2-1.6c0.6-0.3,1.3-0.5,2-0.6c0.5-0.1,0.9-0.1,1.4-0.2
		c0.1,0,0.2,0,0.2,0c0.6,0.1,1.1,0.2,1.7,0.2c0.7,0.1,1.4,0.4,2.1,0.6C301.4,16.1,302.3,16.6,303.2,17.1z"/>
	<path class="st3" d="M247.7,24.5c0,2.9,0,5.7,0,8.6c0,0.1,0,0.2,0,0.3c0,0.2-0.1,0.3-0.3,0.3c-1.2,0-2.5,0-3.7,0
		c-0.2,0-0.3-0.1-0.3-0.2c0-0.1,0-0.2,0-0.3c0-5.8,0-11.5,0-17.3c0-0.6-0.1-0.6,0.6-0.6c1.1,0,2.2,0,3.3,0c0.4,0,0.4,0,0.4,0.4
		C247.7,18.6,247.7,21.6,247.7,24.5z"/>
	<path class="st3" d="M245.5,8.5c0.7,0,1.3,0,2,0c0.3,0,0.3,0,0.3,0.3c0,1.1,0,2.2,0,3.3c0,0.4,0,0.4-0.4,0.4c-1.3,0-2.6,0-3.9,0
		c-0.3,0-0.3,0-0.3-0.3c0-1.1,0-2.2,0-3.3c0-0.4,0-0.4,0.4-0.4C244.2,8.5,244.9,8.5,245.5,8.5z"/>
	<path class="st3" d="M11.5,31.3c0-0.5,0.1-1-0.1-1.5c-0.1-0.2,0-0.5,0-0.8c0.1-0.4,0.1-0.8,0.1-1.2c0.1-1.5,0.4-2.8,0.8-4.2
		c0.2-0.6,0.5-1.2,0.7-1.7c0.5-1.1,1.1-2.2,1.7-3.2c0.3-0.5,0.8-0.9,1.2-1.4c0.9-1.1,2-2.1,3.1-3c1-0.8,2-1.5,3.1-2
		c0.5-0.3,1-0.5,1.5-0.8c0.9-0.5,1.9-0.8,2.8-1.2c1.5-0.6,3.1-1,4.7-1.4c0.6-0.2,1.2-0.2,1.8-0.2c0.7-0.1,1.3-0.2,2-0.3
		c0.2,0,0.5,0,0.7,0c0.9,0,1.7-0.1,2.6-0.1c0.4,0,0.8-0.1,1.1-0.1c0.9,0.1,1.8,0,2.7,0.1c0.3,0,0.6,0,0.8,0c0.9,0,1.7,0.2,2.6,0.3
		c1.3,0.2,2.5,0.4,3.8,0.6c2,0.3,3.9,0.8,5.9,1.3c1.9,0.5,3.7,1.2,5.5,1.9c0.8,0.3,1.6,0.7,2.4,1.1c0.4,0.2,0.7,0.3,1.1,0.5
		c0.3,0.1,0.3,0.2,0.1,0.4c-0.7,1.2-1.4,2.4-2.1,3.7c-1.2,2.2-2.5,4.3-3.7,6.5c-0.5,0.9-1,1.8-1.5,2.7c-0.2,0.3-0.2,0.3-0.6,0.2
		c-1.5-0.6-3-1.3-4.5-1.9c-2-0.8-4.2-1.5-6.3-1.9c-0.6-0.1-1.2-0.1-1.8-0.2c-1-0.1-2.1-0.2-3.1-0.3c-1.3,0-2.7-0.1-4,0.1
		c-0.9,0.1-1.8,0.3-2.6,0.6c-1.1,0.4-2,0.9-2.8,1.8c-0.3,0.4-0.5,0.8-0.7,1.3c-0.3,0.6-0.1,1.3,0,1.9c0,0.1,0.1,0.2,0.2,0.4
		c0.6,1,1.6,1.6,2.5,2.3c1.2,0.9,2.5,1.4,3.8,2c2.4,1.1,4.9,1.9,7.3,2.7c1.8,0.6,3.6,1.2,5.3,1.9c0.9,0.3,1.8,0.8,2.7,1.2
		c1.4,0.6,2.8,1.4,4.1,2.2c1.2,0.7,2.3,1.5,3.3,2.5c0.8,0.8,1.5,1.6,2.2,2.4c0.7,0.8,1.2,1.7,1.6,2.6c0.2,0.4,0.3,0.8,0.5,1.2
		c0.4,0.7,0.5,1.4,0.6,2.2c0.1,0.3,0.1,0.7,0.2,1c0.2-0.1,0.2-0.2,0.2-0.4c1.4-3.7,2.8-7.5,4.2-11.2c1.9-5,3.8-10.1,5.7-15.1
		c1.4-3.8,2.9-7.6,4.3-11.4c0.7-1.9,1.4-3.8,2.1-5.6c0.2-0.4,0.2-0.4,0.6-0.4c6.1,0,12.3,0,18.4,0c0.5,0,0.5,0,0.6,0.4
		c1.6,4.5,3.3,8.9,4.9,13.4c1.6,4.3,3.1,8.5,4.7,12.8c1.5,4.2,3.1,8.3,4.6,12.5c1.6,4.3,3.2,8.6,4.7,12.8c0.1,0.3,0.1,0.6,0.4,0.9
		c0-0.2,0-0.4,0-0.6c0-17.2,0-34.4,0-51.5c0-0.8-0.1-0.7,0.7-0.7c7,0,14,0,21.1,0c0.7,0,1.4,0,2.1,0c1.3,0,2.5,0.1,3.8,0.2
		c1.3,0.1,2.6,0.2,3.8,0.4c1.1,0.2,2.3,0.4,3.4,0.6c1.3,0.3,2.7,0.6,4,1c1.6,0.5,3.1,1.2,4.6,2c1.8,1,3.3,2.3,4.7,3.6
		c1.1,1,1.9,2.2,2.6,3.5c0.4,0.7,0.7,1.5,1,2.2c0.6,1.2,1,2.5,1.2,3.8c0.3,1.4,0.5,2.8,0.6,4.2c0,0.8,0,1.6,0.1,2.3
		c0.1,0.5-0.1,1-0.1,1.5c0,0.6-0.1,1.2-0.1,1.8c0,0.8-0.3,1.6-0.4,2.4c-0.3,1.5-0.8,3-1.3,4.4c-0.2,0.7-0.7,1.4-1,2.1
		c-0.3,0.6-0.6,1.1-1,1.6c-0.7,0.9-1.5,1.8-2.2,2.6c-1.1,1.3-2.5,2.2-3.8,3.1c-1.3,0.9-2.7,1.6-4.2,2.1c-1.7,0.7-3.5,1.1-5.2,1.6
		c-0.5,0.1-1.1,0.2-1.6,0.2c-1.1,0.1-2.3,0.3-3.4,0.4c-0.4,0-0.7,0-1.1,0c-2.3,0.1-4.5,0.1-6.8,0.1c-0.8,0-1.6,0-2.4,0
		c-0.4,0-0.4,0-0.4,0.4c0,0.1,0,0.2,0,0.3c0,6.7,0,13.4,0,20.2c0,0.7,0.1,0.6-0.6,0.6c-10.7,0-21.3,0-32,0h-0.1
		c-0.4,0-0.4,0-0.5-0.4c-0.8-2.7-1.7-5.3-2.5-8c-0.2-0.5-0.3-1-0.5-1.5c-0.1-0.4-0.1-0.4-0.5-0.3c-0.9,0.2-1.9,0.5-2.8,0.7
		c-1,0.3-2.1,0.4-3.1,0.6c-1.1,0.2-2.3,0.2-3.4,0.3c-1,0-1.9,0.1-2.9,0.1c-1.8-0.1-3.5-0.2-5.3-0.5c-1.7-0.3-3.4-0.8-5.1-1.2
		c-0.1,0-0.1,0-0.2,0c-0.2-0.1-0.3,0-0.4,0.2c-0.3,1-0.6,1.9-0.9,2.9c-0.7,2.2-1.5,4.5-2.2,6.7c-0.2,0.6-0.2,0.5-0.6,0.5
		c-6.5,0-12.9,0-19.4,0c-0.1,0-0.3,0-0.5,0c0.7-2,1.4-3.9,2.2-5.8c0,0,0,0-0.1,0c-0.4,0.3-0.7,0.5-1.1,0.8c-1.5,1.1-3,2.1-4.7,3
		c-0.5,0.3-1.1,0.5-1.7,0.7c-1.7,0.7-3.4,1.2-5.1,1.6c-1.6,0.4-3.1,0.7-4.8,0.7c-0.4,0-0.8,0-1.1,0.1c-1.3,0-2.6,0-4,0
		c-0.8,0-1.6-0.1-2.3-0.1c-1.4,0-2.7-0.2-4.1-0.5c-0.8-0.1-1.5-0.2-2.3-0.4c-1-0.2-1.9-0.5-2.8-0.7c-2.6-0.6-5-1.6-7.5-2.6
		c-0.1-0.1-0.3-0.1-0.4-0.2c-1.3-0.6-2.6-1.3-3.9-1.9c-0.7-0.3-0.6-0.2-0.3-0.9c1.5-3,3-6,4.5-9c0.6-1.3,1.3-2.5,1.9-3.8
		c0-0.1,0.1-0.2,0.2-0.3c0.7,0.4,1.3,0.8,2,1.1c1.7,1,3.5,1.8,5.4,2.5c1.6,0.6,3.4,1,5.1,1.3c1,0.2,1.9,0.2,2.9,0.3
		c1.1,0.1,2.2,0,3.3,0c1.3,0,2.6-0.1,3.9-0.5c1.1-0.3,2.2-0.9,3.1-1.7c0.4-0.3,0.6-0.8,0.8-1.2c0.3-0.6,0.5-1.3,0.5-2s0-1.5-0.5-2.1
		c-0.5-0.8-1.2-1.5-2-1.9c-0.5-0.3-1.1-0.6-1.6-0.9c-0.6-0.4-1.4-0.5-2.1-0.8c-1.8-0.7-3.6-1.3-5.5-1.8c-2-0.6-4-1.3-5.9-2.1
		c-1.6-0.6-3.1-1.3-4.6-2.1c-1.7-0.9-3.4-2-4.9-3.2c-1.1-0.8-2.1-1.8-3-2.9c-0.6-0.7-1.1-1.5-1.6-2.3c-0.2-0.3-0.3-0.6-0.5-0.8
		c-0.8-1.5-1.2-3.1-1.5-4.7C11.7,32.7,11.6,32,11.5,31.3z M139.7,23.9c-0.2,0-0.4,0.1-0.3,0.3c0,0.1,0,0.2,0,0.3
		c0,5.6,0,11.2,0,16.8c0,0.1,0,0.2,0,0.3c0,0.2,0.1,0.3,0.3,0.3c0.1,0,0.1,0,0.2,0c1.7,0,3.4,0,5.1-0.1c1.6-0.1,3.3-0.3,4.9-0.7
		c0.8-0.2,1.5-0.5,2.2-0.9c0.8-0.4,1.5-1,2.1-1.6s1-1.3,1.3-2.1c0.4-1,0.6-2.2,0.7-3.3c0-0.6-0.1-1.2-0.1-1.8c0-0.4-0.1-0.8-0.2-1.1
		c-0.3-1-0.7-1.9-1.2-2.8c-0.1-0.1-0.1-0.2-0.2-0.2c-0.7-0.7-1.5-1.3-2.3-1.8c-0.8-0.4-1.5-0.9-2.4-1.1c-1.3-0.3-2.6-0.6-4-0.6
		c-0.9,0-1.7,0-2.6,0C141.9,23.9,140.8,23.9,139.7,23.9z M91.1,31.6c-0.4,1.2-0.7,2.3-1.1,3.5c-0.5,1.7-1.1,3.4-1.7,5.2
		c-0.9,2.8-1.8,5.6-2.7,8.5c-0.5,1.5-0.9,2.9-1.4,4.4c-0.1,0.3-0.1,0.3,0.2,0.4c0.9,0.3,1.8,0.5,2.7,0.7c0.6,0.1,1.2,0.2,1.8,0.3
		c0.6,0.1,1.2,0.1,1.8,0.1c1.1,0,2.2,0,3.3-0.1c1.3-0.1,2.6-0.4,3.9-0.9c0.4-0.1,0.4-0.1,0.3-0.5c-0.6-1.9-1.2-3.7-1.7-5.6
		c-0.9-2.9-1.8-5.8-2.7-8.7c-0.7-2.4-1.5-4.8-2.2-7.2c0-0.1,0-0.3-0.2-0.4C91.2,31.2,91.2,31.4,91.1,31.6z"/>
	<path class="st2" d="M224.1,58.7c-0.1,1.4-0.3,2.9-0.5,4.3c-0.3,1.5-0.8,2.9-1.3,4.2c-0.3,0.8-0.8,1.6-1.2,2.3
		c-0.6,1.1-1.4,2.1-2.3,3c-1,1-2,1.9-3.2,2.8s-2.4,1.6-3.7,2.1c-1.5,0.7-3.1,1.1-4.7,1.5c-1.5,0.3-2.9,0.4-4.4,0.5
		c-0.7,0-1.4-0.1-2.1-0.1c-1.4,0-2.8-0.4-4.2-0.7c-0.6-0.1-1.2-0.5-1.9-0.7c-1.3-0.5-2.5-1.1-3.7-1.8c-1.3-0.8-2.5-1.7-3.6-2.9
		c-0.6-0.7-1.2-1.3-1.7-2c-0.8-1-1.4-2-2-3.1c-0.8-1.5-1.3-3.1-1.6-4.8c-0.2-1.3-0.3-2.6-0.5-3.9c-0.1-1,0.1-1.9,0.1-2.8
		c0.1-1.2,0.4-2.3,0.6-3.5c0.1-0.5,0.3-0.9,0.5-1.3c0.4-1.5,1.2-2.8,2-4.1c0.7-1,1.4-2,2.3-2.9c1.2-1.2,2.4-2.3,3.8-3.2
		c0.5-0.4,1.1-0.6,1.7-1c1.9-1,3.9-1.6,5.9-2c0.9-0.2,1.8-0.3,2.8-0.3c0.4,0,0.7,0,1.1-0.1c0.6-0.1,1.2,0,1.7,0s1.1,0,1.6,0.1
		c0.8,0.1,1.6,0.3,2.4,0.5c1.3,0.3,2.6,0.7,3.8,1.2c0.7,0.3,1.4,0.7,2.1,1.1c1.3,0.8,2.6,1.7,3.7,2.8c1.1,1.1,2.1,2.3,3,3.5
		c0.4,0.5,0.7,1.2,1,1.8c0.6,1.1,1.1,2.3,1.5,3.5c0.3,0.7,0.3,1.6,0.5,2.3c0.2,0.9,0.2,1.7,0.3,2.6C224,58,224.1,58.4,224.1,58.7z
		 M214.7,57.6c0-0.7-0.1-1.4-0.3-2.1c-0.2-0.7-0.3-1.4-0.7-2c-0.2-0.3-0.3-0.6-0.5-0.9c-0.8-1.3-1.6-2.6-2.8-3.5
		c-0.2-0.1-0.3-0.3-0.5-0.4c-1-0.7-1.9-1.4-3.1-1.7c-0.6-0.2-1.2-0.4-1.8-0.5c-1.2-0.1-2.4-0.3-3.6-0.1c-1.2,0.1-2.4,0.5-3.5,0.9
		s-2.1,1-3,1.8c-0.4,0.4-0.9,0.7-1.2,1.2c-0.4,0.5-0.8,1-1.1,1.6c-0.6,1.1-1.1,2.3-1.4,3.5c-0.1,0.3-0.2,0.6-0.2,1
		c0,1-0.2,2.1-0.1,3.1c0.1,0.9,0.1,1.8,0.4,2.7c0.2,0.6,0.3,1.2,0.6,1.8c0.6,1.1,1.2,2.2,2,3.2c0.2,0.2,0.3,0.4,0.5,0.6
		c0.3,0.3,0.7,0.6,1,0.9c0.2,0.2,0.4,0.4,0.7,0.6c0.5,0.3,0.9,0.5,1.4,0.7c1.3,0.6,2.6,1,4,1.1c0.5,0,0.9,0.2,1.4,0.1
		c1.3-0.1,2.6-0.3,3.8-0.6c1.2-0.3,2.2-1,3.2-1.7c1.1-0.7,2-1.7,2.7-2.8c0-0.1,0.1-0.1,0.1-0.1c0.5-0.8,1-1.6,1.3-2.4
		c0.5-1.5,0.8-3.1,0.8-4.7C214.8,58.4,214.7,58,214.7,57.6z"/>
	<path class="st2" d="M268,66.5c0.3,1.2,0.7,2.3,1.5,3.3c0.5,0.7,1.2,1.2,1.9,1.6c0.9,0.6,2,0.9,3,1s2,0,3-0.2
		c0.9-0.2,1.7-0.4,2.5-0.8c1-0.5,1.9-1.1,2.7-1.8c0.3-0.3,0.4-0.3,0.7,0c1.5,1.3,2.9,2.6,4.4,3.9c0.2,0.1,0.2,0.2,0,0.4
		c-0.6,0.6-1.1,1.3-1.8,1.8c-1,0.7-2,1.4-3,2c-0.6,0.3-1.2,0.5-1.8,0.7c-1.4,0.5-2.8,0.8-4.3,0.9s-2.9,0-4.3-0.2
		c-1-0.1-1.9-0.3-2.8-0.7c-1.1-0.4-2.2-0.8-3.2-1.6c-0.3-0.2-0.6-0.4-0.9-0.6c-1.3-1-2.5-2.2-3.5-3.5c-1-1.5-1.6-3.1-2.2-4.8
		c-0.4-1.2-0.4-2.5-0.6-3.7c-0.1-1,0.1-1.9,0.1-2.8c0.1-1.1,0.4-2.1,0.6-3.1c0.2-0.8,0.6-1.6,0.9-2.3c0.6-1.3,1.3-2.4,2.3-3.5
		c0.1-0.2,0.3-0.3,0.4-0.5c1.1-1.3,2.6-2.2,4.1-2.9c1.1-0.6,2.3-0.9,3.5-1.2c0.3-0.1,0.7-0.1,1-0.2c0.6-0.1,1.2-0.1,1.8-0.2
		c0.3,0,0.7,0,1,0c1.4,0,2.8,0.3,4.1,0.7c1,0.3,1.9,0.7,2.8,1.2c1,0.6,1.9,1.4,2.8,2.2c1.1,1.1,2,2.4,2.6,3.9c0.5,1.2,1,2.4,1.3,3.7
		c0.1,0.4,0.1,0.8,0.2,1.3c0.1,0.8,0.2,1.6,0.2,2.4c0,0.6,0.1,1.2,0.1,1.8c0,0.4-0.1,0.8-0.1,1.2c0,0.4-0.1,0.4-0.5,0.4
		c-2.3,0-4.6,0-6.9,0c-4.5,0-8.9,0-13.4,0C268.4,66.4,268.2,66.4,268,66.5z M280.8,60.4c-0.1-0.9-0.4-1.7-0.8-2.6
		c-0.1-0.2-0.1-0.3-0.3-0.4c-0.5-0.7-1.1-1.3-1.8-1.8c-0.6-0.5-1.4-0.8-2.1-0.9c-0.9-0.2-1.8-0.2-2.7,0c-0.7,0.1-1.4,0.4-2,0.8
		c-0.6,0.4-1.2,0.9-1.7,1.6c-0.2,0.2-0.4,0.4-0.5,0.7c-0.4,0.8-0.8,1.6-0.9,2.5c0,0.2-0.2,0.5-0.2,0.8c4.3,0,8.6,0,13,0
		C280.9,60.7,280.8,60.6,280.8,60.4z"/>
	<path class="st3" d="M200.8,21c0.1,0.1,0.2,0.1,0.4,0.2c1.1,0.3,2,1.1,2.9,1.9c0.8,0.8,1.2,1.8,1.3,2.9c0.2,1.4-0.1,2.7-0.6,4
		c-0.1,0.2-0.3,0.4-0.4,0.6c-0.5,0.7-1.2,1.3-1.9,1.8c-0.2,0.1-0.4,0.2-0.6,0.3c-1,0.5-2,0.7-3.1,0.9c-0.2,0-0.4,0-0.6,0
		c-0.8,0-1.7,0.1-2.5,0.1c-3.3,0-6.5,0-9.8,0c-0.1,0-0.2,0-0.4,0s-0.3-0.1-0.2-0.3c0-0.1,0-0.2,0-0.3c0-7.8,0-15.5,0-23.3
		c0-0.6-0.1-0.6,0.6-0.6c3.3,0,6.6,0,10,0c1.4,0,2.7,0.2,4,0.6c1,0.3,1.9,0.8,2.7,1.6c0.4,0.5,0.8,1,1.1,1.6c0.5,1,0.6,2,0.6,3
		c0,0.9-0.3,1.8-0.8,2.6c-0.3,0.5-0.7,0.9-1.1,1.2c-0.4,0.4-0.8,0.7-1.3,0.9C200.8,20.9,200.8,20.9,200.8,21z M197.7,29.7
		c0.6-0.1,1.2-0.2,1.7-0.5c1-0.6,1.7-1.4,1.7-2.6c0-0.5-0.1-1-0.2-1.4c-0.1-0.3-0.3-0.7-0.5-0.9c-0.3-0.3-0.7-0.5-1.2-0.7
		c-1-0.3-2.1-0.5-3.1-0.5c-2.1,0-4.2,0-6.3,0c-0.3,0-0.4,0-0.4,0.4c0,2,0,4,0,6c0,0.3,0,0.4,0.4,0.4c1.1,0,2.2,0,3.5,0
		C194.6,29.9,196.2,30,197.7,29.7z M195.2,19.5c0.9,0,1.7-0.1,2.6-0.4c0.5-0.2,0.9-0.5,1.3-0.8c0.3-0.3,0.6-0.8,0.6-1.3
		c0.1-0.9,0.2-1.8-0.4-2.6c-0.3-0.3-0.6-0.6-1-0.8c-0.8-0.3-1.7-0.5-2.6-0.5c-1.9,0-3.8,0-5.8,0c-0.4,0-0.4,0-0.4,0.4
		c0,1.9,0,3.8,0,5.7c0,0.3,0,0.4,0.4,0.4c1,0,2.1,0,3.1,0C193.7,19.5,194.4,19.5,195.2,19.5z"/>
	<path class="st3" d="M274.6,26.1c0.2,1,0.6,1.9,1.2,2.7c0.3,0.4,0.7,0.7,1.2,1c0.4,0.2,0.8,0.4,1.2,0.6c0.3,0.1,0.6,0.1,0.9,0.1
		c1.2,0.2,2.3-0.1,3.4-0.5c0.6-0.2,1.1-0.6,1.5-1.1c0.1-0.1,0.2-0.2,0.3-0.3c0.4-0.4,0.4-0.4,0.8,0c0.6,0.6,1.3,1.2,1.9,1.8
		c0.2,0.2,0.1,0.3,0,0.4c-1,1.2-2.3,2-3.8,2.6c-0.7,0.3-1.4,0.5-2.2,0.5c-0.4,0-0.8,0.1-1.2,0.1c-0.3,0-0.5,0-0.8-0.1
		c-1.2-0.1-2.3-0.3-3.3-0.8c-0.7-0.3-1.4-0.7-2.1-1.2c-0.4-0.3-0.7-0.7-1-1.1c-0.6-0.6-1.1-1.4-1.4-2.1c-0.4-0.8-0.6-1.7-0.8-2.6
		c-0.1-0.5-0.1-1-0.2-1.5c0-0.3,0-0.5,0-0.8c0.1-1.1,0.2-2.1,0.6-3.1c0.3-0.9,0.7-1.7,1.2-2.4c0.5-0.7,1.1-1.2,1.7-1.8
		c0.9-0.8,2-1.2,3.1-1.6c0.5-0.2,1.1-0.2,1.7-0.3c1.1-0.1,2.2,0.1,3.3,0.4c1.6,0.4,2.8,1.4,3.9,2.5c0.2,0.2,0.3,0.4,0.4,0.6
		c0.7,1.1,1.2,2.3,1.5,3.5c0.2,0.7,0.3,1.5,0.3,2.3c0,0.5,0.1,1,0.1,1.6c0,0.4,0,0.4-0.4,0.4c-0.1,0-0.2,0-0.3,0
		c-4.1,0-8.2,0-12.3,0C274.9,26,274.7,26,274.6,26.1z M275.1,23.2c2.7,0,5.3,0,8,0c0.9,0,0.9,0,0.7-0.8c-0.3-1.3-0.8-2.4-2-3.2
		c-0.9-0.6-1.8-0.9-2.9-0.7c-0.4,0.1-0.8,0.1-1.2,0.3c-0.8,0.4-1.4,0.9-2,1.6c-0.1,0.1-0.1,0.2-0.2,0.3c-0.5,0.8-0.7,1.7-0.9,2.6
		C274.7,23.2,274.9,23.2,275.1,23.2z"/>
</g>
</svg>
