<?xml version="1.0" encoding="utf-8"?>
<!-- Generator: Adobe Illustrator 24.0.2, SVG Export Plug-In . SVG Version: 6.00 Build 0)  -->
<svg version="1.1" id="Capa_1" xmlns="http://www.w3.org/2000/svg" xmlns:xlink="http://www.w3.org/1999/xlink" x="0px" y="0px"
	 viewBox="0 0 153 151" style="enable-background:new 0 0 153 151;" xml:space="preserve">
<style type="text/css">
	.st0{fill:#004C98;}
	.st1{fill:#FFFFFF;}
</style>
<circle class="st0" cx="75.3" cy="75.2" r="74.3"/>
<path class="st1" d="M19.3,87.3c0.5-0.7,1.1-1.1,2.1-1.2c2.5-0.2,4.7-1.6,5.9-3.6c-0.3-0.1-0.6-0.2-0.9-0.3c-1-0.4-2-0.6-2.9-1.1
	c-2.8-1.4-3.5-3.8-2-6.3c1.6-2.7,4.5-3.3,7-1.5c1.9,1.4,2.9,3.4,3.2,5.8c0,0.3,0.1,0.5,0.4,0.8c0.1-0.3,0.2-0.6,0.3-0.9
	c1.7-9.7,6.8-16.9,15.2-22c1.1-0.6,2.1-0.5,2.6,0.4s0.2,1.7-0.9,2.4c-5.6,3.4-9.9,7.9-12.1,14c-3.2,9-3,17.9,1.3,26.6
	c2.5,5.1,6.5,8.8,11.4,11.5c1.6,0.9,2.4,2,2.7,3.8c0.5,3.3,1.3,6.6,1.9,10c0.1,0.8,0.5,1.1,1.3,1.1c2.2,0,4.4,0,6.7,0
	c0.9,0,1.2-0.4,1.4-1.2c0.3-1.8,0.7-3.6,1-5.4c0.4-2.1,1.3-2.9,3.4-2.7c5.7,0.5,11.4,0.4,17.1-0.4c1.6-0.2,2.7,0.7,3.1,2.4
	c0.4,2,0.8,3.9,1.1,5.9c0.1,0.9,0.5,1.3,1.5,1.3c2.1-0.1,4.3-0.1,6.4,0c1,0,1.3-0.4,1.5-1.3c0.7-3.8,1.5-7.6,2.1-11.5
	c0.2-1.1,0.8-1.8,1.7-2.3c5.5-2.9,10.1-6.8,13.3-12.3c0.7-1.2,1.8-1.9,3.1-2.3c2.1-0.7,4.3-1.4,6.4-2c2-0.6,2.6-1.5,2.6-3.5
	c0-2.3,0-4.5,0-6.8c0-1.7-0.7-2.6-2.2-3.1c-1.3-0.4-2.6-0.9-3.9-1.3c-2-0.6-3.2-1.9-3.9-3.8c-0.9-2.9-2.4-5.6-4.3-8
	c-0.2-0.2-0.4-0.5-0.6-0.7c0,0-0.1,0-0.3-0.1c-0.1,0.3-0.3,0.6-0.4,1c-1.5,3.9-4.5,5.5-8.6,5.5c-7.4,0-12.9-5.3-13-12.7
	c0-2,0.2-3.9,0.3-6c-0.7-0.2-1.6-0.4-2.5-0.6c-0.2,0-0.5,0.1-0.6,0.3c-1,1.1-1.9,2.3-2.9,3.4c-1,1-2.2,1.9-3.4,2.9
	c0.9,0.3,1.7,0.5,2.5,0.8c1.2,0.4,1.6,1.2,1.3,2.1c-0.3,0.9-1.2,1.3-2.3,1c-4.3-1.4-8.8-2.1-13.3-2.1c-4.4,0-8.8,0.6-13,1.9
	c-0.3,0.1-0.7,0.2-1,0.3c-0.9,0.2-1.6-0.2-1.9-1c-0.3-0.8,0.1-1.7,1-2s1.9-0.6,2.9-0.9c-0.3-0.3-0.5-0.4-0.7-0.6
	c-7.5-5.3-11-14.3-9-23.1c2.1-9,9.2-15.7,18.3-17.1c9.1-1.5,18.4,3.1,22.9,11.3c0.7,1.4,0.6,2.3-0.4,2.8c-0.9,0.5-1.7,0.1-2.5-1.2
	c-3.9-6.6-9.7-10-17.4-9.9c-8.7,0.1-16.3,6.8-17.9,15.5c-1.6,8.8,3.3,17.7,11.4,20.9c0.5,0.2,1.1,0.2,1.7,0.2
	c3.7-0.4,7.4-0.4,11.1,0c0.6,0.1,1.4,0,2-0.3c6.8-3.2,10.6-8.5,11.3-16c0.1-0.9,0.3-1.8,1.3-2c1.1-0.3,2,0.5,2,1.7
	c-0.1,2.5-0.7,5-1.6,7.3c-0.1,0.2-0.2,0.5-0.3,0.8c1.6,0.2,2.9,1,4.7,0.1c4.2-2.1,8.5-3.8,13.1-4.8c0.4-0.1,0.7-0.1,1.1-0.2
	c3.6-0.5,5.2,0.7,5.7,4.4c0.6,3.9,0.2,7.8-0.5,11.7c-0.1,0.4,0.1,1.1,0.4,1.4c2.9,3.2,5.1,6.9,6.5,11c0.3,1,0.9,1.5,1.8,1.8
	c1.4,0.4,2.8,0.9,4.2,1.3c2.6,0.9,4.2,3.1,4.2,5.9c0,2.5,0,5,0,7.5c0,2.8-1.6,5-4.2,5.9c-2.3,0.8-4.6,1.5-6.9,2.3
	c-0.6,0.2-1.3,0.7-1.6,1.2c-3.3,5.5-8,9.6-13.6,12.7c-0.6,0.3-0.9,0.7-1.1,1.5c-0.6,3.7-1.4,7.3-2.1,10.9c-0.4,2.3-1.9,3.5-4.3,3.5
	s-4.7,0-7.1,0c-2.2,0-3.7-1.2-4.2-3.4c-0.4-2-0.8-4-1.2-6c-2.9,0.2-5.8,0.4-8.6,0.5c-2.8,0.1-5.7,0-8.6,0c-0.3,1.6-0.6,3.3-1,5.1
	c-0.5,2.5-1.9,3.7-4.4,3.7c-2.2,0-4.4,0-6.7,0c-2.7,0-4.1-1.2-4.6-3.8c-0.6-3.4-1.3-6.8-2-10.2c-0.1-0.4-0.4-0.9-0.8-1.1
	c-8.9-5.1-14.4-12.6-16.1-22.8c-0.5-2.9-0.5-5.9-0.7-9c-0.4-0.3-0.7,0.1-1,0.6c-1.7,2.7-3.9,4.8-7.1,5.6c-0.6,0.1-1.1,0.2-1.7,0.2
	c-1,0.1-1.8-0.3-2.2-1.2C19.3,88,19.3,87.7,19.3,87.3z M111.6,55.7c-0.1-1.3-0.2-2.6-0.4-3.9c-0.2-1.6-0.5-1.8-2.1-1.5
	c-4.8,0.9-9.2,2.9-13.6,4.9c-0.5,0.2-1,0.9-1.1,1.5c-0.3,1.9-0.5,3.8-0.4,5.7c0.3,4.4,3,7.6,7.3,8.4c5.6,1.1,7-0.5,8.5-4.6
	C111,62.8,111.5,59.3,111.6,55.7z M28.3,79.6c-0.3-1.8-0.9-3.1-2.2-3.8c-0.8-0.4-1.5-0.1-2,0.9c-0.4,0.8,0,1.3,0.6,1.6
	C25.8,78.7,26.9,79.1,28.3,79.6z"/>
<path class="st1" d="M71.5,53.2c-0.4,0.4-0.7,0.9-1.1,1.3c-0.4-0.4-0.8-0.8-1.2-1.2c0.1-0.1,0.1-0.2,0.2-0.3c-0.9-0.2-2-0.3-2.8-0.7
	c-1-0.4-1.9-1.1-2.6-1.8c-0.7-0.7-0.5-1.6,0.1-2.2c0.7-0.7,1.3-0.2,1.9,0.3c1,0.8,2.1,1.5,3.5,1.5c0-2.1,0-4.2,0-6.2
	c0-0.2-0.3-0.5-0.5-0.7c-0.7-0.3-1.4-0.6-2.1-0.9c-2-1-2.9-2.7-2.8-4.9c0.2-2.3,1.4-3.8,3.5-4.5c0.6-0.2,1.2-0.3,1.6-0.6
	c0.4-0.4,0.8-0.9,1.1-1.3c0.4,0.4,0.8,0.7,1.2,1.1c-0.1,0.1-0.1,0.1-0.2,0.2c1.2,0.3,2.4,0.6,3.5,1c0.7,0.3,1.2,0.8,1,1.7
	c-0.2,1-0.9,1.3-1.9,1c-0.8-0.3-1.7-0.6-2.7-1c0,2.1,0,3.9,0,5.6c0,0.2,0.3,0.4,0.5,0.5c0.4,0.2,0.8,0.3,1.2,0.5
	c2.6,1.3,3.8,3.3,3.5,6c-0.3,2.8-1.7,4.4-4.6,5.1c-0.2,0-0.3,0.1-0.5,0.1C71.4,53,71.5,53.1,71.5,53.2z M71.1,49.9
	c1.4-0.1,2.3-0.9,2.5-2.4c0.2-1.6-0.7-2.8-2.5-3.3C71.1,46.1,71.1,48,71.1,49.9z M69.7,40.2c0-1.7,0-3.4,0-5
	c-1.7,0.2-2.6,0.9-2.7,2.1C66.8,38.7,67.7,39.6,69.7,40.2z"/>
<path class="st1" d="M107.9,85.4c-2.8,0-5.1-2.1-5.3-4.9c-0.1-1.1,0.5-1.9,1.4-2c1-0.1,1.6,0.4,1.8,1.6c0.2,1.3,1,2.1,2.1,2.1
	s1.8-0.7,2-2c0.2-1.2,0.9-1.8,1.9-1.6c0.9,0.1,1.4,0.9,1.3,2C112.9,83.3,110.6,85.4,107.9,85.4z"/>
</svg>
