<?xml version="1.0" encoding="utf-8"?>
<!-- Generator: Adobe Illustrator 24.0.2, SVG Export Plug-In . SVG Version: 6.00 Build 0)  -->
<svg version="1.1" id="Capa_1" xmlns="http://www.w3.org/2000/svg" xmlns:xlink="http://www.w3.org/1999/xlink" x="0px" y="0px"
	 viewBox="0 0 153 151" style="enable-background:new 0 0 153 151;" xml:space="preserve">
<style type="text/css">
	.st0{fill:#004C98;}
	.st1{fill:#FFFFFF;}
</style>
<circle class="st0" cx="75.3" cy="75.2" r="74.3"/>
<g>
	<path class="st1" d="M56.1,128.3c-3.9-0.6-6.6-2.9-9.2-5.7c-1.1-1.2-2.3-2.3-3.5-3.5c-5.6-5.6-11.3-11.3-16.9-16.9
		c-5.3-5.3-5.3-12.4,0-17.7c2.4-2.4,4.8-4.8,7.1-7.1c4.2,4.2,8.4,8.4,12.7,12.7c-1.2,1.2-2.5,2.4-3.7,3.6c-1,0.9-1.9,1.9-2.8,2.8
		c-0.7,0.7-0.8,1.7-0.2,2.3c1.9,2,3.9,3.9,5.9,5.9c0.3-0.7,0.5-1.4,0.7-2.1c1.6-4.3,4.7-7,9.3-7.8c3.4-0.7,6.9-1.3,10.3-1.9
		c0.3,0,0.5-0.1,1.1-0.3c-0.4-0.5-0.6-0.9-0.9-1.2c-3.8-2.5-6.3-6-7.4-10.4c-0.1-0.3-0.4-0.7-0.7-0.8c-3.2-1.2-4.8-3.5-4.8-6.9
		c0-3.8,0-7.6,0-11.4c0.1-11.4,8.3-20.7,19.6-22.1c12.1-1.5,23.6,7.7,24.5,19.8c0.3,4.3,0.2,8.7,0.2,13c0,3,0,6,0,9.1
		c0,3.5-2.1,5.8-5.6,5.6c-1.9-0.1-3.5,0.2-4.7,1.9c-0.7,0.9-1.9,1.5-2.8,2.3c-0.3,0.2-0.5,0.6-0.8,1.1c2.2,0.4,4,0.8,5.9,1.1
		c2.1,0.4,4.3,0.7,6.4,1.2c4,1,6.9,3.4,8.3,7.3c1.5,3.9,2.7,7.9,4,11.9c0,0.1,0,0.2,0,0.4c-12,0-24.1,0-36.1,0
		c0,0.1-0.1,0.1-0.1,0.2c0.9,0.7,1.7,1.4,2.7,2.2c-3.6,3.2-6.8,6.2-10.1,9c-1.5,1.3-3.5,1.7-5.4,2.2C58,128.3,57.1,128.3,56.1,128.3
		z M75.2,103.5c-2.3-2.3-4.5-4.5-6.7-6.8c-0.5-0.5-0.9-0.6-1.5-0.5c-3.6,0.7-7.2,1.3-10.7,2c-3.4,0.6-5.7,2.6-6.8,5.8
		c-0.3,0.9-0.6,1.9-1,2.8c-0.2,0.5-0.2,0.9,0.3,1.3c1,1,2,2,3,3c1,0.9,1.8,1,2.8,0.1c1.7-1.5,3.3-3,5-4.5c0.7-0.7,1.5-1.3,2.2-2
		c2,2,4,3.9,5.9,5.9c0.5,0.5,1,0.7,1.7,0.7c11,0,22.1,0,33.1,0c0.3,0,0.7,0,1.2,0c-0.9-2.6-1.6-5-2.5-7.4c-1.1-3.1-3.4-5-6.7-5.6
		c-3.1-0.6-6.3-1-9.4-1.8c-1.7-0.4-2.8,0-4,1.3C79.1,99.7,77.1,101.5,75.2,103.5z M75.2,57.7c4.5,5.4,10.1,8,17,7.6
		c0,0.8,0,1.4,0,1.9c0.6,0.2,1.1,0.4,1.7,0.6c0-2.2,0-4.4,0-6.6c-0.3-11.8-11.7-20.6-23.1-17.6c-12.4,3.4-15.4,13.6-14.2,24.1
		c0.5-0.2,1-0.4,1.6-0.6c0-0.6,0-1.2,0-1.9C65.2,65.7,70.7,63,75.2,57.7z M75.2,84.1c0.1-0.1,0.2-0.1,0.3-0.1c2.7,0,5.5,0,8.2,0
		c1.1,0,2.6,0.4,3.2-0.2c0.9-0.9,1.1-2.4,1.6-3.7c0-0.1,0-0.2,0-0.3c0.1-3.5,0.2-7.1,0.2-10.6c0-0.2-0.5-0.6-0.8-0.6
		c-4.6-0.6-8.7-2.4-12.2-5.5c-0.2-0.2-0.4-0.3-0.6-0.4c-3.7,3.4-7.9,5.4-12.8,5.9c-0.6,0.1-0.8,0.3-0.8,0.9c0,2.7-0.1,5.4,0,8
		c0.3,8.6,7.9,14.7,16.3,13.1c2.3-0.4,4.3-1.4,6.3-3.1c-3.1,0-6,0-8.8,0C75.2,86.3,75.2,85.2,75.2,84.1z M29.4,86.5
		c-4.3,3.6-4.5,9.1-0.6,13.1c3.4,3.4,6.8,6.8,10.2,10.2c4.2,4.2,8.3,8.3,12.5,12.5c3.8,3.7,9.8,3.3,12.8-0.7
		c-2.6-2.6-5.2-5.2-7.7-7.8c-2.4,1.9-5.1,1.9-7.2-0.2c-4.1-4-8.1-8-12.1-12.1c-0.6-0.7-1.1-1.6-1.4-2.5c-0.6-1.8,0.1-3.4,1.2-4.8
		C34.5,91.7,32,89.1,29.4,86.5z M69.2,117.3c-2.6-2.7-5.2-5.2-7.8-7.8c-0.7,0.6-1.4,1.3-1.9,1.7c2.7,2.7,5.2,5.2,7.8,7.8
		C67.9,118.5,68.5,117.9,69.2,117.3z M32.1,83.9c2.6,2.6,5.2,5.1,7.7,7.7c0.5-0.5,1.1-1.1,1.6-1.6c-2.5-2.5-5.1-5.1-7.7-7.7
		C33.1,82.8,32.6,83.4,32.1,83.9z M75.2,98.3c1.5-1.5,3.1-3.1,4.8-4.8c-3.2,0.9-6.4,0.9-9.5,0C72.1,95.2,73.7,96.8,75.2,98.3z
		 M90.9,83.9c2.8,0.5,3.4-0.8,2.8-4.1c-0.6,0.3-1.5,0.5-1.8,1C91.4,81.7,91.2,82.8,90.9,83.9z M58.1,70.9c-1.3,0.9-1.8,1.9-1.6,3.3
		c0.1,1.1,0.6,1.9,1.6,2.5C58.1,74.7,58.1,72.9,58.1,70.9z M92.3,71.1c0,1.9,0,3.7,0,5.6C94.6,75.3,94.2,71.9,92.3,71.1z"/>
	<path class="st1" d="M101.8,56.8c0.6-3.5,1.2-6.8,1.7-10.1c-0.3,0-0.6-0.1-0.9-0.1c-1.2,0-2.4,0-3.6,0c-2.9-0.1-5.1-2.2-5.1-5
		c-0.1-4.6-0.1-9.2,0-13.8c0-2.9,2.3-5,5.2-5c7.9,0,15.7,0,23.6,0c3,0,5.2,2.1,5.2,5.1c0.1,4.5,0,9.1,0,13.6c0,2.9-2.1,5-5,5.1
		c-0.2,0-0.4,0-0.6,0c-2.9-0.4-5.3,0.6-7.7,2.2c-3.9,2.6-7.9,5-11.9,7.5C102.5,56.4,102.3,56.5,101.8,56.8z M106.5,49.9
		c2.3-1.5,4.6-2.6,6.5-4.1c2.8-2.1,5.8-3,9.3-2.7c1.7,0.2,2.3-0.5,2.3-2.2c0-4.1,0-8.2,0-12.3c0-2-0.5-2.5-2.5-2.5
		c-6.8,0-13.6,0-20.4,0c-0.9,0-1.7,0-2.6,0c-1.1,0-1.7,0.6-1.8,1.7c0,4.5,0,9,0,13.5c0,1.1,0.6,1.7,1.7,1.8c0.4,0,0.8,0,1.1,0
		c2.4,0,4.9,0,7.4,0C107.2,45.4,106.9,47.5,106.5,49.9z"/>
	<path class="st1" d="M89.3,30c-0.3,1.1-0.6,2.1-1,3.1c-14.7-4-28.2-1.8-40.3,7.5c-8,6.1-13.2,14.2-15.8,24.3c1-0.6,1.7-1,2.4-1.4
		c0.7-0.4,1.5-0.9,2.2-1.3c0.6,1,1.1,1.9,1.7,2.9c-3.3,2-6.6,4-10,6c-2-3.3-3.9-6.6-6-10c0.9-0.6,1.9-1.1,2.9-1.8
		c1.1,1.7,2.1,3.5,3.2,5.3C35.4,36.1,65,22,89.3,30z"/>
	<path class="st1" d="M117.2,61.1c-1.1,1.8-2,3.4-3,5c-1-0.6-1.9-1.1-2.9-1.7c2-3.3,4-6.6,6-10c3.3,2,6.6,4,10,6
		c-0.6,1-1.2,1.9-1.7,2.9c-1.6-1-3.2-1.9-4.9-2.9c4.9,16.5,2.1,31.4-8.2,45.2c-0.5-0.4-0.9-0.7-1.4-1.1c-0.4-0.3-0.8-0.7-1.3-1.1
		C119.3,90.6,121.8,76.7,117.2,61.1z"/>
	<path class="st1" d="M121.1,29.6c0,1.1,0,2.2,0,3.3c-6.8,0-13.5,0-20.3,0c0-1.1,0-2.1,0-3.3C107.6,29.6,114.3,29.6,121.1,29.6z"/>
	<path class="st1" d="M114.3,36.4c0,1.1,0,2.2,0,3.3c-4.5,0-9,0-13.5,0c0-1.1,0-2.2,0-3.3C105.3,36.4,109.7,36.4,114.3,36.4z"/>
</g>
<path class="st1" d="M117.8,39.7c0-1.2,0-2.2,0-3.3c1.1,0,2.1,0,3.3,0c0,1.1,0,2.1,0,3.3C120,39.7,118.9,39.7,117.8,39.7z"/>
</svg>
