<?xml version="1.0" encoding="utf-8"?>
<!-- Generator: Adobe Illustrator 24.0.2, SVG Export Plug-In . SVG Version: 6.00 Build 0)  -->
<svg version="1.1" id="Capa_1" xmlns="http://www.w3.org/2000/svg" xmlns:xlink="http://www.w3.org/1999/xlink" x="0px" y="0px"
	 viewBox="0 0 153 151" style="enable-background:new 0 0 153 151;" xml:space="preserve">
<style type="text/css">
	.st0{fill:#004C98;}
	.st1{fill:#FFFFFF;}
</style>
<circle class="st0" cx="75.3" cy="75.2" r="74.3"/>
<g>
	<path class="st1" d="M19.3,73.5c0.3-2,0.5-4,0.9-6.1c2.8-14.9,10.5-26.7,22.4-35.6c8.1-6.1,17.1-9.7,27.2-10.7
		c11.3-1.2,21.9,1.1,31.8,6.7c12.7,7.2,21.7,17.5,26.4,31.4c5.3,15.3,3.9,30-4,44.1c-7.8,13.9-19.5,23.1-34.8,27.5
		c-3.1,0.9-6.5,1.2-9.8,1.7c-0.3,0.1-0.6,0.2-0.9,0.2c-2.2,0-4.4,0-6.5,0c-1.8-0.2-3.6-0.4-5.3-0.7c-10-1.7-18.9-5.8-26.6-12.3
		c-10.6-8.9-17.4-20.1-19.8-33.7c-0.4-2-0.6-3.9-0.9-5.9C19.3,77.8,19.3,75.7,19.3,73.5z M32.3,48.8c2,1.5,2.6,2.4,1.9,3.6
		c-0.2,0.4-0.8,1-1.2,1c-1,0-2-0.3-3.1-0.5c-3.6,6.6-5.7,13.8-6.1,21.6c0.7,0,1.3,0,2,0c1.3,0.1,2.3,0.9,2.4,2.1
		c0,1.3-0.9,2.2-2.4,2.2c-0.6,0-1.3,0-2,0c0.4,7.9,2.4,15.1,6.1,21.9c2.8-1,3.6-0.9,4.2,0.2c0.6,1.2,0.2,2-1.9,3.8
		c4,6,9,10.9,14.9,14.9c1.5-2.1,2.4-2.7,3.5-2c2.1,1.2,1.1,2.8,0.3,4.3c6.9,3.7,14.1,5.8,21.9,6.1c0-0.7,0-1.3,0-2
		c0.1-1.3,0.9-2.3,2.2-2.3c1.2,0,2.1,0.9,2.2,2.3c0,0.6,0,1.3,0,2c7.9-0.4,15.1-2.5,21.9-6.2c-1.1-2.4-1-3.4,0.2-4.2
		c1.2-0.7,2-0.3,3.8,1.8c6-4,10.9-9,14.9-14.9c-2-1.6-2.5-2.5-1.8-3.7c0.7-1.2,1.7-1.3,4.1-0.2c3.1-4,6.5-16.3,6.2-21.8
		c-0.6,0-1.2,0-1.7,0c-1.5-0.1-2.5-0.9-2.4-2.2c0-1.3,1-2.1,2.4-2.1c0.6,0,1.2,0,1.8,0c-0.2-7-3.6-18.8-6.3-21.9
		c-2.2,1.1-3.2,1.1-3.9-0.2c-0.2-0.5-0.5-1.2-0.3-1.5c0.5-0.9,1.2-1.6,1.9-2.4c-2.2-4.2-10.9-12.9-14.9-14.6c-1.5,2-2.4,2.4-3.6,1.7
		s-1.3-1.7-0.2-4.2c-6.8-3.7-14-5.8-21.9-6.2c0,0.7,0,1.3,0,2c-0.1,1.4-1,2.4-2.2,2.4c-1.2,0-2-0.9-2.1-2.4c0-0.6,0-1.3,0-2
		C65.2,25.8,58,28,51.2,31.7c1.2,2.3,1.2,3.4-0.1,4.1c-0.4,0.2-1.1,0.5-1.4,0.3c-0.9-0.5-1.7-1.2-2.7-1.9
		C41.2,37.9,36.3,42.8,32.3,48.8z"/>
	<path class="st1" d="M75.2,109.5c-18,0-32.8-14.8-32.8-32.8c0-18.1,14.8-32.7,33-32.7c17.9,0,32.6,14.9,32.6,32.8
		S93.2,109.5,75.2,109.5z M100.7,89.2c-0.5-0.2-0.8-0.5-1.1-0.7c-3.5-2-6.9-4-10.4-6.1c-4.4-2.7-4.4-8.6,0-11.3
		c1.7-1.1,3.5-2.1,5.3-3.1c2-1.2,4-2.4,6.1-3.6c-0.8-1.3-1.5-2.5-2.2-3.8c-3.8,2.2-7.4,4.3-11,6.4c-4.9,2.8-10.1-0.2-10.1-5.8
		c0-3.9,0-7.6,0-11.5c0-0.4,0-0.8,0-1.2c-1.5,0-2.9,0-4.4,0c0,0.6,0,0.9,0,1.3c0,3.9,0,7.9,0,11.8c-0.1,3.9-3.1,6.8-7,6.5
		c-1.2-0.1-2.4-0.6-3.4-1.1c-3.6-2-7.2-4.2-10.9-6.3c-0.8,1.3-1.4,2.5-2.2,3.8c0.5,0.2,0.8,0.5,1.1,0.7c3.5,2,6.9,4,10.4,6.1
		c4.4,2.7,4.4,8.7,0,11.3c-2.4,1.4-4.7,2.8-7.1,4.2c-1.4,0.9-2.9,1.7-4.4,2.6c0.8,1.3,1.5,2.5,2.2,3.8c3.8-2.2,7.4-4.3,11-6.4
		c4.9-2.8,10.1,0.2,10.1,5.8c0,3.9,0,7.6,0,11.5c0,0.4,0,0.8,0,1.2c1.5,0,2.9,0,4.4,0c0-0.6,0-0.9,0-1.3c0-3.9,0-7.9,0-11.8
		c0.1-3.9,3.1-6.8,7-6.5c1.2,0.1,2.4,0.6,3.4,1.1c3.6,2,7.2,4.2,10.9,6.3C99.3,91.7,100,90.4,100.7,89.2z M48,68.5
		c-1.7,5.6-1.7,10.9,0,16.4c0.3-0.2,0.6-0.2,0.8-0.4c3.2-1.9,6.5-3.8,9.7-5.7c2-1.2,2-3.1,0-4.3c-2.5-1.5-5.1-3-7.6-4.4
		C50,69.6,49.1,69.1,48,68.5z M102.4,68.5c-0.3,0.2-0.5,0.2-0.6,0.3c-3.3,1.9-6.6,3.9-9.9,5.7c-2,1.2-2,3.1,0.1,4.2
		c3.2,1.9,6.5,3.8,9.8,5.7c0.2,0.2,0.5,0.2,0.7,0.3C103.9,79.4,104,74.1,102.4,68.5z M54.7,57.2c3.6,2.1,7,4.2,10.5,6.1
		c1.8,1,3.5,0,3.5-2.1c0-3,0-6.1,0-9c0-0.9,0-2,0-3C63.1,50.5,58.5,53.1,54.7,57.2z M81.7,49.2c0,4.2-0.1,8.3,0,12.4
		c0,1.7,1.7,2.7,3.3,1.7c3.5-2,7-4.1,10.6-6.1C91.8,53.1,87.3,50.5,81.7,49.2z M68.6,104.3c0-4.2,0.1-8.3,0-12.4
		c0-1.7-1.7-2.7-3.2-1.8c-3.5,2-7.1,4.1-10.6,6.1C57.3,99.6,64.1,103.6,68.6,104.3z M81.7,104.3c5.5-1.3,10.1-4,14-8
		c-3.5-2-6.9-4.1-10.4-6.1c-2-1.1-3.5-0.2-3.6,2.1c0,2.8,0,5.7,0,8.6C81.7,102.1,81.7,103.2,81.7,104.3z"/>
	<path class="st1" d="M118,74.9c0,0.6,0,1.2,0,1.7c-0.1,1.3-0.9,2.3-2.2,2.3c-1.2,0-2-0.9-2.2-2.1c-0.2-1.6-0.2-3.2-0.4-4.8
		c-1.3-9.5-5.9-17.4-13-23.8c-4.6-4.2-10-7.2-16.1-8.7c-0.2-0.1-0.4-0.1-0.6-0.2c-1.4-0.5-2-1.6-1.7-2.8s1.5-1.9,2.9-1.4
		c2.3,0.7,4.6,1.3,6.8,2.3c11.2,5.1,19.1,13.5,23.8,24.9C116.7,65.9,117.5,70.1,118,74.9z"/>
	<path class="st1" d="M77.3,36.1c0,1.2-1,2.1-2.2,2.1c-1.2,0-2.1-1-2.1-2.2c0-1.2,1-2.1,2.2-2.1C76.4,34,77.3,35,77.3,36.1z"/>
	<path class="st1" d="M75.2,70.2c3.5,0,6.5,3,6.5,6.5c0,3.6-3,6.6-6.6,6.5c-3.5-0.1-6.5-3.1-6.5-6.6C68.7,73.2,71.7,70.2,75.2,70.2z
		 M77.3,76.8c0-1.1-0.9-2.2-2.1-2.2c-1.1,0-2.2,0.9-2.2,2.1c0,1.1,0.9,2.2,2.1,2.2C76.3,78.9,77.3,77.9,77.3,76.8z"/>
</g>
</svg>
