<?xml version="1.0" encoding="utf-8"?>
<!-- Generator: Adobe Illustrator 24.0.2, SVG Export Plug-In . SVG Version: 6.00 Build 0)  -->
<svg version="1.1" id="Capa_1" xmlns="http://www.w3.org/2000/svg" xmlns:xlink="http://www.w3.org/1999/xlink" x="0px" y="0px"
	 viewBox="0 0 153 151" style="enable-background:new 0 0 153 151;" xml:space="preserve">
<style type="text/css">
	.st0{fill:#004C98;}
	.st1{fill:#FFFFFF;}
</style>
<circle class="st0" cx="75.3" cy="75.2" r="74.3"/>
<g>
	<path class="st1" d="M132.7,96.9c-0.8,2-2.4,2.7-4.6,2.7c-2.1-0.1-4.1,0-6.2,0c-0.2,2.2-0.7,4.2-2.2,5.8c-2.2,2.6-5.1,3.6-8.5,2.9
		c-3.2-0.7-5.6-2.7-6.6-5.9c-0.2-0.7-0.6-1.1-1.4-1.1c-13.2,0-26.4,0-39.7,0c-0.7,0-1.2,0-1.4,0.8c-2.1,6.7-10.4,8.5-15,3.3
		c-0.2-0.2-0.3-0.3-0.5-0.6c-5.1,6.1-14.2,3.8-15.9-3.6c-1.1,0-2.2,0-3.3,0c-2.6,0-3.9-1.4-4-4c0-1,0-2.1,0-3.2c-0.6,0-1.1,0-1.5,0
		C19.3,94,18,92.6,18,90.1c0-7.2,0-14.4,0-21.6c0-5.6,0-11.2,0-16.8c0-2.8,1.3-4.2,4.2-4.2c27.1,0,54.2,0,81.3,0
		c2.8,0,4.2,1.3,4.2,4.2c0,2.2,0,4.3,0,6.6c0.5,0,0.8,0,1.2,0c4.5,0,9,0,13.5,0c0.2,0,0.5,0,0.7,0c1,0,1.9,0.1,2.3,1.2
		c0.4,1.1-0.2,1.7-1,2.2c1.5,4.4,2.9,8.8,4.4,13.1c0.2,0.5,0.7,0.9,1,1.3c1.2,1.2,2.3,2.4,2.9,4.1C132.7,85.8,132.7,91.4,132.7,96.9
		z M104.1,51.1c-27.7,0-55.2,0-82.7,0c0,13.3,0,26.4,0,39.7c0.6,0,1,0,1.5,0c23.1,0,46.2,0,69.3,0c0.5,0,1,0,1.4,0.1
		c0.8,0.2,1.4,0.7,1.2,1.6c-0.1,0.6-0.7,1.2-1.2,1.6c-0.3,0.2-1,0.2-1.5,0.2c-10,0-20,0-30,0c-0.4,0-0.8,0-1.3,0
		c0.5,1,1,1.7,1.2,2.7c0.2,1,0.7,1.2,1.7,1.2c13,0,26.2,0,39.2,0c0.3,0,0.6,0.1,0.9,0c0.2-0.1,0.4-0.2,0.6-0.4
		c0.5-1.1,0.9-2.2,1.4-3.4c-1.7,0-3.3,0-5,0c-1.2,0-2-0.7-2-1.7c0-1.1,0.7-1.7,2.1-1.7c1.1,0,2.2,0,3.2,0
		C104.1,77.4,104.1,64.3,104.1,51.1z M122,65.6c-0.3-1.1-0.7-2-0.9-2.9c-0.2-0.7-0.6-1-1.3-1c-3.7,0.1-7.5,0-11.2,0
		c-0.3,0-0.7,0.1-1,0.1c0,9.7,0,19.3,0,28.9c1.7,0,3.4,0,5.1,0c3.7,0,6.3,1.6,8.1,4.7c0.2,0.3,0.7,0.6,1.2,0.6c2,0.1,4,0,5.9,0
		c0.4,0,0.8,0,1.3,0c0-2.6,0-5,0-7.4c-1.4-0.2-3.4,0.4-3.4-1.7c-0.1-2.3,2.2-1.5,3.5-1.8c0-1.3,0.1-2.7,0-4.1
		c-0.1-0.9-0.6-1.5-1.7-1.5c-4.1,0.1-8.2,0-12.3,0c-2.6,0-3.9-1.3-3.9-3.8s0-5,0-7.5c0-2.4,0.4-2.8,2.8-2.8
		C116.7,65.6,119.3,65.6,122,65.6z M44.9,99.7c0-3.1-2.4-5.5-5.5-5.5c-3,0-5.5,2.4-5.6,5.4c0,3,2.5,5.5,5.5,5.6
		C42.3,105.2,44.9,102.7,44.9,99.7z M107.6,99.6c0,3,2.5,5.5,5.5,5.5s5.5-2.6,5.5-5.6S116,94,113.1,94
		C110,94.1,107.6,96.6,107.6,99.6z M59.3,99.6c0-3.1-2.5-5.5-5.5-5.4c-3,0-5.5,2.6-5.5,5.6c0.1,3,2.6,5.5,5.6,5.5
		C56.8,105.1,59.3,102.6,59.3,99.6z M125.6,76.4c-0.8-2.4-1.6-4.7-2.4-7.1c-0.1-0.2-0.3-0.3-0.5-0.3c-2.7,0-5.2,0-8,0
		c0,2.5,0,4.9,0,7.4C118.4,76.4,121.9,76.4,125.6,76.4z M32.2,94.2c-1.8,0-3.6,0-5.4,0c0,1.2,0,2.4,0,3.7c1.3,0,2.6,0,3.8,0
		C31.1,96.7,31.6,95.5,32.2,94.2z"/>
	<path class="st1" d="M62.8,83.6c11.5,0,23.2,0,34.7,0c0.5,0,1,0,1.4,0.1c0.8,0.2,1.3,0.7,1.3,1.6c0,0.8-0.4,1.4-1.2,1.6
		c-0.4,0.1-0.9,0.1-1.3,0.1c-23.3,0-46.7,0-70,0c-1.7,0-2.6-0.5-2.6-1.7s0.8-1.7,2.6-1.7C39.5,83.6,51.1,83.6,62.8,83.6z"/>
	<path class="st1" d="M39.4,97.9c0.9,0,1.7,0.7,1.7,1.6c0,1-0.7,1.7-1.7,1.7c-0.8,0-1.7-0.8-1.7-1.7C37.7,98.7,38.5,98,39.4,97.9z"
		/>
	<path class="st1" d="M114.7,99.7c0,0.8-0.8,1.7-1.7,1.6c-0.9,0-1.7-0.8-1.7-1.7c0.1-0.9,0.8-1.6,1.7-1.5
		C114,98,114.7,98.8,114.7,99.7z"/>
	<path class="st1" d="M53.8,101.3c-0.9,0-1.7-0.7-1.7-1.6c0-0.9,0.7-1.7,1.6-1.7c1-0.1,1.7,0.7,1.7,1.7
		C55.4,100.5,54.7,101.3,53.8,101.3z"/>
</g>
</svg>
