<?xml version="1.0" encoding="utf-8"?>
<!-- Generator: Adobe Illustrator 24.0.2, SVG Export Plug-In . SVG Version: 6.00 Build 0)  -->
<svg version="1.1" id="Capa_1" xmlns="http://www.w3.org/2000/svg" xmlns:xlink="http://www.w3.org/1999/xlink" x="0px" y="0px"
	 viewBox="0 0 153 151" style="enable-background:new 0 0 153 151;" xml:space="preserve">
<style type="text/css">
	.st0{fill:#004C98;}
	.st1{fill:#FFFFFF;}
</style>
<circle class="st0" cx="75.3" cy="75.2" r="74.3"/>
<g>
	<path class="st1" d="M134.4,97.9c-0.2,1.1-0.4,2.1-0.6,3.2c-3.1,14.1-17.3,22.9-31.2,19.2c-0.8-0.2-1.4-0.1-2.1,0.2
		c-10.3,4.9-21.2,7.7-32.7,7.4c-11-0.3-21.3-3.3-31.1-8.2c-2.8-1.4-5.5-3.1-8.3-4.7c-0.9-0.5-1.4-1.2-1.4-2.2
		c-0.7-8.1,0.2-15.9,3.3-23.4C34.5,79,41.9,71.8,52.4,67.7c0.2-0.1,0.5-0.2,0.7-0.3c0.1,0,0.1-0.1,0.1-0.1c-1-1.5-2.1-2.9-3-4.4
		c-4.3-7.4-5.9-15.3-3.6-23.7c2.6-9.4,10.2-15.6,20-16.5c5.4-0.5,10.7,0.3,15.4,3c6.9,4,10.3,10.2,11.1,17.9
		c0.9,8.6-1.7,16.2-7,22.9c-0.2,0.2-0.3,0.4-0.5,0.7c1.1,0.5,2.3,0.9,3.3,1.4c2.4,1.3,4.7,2.7,7,4.1c0.6,0.4,1,0.5,1.7,0.1
		c15.6-7.9,34.6,2.3,36.7,19.7c0,0.3,0.1,0.6,0.2,0.9C134.4,95,134.4,96.4,134.4,97.9z M92.2,76.3c-2.7-1.9-5.6-3.3-8.6-4.4
		c-1.4-0.5-2.4-0.6-3.6,0.5c-1.1,0.9-2.4,1.6-3.7,2.2c-4.6,2.2-9.3,2.2-13.9,0c-1.6-0.8-3-1.9-4.5-2.8c-0.4-0.2-1-0.4-1.4-0.3
		c-5,1.5-9.4,3.9-13.2,7.5c-9.1,8.5-12.1,19.4-11.5,31.5c0,0.4,0.4,0.9,0.7,1.1c2.2,1.3,4.3,2.6,6.6,3.7c7.8,4,16,6.6,24.7,7.4
		c8.8,0.8,17.4-0.4,25.8-3.2c1.9-0.6,3.8-1.4,5.8-2.2C81,108.3,79.4,87.4,92.2,76.3z M88.4,46.7c-0.1-1.1-0.1-2-0.2-2.9
		c-0.8-6-3.5-10.9-8.9-13.9c-3.8-2.1-7.9-2.6-12.2-2.2c-7.4,0.7-13.3,5.5-15.4,12.6c-2.9,10.1,1.9,22.6,11,28.7
		c4.7,3.1,9.4,3.2,14-0.1C84.1,63.3,87.9,55.8,88.4,46.7z M108.9,116.1c11.3,0,20.4-9.1,20.4-20.4c0-11.3-9.2-20.5-20.4-20.5
		c-11.3,0-20.4,9.2-20.4,20.5C88.6,107,97.7,116.1,108.9,116.1z"/>
	<path class="st1" d="M106.1,99.3c1.1-1.2,2.1-2.2,3.1-3.2c2.9-3,5.9-5.9,8.9-8.8c0.5-0.5,1.1-0.9,1.7-1.1c1.1-0.3,2.1,0.3,2.7,1.2
		c0.5,1,0.5,2.1-0.3,2.9c-4.7,4.8-9.5,9.5-14.3,14.3c-1,1-2.4,1-3.4,0c-3-2.9-5.9-5.8-8.8-8.8c-1-1-0.9-2.6,0.1-3.5
		c1-0.9,2.4-1,3.5,0.1c2,2,4,4,6,5.9C105.6,98.6,105.8,98.9,106.1,99.3z"/>
</g>
</svg>
