<?xml version="1.0" encoding="utf-8"?>
<!-- Generator: Adobe Illustrator 24.0.2, SVG Export Plug-In . SVG Version: 6.00 Build 0)  -->
<svg version="1.1" id="Capa_1" xmlns="http://www.w3.org/2000/svg" xmlns:xlink="http://www.w3.org/1999/xlink" x="0px" y="0px"
	 viewBox="0 0 350 350" style="enable-background:new 0 0 350 350;" xml:space="preserve">
<style type="text/css">
	.st0{fill:#00AE81;}
	.st1{fill:#06F78A;}
	.st2{fill:#FFFFFF;}
</style>
<g>
	<g>
		
			<image style="overflow:visible;opacity:0.15;" width="280" height="280" xlink:href="2C64731C71B135ED.png"  transform="matrix(1 0 0 1 35 35)">
		</image>
		<g>
			<circle class="st0" cx="175.4" cy="175.3" r="124.5"/>
		</g>
	</g>
	<g>
		<path class="st1" d="M8.4,172.7l0-1.4l18.8,0.4l0,1.4L8.4,172.7z"/>
		<path class="st1" d="M75.9,41.2l1.1-0.8l11.2,15.2l-1.1,0.8L75.9,41.2z"/>
		<path class="st1" d="M221.4,14.8l1.3,0.4l-5.3,18.1l-1.3-0.4L221.4,14.8z"/>
		<path class="st1" d="M330.9,114.3l0.5,1.3l-17.5,6.8l-0.5-1.3L330.9,114.3z"/>
		<path class="st1" d="M318.4,261.6l-0.7,1.2l-16.1-9.8l0.7-1.2L318.4,261.6z"/>
		<path class="st1" d="M193.8,341.3l-1.4,0.1l-2-18.7l1.4-0.1L193.8,341.3z"/>
		<path class="st1" d="M54.9,290.9l-1-1l13.6-13l1,1L54.9,290.9z"/>
	</g>
	<g>
		<path class="st1" d="M38.5,235.9l-0.4-0.8l11.4-5l0.4,0.8L38.5,235.9z"/>
		<path class="st1" d="M44.5,102.7l0.4-0.8l10.8,6.1l-0.4,0.8L44.5,102.7z"/>
		<path class="st1" d="M154.4,27.1l0.9-0.1l1.7,12.3l-0.9,0.1L154.4,27.1z"/>
		<path class="st1" d="M281,69.1l0.6,0.6l-8.8,8.8l-0.6-0.6L281,69.1z"/>
		<path class="st1" d="M323.8,195.5l-0.1,0.9l-12.3-1.7l0.1-0.9L323.8,195.5z"/>
		<path class="st1" d="M248.8,305.8l-0.8,0.4l-6-10.8l0.8-0.4L248.8,305.8z"/>
		<path class="st1" d="M115.7,312.6l-0.8-0.4l5-11.4l0.8,0.4L115.7,312.6z"/>
	</g>
	<path class="st2" d="M155.5,228.8l-40.1-40.1c-2.4-2.4-2.4-6.3,0-8.7l8.7-8.7c2.4-2.4,6.3-2.4,8.7,0l27,27l57.8-57.8
		c2.4-2.4,6.3-2.4,8.7,0l8.7,8.7c2.4,2.4,2.4,6.3,0,8.7l-70.9,70.9C161.8,231.2,157.9,231.2,155.5,228.8L155.5,228.8z"/>
</g>
</svg>
