<svg width="90" height="46" viewBox="0 0 90 46" fill="none" xmlns="http://www.w3.org/2000/svg">
<g clip-path="url(#clip0_306_506)">
<path d="M0 22.3567V1.46851C-1.05305e-06 1.31536 0.0608446 1.16844 0.16921 1.05995C0.277575 0.951453 0.424628 0.890216 0.578164 0.889648H4.9477C5.02381 0.889648 5.09917 0.904636 5.16945 0.933753C5.23974 0.96287 5.30357 1.00554 5.35729 1.05932C5.411 1.1131 5.45354 1.17693 5.48247 1.24715C5.5114 1.31737 5.52615 1.39259 5.52586 1.46851V9.04513C5.52643 9.19828 5.58782 9.34496 5.69659 9.45306C5.80536 9.56115 5.95264 9.62185 6.10618 9.62185H13.5922C13.7455 9.62185 13.8926 9.56108 14.001 9.45293C14.1095 9.34477 14.1704 9.19809 14.1704 9.04513V1.46851C14.1701 1.39259 14.1848 1.31737 14.2138 1.24715C14.2427 1.17693 14.2852 1.1131 14.3389 1.05932C14.3927 1.00554 14.4565 0.96287 14.5268 0.933753C14.5971 0.904636 14.6724 0.889648 14.7485 0.889648H19.1181C19.1942 0.889648 19.2695 0.904636 19.3398 0.933753C19.4101 0.96287 19.4739 1.00554 19.5277 1.05932C19.5814 1.1131 19.6239 1.17693 19.6528 1.24715C19.6818 1.31737 19.6965 1.39259 19.6962 1.46851V22.3567C19.6965 22.4326 19.6818 22.5077 19.6528 22.5778C19.6238 22.6479 19.5813 22.7116 19.5275 22.7652C19.4738 22.8188 19.4099 22.8613 19.3397 22.8901C19.2694 22.919 19.1941 22.9337 19.1181 22.9335H14.755C14.679 22.9337 14.6037 22.919 14.5334 22.8901C14.4631 22.8613 14.3993 22.8188 14.3455 22.7652C14.2918 22.7116 14.2492 22.6479 14.2202 22.5778C14.1913 22.5077 14.1765 22.4326 14.1768 22.3567V14.7866C14.1771 14.7102 14.1621 14.6345 14.1328 14.564C14.1034 14.4935 14.0603 14.4295 14.0058 14.3758C13.9514 14.3221 13.8868 14.2798 13.8158 14.2513C13.7448 14.2228 13.6688 14.2087 13.5922 14.2098H6.10618C6.03007 14.2096 5.95466 14.2243 5.88426 14.2531C5.81387 14.282 5.74988 14.3244 5.69596 14.378C5.64205 14.4316 5.59927 14.4952 5.57008 14.5654C5.54089 14.6355 5.52586 14.7106 5.52586 14.7866V22.3567C5.52615 22.4326 5.51139 22.5077 5.48243 22.5778C5.45348 22.6479 5.4109 22.7116 5.35716 22.7652C5.30341 22.8188 5.23956 22.8613 5.16929 22.8901C5.09901 22.919 5.02371 22.9337 4.9477 22.9335H0.578164C0.424825 22.9335 0.277768 22.8727 0.169341 22.7645C0.0609145 22.6564 0 22.5097 0 22.3567V22.3567Z" fill="#011E13"/>
<path d="M28.2848 23.2829C27.3005 23.2929 26.3242 23.1062 25.4133 22.734C24.5574 22.3899 23.823 21.8006 23.3027 21.0403C22.7754 20.2742 22.5125 19.3209 22.5139 18.1803C22.5139 16.5152 23.0799 15.2088 24.2119 14.2612C25.3438 13.3136 27.0432 12.8398 29.31 12.8398H33.8408V12.4625C33.8408 11.6406 33.5664 11.0532 33.0176 10.7002C32.4688 10.3471 31.4386 10.1699 29.9269 10.1685C28.3289 10.1697 26.7384 10.386 25.1984 10.8117C25.113 10.8344 25.0235 10.8373 24.9369 10.8199C24.8502 10.8025 24.7688 10.7654 24.6989 10.7114C24.629 10.6574 24.5725 10.5881 24.5339 10.5088C24.4953 10.4295 24.4756 10.3424 24.4762 10.2542V7.86377C24.4773 7.74361 24.5154 7.62669 24.5854 7.52888C24.6554 7.43107 24.7538 7.35712 24.8674 7.31707C25.6966 7.03591 26.5468 6.82084 27.41 6.67389C28.6167 6.46565 29.8393 6.36307 31.0639 6.36731C33.58 6.36731 35.5538 6.88042 36.9852 7.90665C38.4166 8.93287 39.1331 10.5651 39.1345 12.8034V22.3567C39.1348 22.4325 39.12 22.5076 39.0911 22.5777C39.0621 22.6478 39.0195 22.7115 38.9658 22.7651C38.912 22.8187 38.8482 22.8612 38.7779 22.8901C38.7076 22.919 38.6323 22.9337 38.5563 22.9334H34.765C34.6313 22.9335 34.5017 22.8875 34.3983 22.803C34.2948 22.7186 34.2239 22.601 34.1975 22.4703V22.4703C34.1792 22.3784 34.1387 22.2924 34.0794 22.2198C34.0201 22.1471 33.9439 22.09 33.8575 22.0534C33.771 22.0169 33.6769 22.0019 33.5833 22.01C33.4898 22.018 33.3996 22.0487 33.3206 22.0994C32.8264 22.4115 32.293 22.6573 31.7344 22.8305C30.6146 23.1566 29.4511 23.3092 28.2848 23.2829V23.2829ZM30.0343 19.8933C30.8102 19.9109 31.5806 19.7587 32.2911 19.4474C32.8119 19.2167 33.2844 18.8901 33.6839 18.4848C33.7836 18.3785 33.8383 18.2379 33.8365 18.0924V16.5917C33.8359 16.4389 33.7748 16.2925 33.6665 16.1845C33.5582 16.0765 33.4115 16.0155 33.2583 16.015H29.9269C28.302 16.015 27.4896 16.666 27.4896 17.9681C27.4767 18.2337 27.526 18.4986 27.6334 18.7419C27.7408 18.9852 27.9035 19.2003 28.1086 19.3702C28.5227 19.7189 29.1646 19.8933 30.0343 19.8933Z" fill="#011E13"/>
<path d="M42.4595 29.7598V7.28721C42.4592 7.21119 42.4739 7.13586 42.5028 7.06553C42.5317 6.99519 42.5742 6.93122 42.6279 6.87726C42.6816 6.82331 42.7454 6.78044 42.8157 6.75109C42.886 6.72174 42.9614 6.70649 43.0376 6.70621H46.7882C46.9225 6.70627 47.0525 6.75294 47.1561 6.83822C47.2596 6.92351 47.3301 7.04207 47.3556 7.17358L47.3663 7.21861C47.3837 7.31042 47.4231 7.39664 47.4814 7.4698C47.5397 7.54296 47.6149 7.60084 47.7007 7.63843C47.7864 7.67602 47.8801 7.69219 47.9735 7.68553C48.0669 7.67887 48.1573 7.64959 48.2368 7.60022C48.7181 7.28652 49.2328 7.02695 49.7714 6.82626C50.6969 6.50239 51.673 6.34629 52.6536 6.36532C54.9663 6.36532 56.7975 6.98706 58.1473 8.23053C59.497 9.47401 60.1719 11.5572 60.1719 14.4801C60.1719 17.3787 59.4798 19.5697 58.0957 21.0533C56.7115 22.5369 54.8065 23.2787 52.3807 23.2787C51.1472 23.3027 49.9217 23.0766 48.7784 22.6141C48.6907 22.5785 48.5955 22.565 48.5012 22.5749C48.407 22.5847 48.3167 22.6176 48.2383 22.6706C48.1598 22.7236 48.0957 22.7951 48.0516 22.8788C48.0075 22.9624 47.9847 23.0556 47.9853 23.1501V29.7555C47.9853 29.9085 47.9244 30.0552 47.816 30.1633C47.7076 30.2715 47.5605 30.3322 47.4072 30.3322H43.0376C42.8852 30.3317 42.7391 30.2713 42.6309 30.1642C42.5228 30.0571 42.4612 29.9118 42.4595 29.7598V29.7598ZM50.9729 19.2417C53.3514 19.2417 54.5414 17.6216 54.5429 14.3814C54.5429 12.8292 54.2678 11.7787 53.7175 11.2299C53.1673 10.681 52.2868 10.4073 51.076 10.4088C50.0199 10.4045 48.9975 10.7797 48.196 11.4657C48.1328 11.5202 48.0822 11.5877 48.0477 11.6636C48.0132 11.7395 47.9956 11.8219 47.9961 11.9052V17.9082C47.9956 18.0018 48.0181 18.0941 48.0616 18.177C48.105 18.26 48.1681 18.3311 48.2454 18.3842C48.5828 18.6134 48.9429 18.8073 49.3201 18.963C49.8481 19.1602 50.4092 19.2548 50.9729 19.2417V19.2417Z" fill="#66C4A7"/>
<path d="M63.8452 22.3566V11.3626C63.8452 11.2096 63.7843 11.0629 63.6759 10.9548C63.5675 10.8466 63.4204 10.7859 63.2671 10.7859H62.0914C62.0099 10.7858 61.9293 10.7685 61.8549 10.7352C61.7806 10.7019 61.7141 10.6533 61.6599 10.5926C61.6058 10.5318 61.5651 10.4603 61.5405 10.3828C61.516 10.3053 61.5081 10.2234 61.5175 10.1427L61.8614 7.22266C61.8782 7.08205 61.9461 6.95247 62.0523 6.85844C62.1584 6.76441 62.2955 6.71245 62.4374 6.7124H68.7929C68.9461 6.71297 69.0928 6.77391 69.2011 6.88194C69.3094 6.98998 69.3705 7.13634 69.3711 7.28912V22.3566C69.3711 22.5096 69.3102 22.6563 69.2017 22.7644C69.0933 22.8726 68.9463 22.9333 68.7929 22.9333H64.4234C64.3474 22.9336 64.2721 22.9189 64.2018 22.89C64.1315 22.8611 64.0677 22.8186 64.0139 22.765C63.9602 22.7114 63.9176 22.6477 63.8887 22.5776C63.8597 22.5075 63.8449 22.4324 63.8452 22.3566V22.3566Z" fill="#66C4A7"/>
<path d="M68.8271 0H63.9761C63.6568 0 63.3979 0.258204 63.3979 0.576715V3.56534C63.3979 3.88385 63.6568 4.14206 63.9761 4.14206H68.8271C69.1464 4.14206 69.4053 3.88385 69.4053 3.56534V0.576715C69.4053 0.258204 69.1464 0 68.8271 0Z" fill="#011E13"/>
<path d="M72.7475 22.0158L78.0326 15.0352C78.1079 14.935 78.1487 14.8131 78.1487 14.6879C78.1487 14.5626 78.1079 14.4408 78.0326 14.3406L72.9839 7.63437C72.9191 7.54872 72.8796 7.44676 72.8697 7.33992C72.8599 7.23309 72.8801 7.12562 72.9281 7.02962C72.9761 6.93362 73.05 6.85288 73.1415 6.79648C73.233 6.74007 73.3384 6.71024 73.446 6.71034H78.0025C78.0931 6.71042 78.1825 6.7316 78.2634 6.77216C78.3444 6.81273 78.4147 6.87157 78.4689 6.94403L80.8503 10.1599C80.9041 10.2326 80.9742 10.2917 81.055 10.3324C81.1358 10.3731 81.2251 10.3944 81.3157 10.3944C81.4062 10.3944 81.4955 10.3731 81.5763 10.3324C81.6572 10.2917 81.7273 10.2326 81.781 10.1599L84.1624 6.94403C84.2159 6.87107 84.2857 6.81158 84.3663 6.77027C84.4469 6.72895 84.5361 6.70697 84.6267 6.70605H89.1854C89.2929 6.70595 89.3984 6.73578 89.4898 6.79218C89.5813 6.84859 89.6552 6.92933 89.7033 7.02533C89.7513 7.12134 89.7715 7.2288 89.7616 7.33563C89.7518 7.44246 89.7122 7.54444 89.6474 7.63008L84.5987 14.3363C84.5231 14.4363 84.4821 14.5583 84.4821 14.6836C84.4821 14.8089 84.5231 14.9308 84.5987 15.0309L89.8925 22.0158C89.9572 22.1015 89.9968 22.2034 90.0066 22.3103C90.0165 22.4171 89.9963 22.5246 89.9483 22.6206C89.9003 22.7166 89.8264 22.7973 89.7349 22.8537C89.6434 22.9101 89.5379 22.9399 89.4304 22.9398H84.8309C84.7412 22.9403 84.6527 22.9197 84.5725 22.8799C84.4923 22.84 84.4225 22.782 84.3688 22.7104L81.7767 19.2802C81.7228 19.2087 81.653 19.1507 81.5728 19.1108C81.4926 19.0708 81.4042 19.05 81.3146 19.05C81.225 19.05 81.1366 19.0708 81.0564 19.1108C80.9762 19.1507 80.9064 19.2087 80.8525 19.2802L78.2626 22.7104C78.2086 22.7818 78.1388 22.8396 78.0586 22.8794C77.9784 22.9192 77.8901 22.9399 77.8005 22.9398H73.2096C73.102 22.9399 72.9966 22.9101 72.9051 22.8537C72.8136 22.7973 72.7397 22.7166 72.6917 22.6206C72.6436 22.5246 72.6234 22.4171 72.6333 22.3103C72.6432 22.2034 72.6827 22.1015 72.7475 22.0158V22.0158Z" fill="#66C4A7"/>
<path d="M79.7565 36.2303C79.6936 36.4112 79.5757 36.568 79.4194 36.679C79.263 36.7901 79.0758 36.8498 78.8839 36.8499C78.7793 36.8497 78.6755 36.8323 78.5765 36.7984C77.4798 36.423 76.4831 35.8035 75.6621 34.9868C66.1063 42.0617 55.3834 45.6442 43.7793 45.6442C43.4977 45.6442 43.2183 45.6442 42.9368 45.6442C23.3931 45.3527 10.7832 35.1862 10.2544 34.7531C10.0777 34.5938 9.9693 34.3727 9.95174 34.1357C9.93418 33.8987 10.0088 33.6641 10.1602 33.4806C10.3115 33.2971 10.5279 33.1788 10.7644 33.1502C11.0009 33.1217 11.2393 33.1852 11.4301 33.3274C11.5806 33.4518 24.111 43.5153 42.9647 43.7962C54.457 43.9634 65.0746 40.516 74.5122 33.5375C73.8324 32.4315 73.3978 31.1932 73.2377 29.9057C73.2221 29.7825 73.2316 29.6575 73.2656 29.5381C73.2995 29.4187 73.3572 29.3073 73.4353 29.2106C73.5133 29.114 73.6101 29.034 73.7199 28.9754C73.8296 28.9169 73.95 28.881 74.074 28.8699C74.1979 28.8588 74.3228 28.8727 74.4412 28.9109C74.5597 28.949 74.6692 29.0105 74.7632 29.0918C74.8573 29.173 74.934 29.2724 74.9887 29.3839C75.0434 29.4953 75.0751 29.6167 75.0818 29.7406C75.1011 29.9057 75.5116 33.7691 79.1913 35.0575C79.4215 35.1392 79.61 35.3082 79.7159 35.5278C79.8218 35.7475 79.8364 35.9999 79.7565 36.2303V36.2303Z" fill="#011E13"/>
<path d="M43.7792 46C43.4955 46 43.2139 46 42.9302 46C23.2447 45.7084 10.5595 35.4669 10.0286 35.0296C9.87591 34.9311 9.7458 34.8015 9.64684 34.6493C9.54788 34.4971 9.48231 34.3257 9.45444 34.1465C9.42657 33.9672 9.43703 33.7841 9.48512 33.6091C9.53322 33.4342 9.61787 33.2714 9.73351 33.1313C9.84916 32.9913 9.99318 32.8773 10.1561 32.7968C10.3191 32.7162 10.4973 32.6709 10.679 32.6639C10.8607 32.6569 11.0419 32.6883 11.2106 32.7561C11.3793 32.8239 11.5317 32.9265 11.6578 33.0572C11.7803 33.1579 24.156 43.1636 42.9689 43.4423C54.2936 43.6095 64.7371 40.2457 74.0435 33.4431C73.4287 32.3624 73.0342 31.1711 72.8829 29.9377C72.8548 29.6001 72.9614 29.2651 73.1795 29.0053C73.3976 28.7456 73.7097 28.5822 74.0478 28.5506C74.3856 28.5232 74.7207 28.6295 74.9805 28.8465C75.2404 29.0636 75.4041 29.374 75.4363 29.7105C75.4793 30.0964 75.9586 33.5524 79.305 34.7251C79.5824 34.8327 79.814 35.0326 79.9605 35.291C80.1069 35.5494 80.1593 35.8503 80.1087 36.1429C80.0581 36.4354 79.9076 36.7014 79.6828 36.8959C79.458 37.0904 79.1726 37.2014 78.8752 37.2099C78.7291 37.2107 78.5839 37.1875 78.4453 37.1413C77.3964 36.7806 76.4334 36.2077 75.6168 35.4583C66.0761 42.4497 55.3618 46 43.7792 46ZM10.8432 33.4666H10.7852C10.7105 33.4747 10.6382 33.4979 10.5728 33.5347C10.5074 33.5716 10.4502 33.6214 10.4048 33.681C10.3553 33.7401 10.3183 33.8085 10.2962 33.8822C10.274 33.9559 10.2671 34.0334 10.2758 34.1098C10.2839 34.1843 10.3071 34.2564 10.3441 34.3217C10.381 34.3869 10.4309 34.444 10.4907 34.4893C11.0152 34.9181 23.5134 45.0117 42.9452 45.299C43.2247 45.299 43.5019 45.299 43.7813 45.299C55.3059 45.299 65.9622 41.7358 75.4513 34.7123L75.6985 34.5279L75.9134 34.7423C76.6973 35.5205 77.6483 36.1107 78.6946 36.4681C78.7557 36.4882 78.8195 36.4983 78.8838 36.4982C79.0018 36.4985 79.1169 36.4621 79.2132 36.3941C79.3096 36.3261 79.3822 36.2298 79.4211 36.1187V36.1187C79.4707 35.9765 79.4619 35.8205 79.3967 35.6848C79.3315 35.549 79.2151 35.4445 79.0729 35.394C75.3138 34.0777 74.7743 30.2207 74.7292 29.7855C74.7231 29.7111 74.7024 29.6385 74.6682 29.572C74.634 29.5056 74.5871 29.4464 74.53 29.3981C74.4729 29.3497 74.4068 29.313 74.3355 29.2901C74.2642 29.2672 74.1891 29.2585 74.1145 29.2646C74.0398 29.2706 73.9671 29.2913 73.9004 29.3254C73.8338 29.3595 73.7745 29.4063 73.726 29.4632C73.6775 29.5202 73.6407 29.5861 73.6178 29.6572C73.5948 29.7283 73.5861 29.8033 73.5922 29.8777C73.744 31.1105 74.1612 32.296 74.8151 33.353L74.9871 33.6296L74.7249 33.8247C65.2271 40.8482 54.5214 44.3128 42.9581 44.152C23.8616 43.869 11.329 33.7068 11.2043 33.6039C11.104 33.5169 10.9761 33.4683 10.8432 33.4666V33.4666Z" fill="#011E13"/>
</g>
<defs>
<clipPath id="clip0_306_506">
<rect width="90" height="46" fill="white"/>
</clipPath>
</defs>
</svg>
