<svg width="350" height="350" viewBox="0 0 350 350" fill="none" xmlns="http://www.w3.org/2000/svg">
<rect width="350" height="350" rx="50" fill="#0028B4"/>
<path d="M293.909 174.501C293.163 176.504 291.677 178.143 289.759 179.075C287.842 180.008 285.64 180.163 283.611 179.509C280.736 178.537 278.027 177.126 275.581 175.325C244.577 197.4 209.968 208.609 172.687 208.609H169.843C104.708 207.625 62.682 173.467 60.9288 172.015C60.0958 171.338 59.4063 170.501 58.901 169.552C58.3957 168.603 58.0847 167.562 57.9866 166.491C57.7744 164.329 58.4221 162.17 59.7887 160.486C61.1767 158.823 63.1556 157.768 65.3055 157.545C66.3672 157.427 67.4416 157.522 68.4665 157.824C69.4914 158.126 70.4464 158.629 71.2759 159.305C71.6437 159.612 111.193 191.297 170.1 192.232C204.266 192.875 237.723 182.412 265.479 162.405C264.121 159.299 263.237 156.006 262.856 152.636C262.756 151.564 262.868 150.482 263.185 149.454C263.503 148.426 264.02 147.47 264.707 146.643C266.115 144.985 268.111 143.943 270.273 143.739C272.415 143.552 274.544 144.225 276.194 145.61C277.841 147.02 278.875 149.02 279.075 151.184C279.185 152.07 280.424 161.027 288.883 164.054C290.93 164.785 292.611 166.291 293.566 168.25C294.03 169.218 294.3 170.269 294.359 171.341C294.417 172.414 294.265 173.488 293.909 174.501V174.501Z" fill="#F5F5F5"/>
</svg>
