<svg width="90" height="47" viewBox="0 0 90 47" fill="none" xmlns="http://www.w3.org/2000/svg">
<g clip-path="url(#clip0_305_260)">
<path d="M0 22.5462V1.65796C-1.05305e-06 1.50481 0.0608446 1.3579 0.16921 1.2494C0.277575 1.14091 0.424628 1.07967 0.578164 1.0791H4.9477C5.02381 1.0791 5.09917 1.09409 5.16945 1.12321C5.23974 1.15232 5.30357 1.19499 5.35729 1.24877C5.411 1.30255 5.45354 1.36639 5.48247 1.4366C5.5114 1.50682 5.52615 1.58205 5.52586 1.65796V9.23458C5.52643 9.38774 5.58782 9.53442 5.69659 9.64251C5.80536 9.7506 5.95264 9.8113 6.10618 9.8113H13.5922C13.7455 9.8113 13.8926 9.75053 14.001 9.64238C14.1095 9.53422 14.1704 9.38754 14.1704 9.23458V1.65796C14.1701 1.58205 14.1848 1.50682 14.2138 1.4366C14.2427 1.36639 14.2852 1.30255 14.3389 1.24877C14.3927 1.19499 14.4565 1.15232 14.5268 1.12321C14.5971 1.09409 14.6724 1.0791 14.7485 1.0791H19.1181C19.1942 1.0791 19.2695 1.09409 19.3398 1.12321C19.4101 1.15232 19.4739 1.19499 19.5277 1.24877C19.5814 1.30255 19.6239 1.36639 19.6528 1.4366C19.6818 1.50682 19.6965 1.58205 19.6962 1.65796V22.5462C19.6965 22.622 19.6818 22.6971 19.6528 22.7672C19.6238 22.8373 19.5813 22.901 19.5275 22.9546C19.4738 23.0082 19.4099 23.0507 19.3397 23.0796C19.2694 23.1085 19.1941 23.1232 19.1181 23.1229H14.755C14.679 23.1232 14.6037 23.1085 14.5334 23.0796C14.4631 23.0507 14.3993 23.0082 14.3455 22.9546C14.2918 22.901 14.2492 22.8373 14.2202 22.7672C14.1913 22.6971 14.1765 22.622 14.1768 22.5462V14.976C14.1771 14.8996 14.1621 14.824 14.1328 14.7535C14.1034 14.6829 14.0603 14.619 14.0058 14.5653C13.9514 14.5116 13.8868 14.4692 13.8158 14.4407C13.7448 14.4122 13.6688 14.3982 13.5922 14.3993H6.10618C6.03007 14.399 5.95466 14.4137 5.88426 14.4426C5.81387 14.4714 5.74988 14.5139 5.69596 14.5674C5.64205 14.621 5.59927 14.6847 5.57008 14.7548C5.54089 14.8249 5.52586 14.9001 5.52586 14.976V22.5462C5.52615 22.622 5.51139 22.6971 5.48243 22.7672C5.45348 22.8373 5.4109 22.901 5.35716 22.9546C5.30341 23.0082 5.23956 23.0507 5.16929 23.0796C5.09901 23.1085 5.02371 23.1232 4.9477 23.1229H0.578164C0.424825 23.1229 0.277768 23.0622 0.169341 22.954C0.0609145 22.8458 0 22.6992 0 22.5462V22.5462Z" fill="#66C4A7"/>
<path d="M28.2848 23.4723C27.3005 23.4823 26.3242 23.2957 25.4133 22.9235C24.5574 22.5794 23.823 21.99 23.3027 21.2298C22.7754 20.4637 22.5125 19.5103 22.5139 18.3698C22.5139 16.7047 23.0799 15.3983 24.2119 14.4507C25.3438 13.5031 27.0432 13.0293 29.31 13.0293H33.8408V12.6519C33.8408 11.8301 33.5664 11.2427 33.0176 10.8896C32.4688 10.5366 31.4386 10.3594 29.9269 10.3579C28.3289 10.3592 26.7384 10.5755 25.1984 11.0011C25.113 11.0239 25.0235 11.0267 24.9369 11.0093C24.8502 10.9919 24.7688 10.9548 24.6989 10.9009C24.629 10.8469 24.5725 10.7776 24.5339 10.6983C24.4953 10.619 24.4756 10.5319 24.4762 10.4437V8.05322C24.4773 7.93306 24.5154 7.81614 24.5854 7.71833C24.6554 7.62052 24.7538 7.54657 24.8674 7.50652C25.6966 7.22536 26.5468 7.0103 27.41 6.86335C28.6167 6.65511 29.8393 6.55253 31.0639 6.55677C33.58 6.55677 35.5538 7.06988 36.9852 8.0961C38.4166 9.12233 39.1331 10.7546 39.1345 12.9928V22.5461C39.1348 22.622 39.12 22.6971 39.0911 22.7672C39.0621 22.8373 39.0195 22.901 38.9658 22.9546C38.912 23.0082 38.8482 23.0506 38.7779 23.0795C38.7076 23.1084 38.6323 23.1231 38.5563 23.1229H34.765C34.6313 23.123 34.5017 23.0769 34.3983 22.9925C34.2948 22.9081 34.2239 22.7905 34.1975 22.6598V22.6598C34.1792 22.5679 34.1387 22.4819 34.0794 22.4092C34.0201 22.3366 33.9439 22.2795 33.8575 22.2429C33.771 22.2063 33.6769 22.1914 33.5833 22.1994C33.4898 22.2074 33.3996 22.2381 33.3206 22.2889C32.8264 22.601 32.293 22.8468 31.7344 23.0199C30.6146 23.346 29.4511 23.4986 28.2848 23.4723V23.4723ZM30.0343 20.0828C30.8102 20.1004 31.5806 19.9482 32.2911 19.6368C32.8119 19.4061 33.2844 19.0796 33.6839 18.6742C33.7836 18.568 33.8383 18.4274 33.8365 18.2819V16.7811C33.8359 16.6283 33.7748 16.482 33.6665 16.374C33.5582 16.2659 33.4115 16.205 33.2583 16.2044H29.9269C28.302 16.2044 27.4896 16.8555 27.4896 18.1575C27.4767 18.4231 27.526 18.688 27.6334 18.9314C27.7408 19.1747 27.9035 19.3898 28.1086 19.5597C28.5227 19.9084 29.1646 20.0828 30.0343 20.0828Z" fill="#66C4A7"/>
<path d="M42.4595 29.9493V7.47666C42.4592 7.40064 42.4739 7.32532 42.5028 7.25498C42.5317 7.18464 42.5742 7.12067 42.6279 7.06672C42.6816 7.01277 42.7454 6.96989 42.8157 6.94054C42.886 6.91119 42.9614 6.89594 43.0376 6.89566H46.7882C46.9225 6.89572 47.0525 6.9424 47.1561 7.02768C47.2596 7.11296 47.3301 7.23152 47.3556 7.36303L47.3663 7.40806C47.3837 7.49988 47.4231 7.5861 47.4814 7.65925C47.5397 7.73241 47.6149 7.79029 47.7007 7.82788C47.7864 7.86547 47.8801 7.88164 47.9735 7.87498C48.0669 7.86832 48.1573 7.83905 48.2368 7.78968C48.7181 7.47597 49.2328 7.2164 49.7714 7.01572C50.6969 6.69185 51.673 6.53574 52.6536 6.55478C54.9663 6.55478 56.7975 7.17651 58.1473 8.41998C59.497 9.66346 60.1719 11.7466 60.1719 14.6695C60.1719 17.5681 59.4798 19.7592 58.0957 21.2428C56.7115 22.7264 54.8065 23.4682 52.3807 23.4682C51.1472 23.4922 49.9217 23.2661 48.7784 22.8036C48.6907 22.7679 48.5955 22.7545 48.5012 22.7643C48.407 22.7742 48.3167 22.8071 48.2383 22.8601C48.1598 22.9131 48.0957 22.9846 48.0516 23.0682C48.0075 23.1518 47.9847 23.245 47.9853 23.3395V29.945C47.9853 30.0979 47.9244 30.2446 47.816 30.3528C47.7076 30.4609 47.5605 30.5217 47.4072 30.5217H43.0376C42.8852 30.5211 42.7391 30.4608 42.6309 30.3537C42.5228 30.2466 42.4612 30.1013 42.4595 29.9493V29.9493ZM50.9729 19.4312C53.3514 19.4312 54.5414 17.8111 54.5429 14.5709C54.5429 13.0187 54.2678 11.9682 53.7175 11.4193C53.1673 10.8705 52.2868 10.5968 51.076 10.5982C50.0199 10.5939 48.9975 10.9691 48.196 11.6552C48.1328 11.7097 48.0822 11.7772 48.0477 11.8531C48.0132 11.9289 47.9956 12.0114 47.9961 12.0947V18.0977C47.9956 18.1912 48.0181 18.2835 48.0616 18.3665C48.105 18.4494 48.1681 18.5205 48.2454 18.5736C48.5828 18.8028 48.9429 18.9968 49.3201 19.1525C49.8481 19.3497 50.4092 19.4443 50.9729 19.4312V19.4312Z" fill="#F3FFFB"/>
<path d="M63.8452 22.5461V11.552C63.8452 11.3991 63.7843 11.2524 63.6759 11.1442C63.5675 11.0361 63.4204 10.9753 63.2671 10.9753H62.0914C62.0099 10.9752 61.9293 10.958 61.8549 10.9247C61.7806 10.8914 61.7141 10.8427 61.6599 10.782C61.6058 10.7213 61.5651 10.6498 61.5405 10.5723C61.516 10.4947 61.5081 10.4129 61.5175 10.3321L61.8614 7.41211C61.8782 7.2715 61.9461 7.14192 62.0523 7.04789C62.1584 6.95386 62.2955 6.90191 62.4374 6.90186H68.7929C68.9461 6.90242 69.0928 6.96336 69.2011 7.0714C69.3094 7.17943 69.3705 7.32579 69.3711 7.47857V22.5461C69.3711 22.699 69.3102 22.8457 69.2017 22.9539C69.0933 23.062 68.9463 23.1228 68.7929 23.1228H64.4234C64.3474 23.1231 64.2721 23.1083 64.2018 23.0794C64.1315 23.0506 64.0677 23.0081 64.0139 22.9545C63.9602 22.9009 63.9176 22.8372 63.8887 22.7671C63.8597 22.697 63.8449 22.6219 63.8452 22.5461V22.5461Z" fill="#F3FFFB"/>
<path d="M68.8271 0.189453H63.9761C63.6568 0.189453 63.3979 0.447657 63.3979 0.766168V3.7548C63.3979 4.07331 63.6568 4.33151 63.9761 4.33151H68.8271C69.1464 4.33151 69.4053 4.07331 69.4053 3.7548V0.766168C69.4053 0.447657 69.1464 0.189453 68.8271 0.189453Z" fill="#66C4A7"/>
<path d="M72.7475 22.2053L78.0326 15.2246C78.1079 15.1244 78.1487 15.0026 78.1487 14.8773C78.1487 14.7521 78.1079 14.6302 78.0326 14.53L72.9839 7.82382C72.9191 7.73818 72.8796 7.63621 72.8697 7.52937C72.8599 7.42254 72.8801 7.31508 72.9281 7.21907C72.9761 7.12307 73.05 7.04233 73.1415 6.98593C73.233 6.92953 73.3384 6.89969 73.446 6.89979H78.0025C78.0931 6.89988 78.1825 6.92105 78.2634 6.96162C78.3444 7.00218 78.4147 7.06103 78.4689 7.13348L80.8503 10.3494C80.9041 10.4221 80.9742 10.4812 81.055 10.5219C81.1358 10.5626 81.2251 10.5838 81.3157 10.5838C81.4062 10.5838 81.4955 10.5626 81.5763 10.5219C81.6572 10.4812 81.7273 10.4221 81.781 10.3494L84.1624 7.13348C84.2159 7.06053 84.2857 7.00103 84.3663 6.95972C84.4469 6.91841 84.5361 6.89642 84.6267 6.89551H89.1854C89.2929 6.89541 89.3984 6.92523 89.4898 6.98164C89.5813 7.03804 89.6552 7.11878 89.7033 7.21479C89.7513 7.31079 89.7715 7.41825 89.7616 7.52508C89.7518 7.63192 89.7122 7.73389 89.6474 7.81954L84.5987 14.5257C84.5231 14.6258 84.4821 14.7477 84.4821 14.873C84.4821 14.9984 84.5231 15.1203 84.5987 15.2204L89.8925 22.2053C89.9572 22.2909 89.9968 22.3929 90.0066 22.4997C90.0165 22.6065 89.9963 22.714 89.9483 22.81C89.9003 22.906 89.8264 22.9868 89.7349 23.0432C89.6434 23.0996 89.5379 23.1294 89.4304 23.1293H84.8309C84.7412 23.1297 84.6527 23.1092 84.5725 23.0693C84.4923 23.0295 84.4225 22.9715 84.3688 22.8999L81.7767 19.4696C81.7228 19.3981 81.653 19.3402 81.5728 19.3002C81.4926 19.2603 81.4042 19.2395 81.3146 19.2395C81.225 19.2395 81.1366 19.2603 81.0564 19.3002C80.9762 19.3402 80.9064 19.3981 80.8525 19.4696L78.2626 22.8999C78.2086 22.9712 78.1388 23.0291 78.0586 23.0689C77.9784 23.1087 77.8901 23.1294 77.8005 23.1293H73.2096C73.102 23.1294 72.9966 23.0996 72.9051 23.0432C72.8136 22.9868 72.7397 22.906 72.6917 22.81C72.6436 22.714 72.6234 22.6065 72.6333 22.4997C72.6432 22.3929 72.6827 22.2909 72.7475 22.2053V22.2053Z" fill="#F3FFFB"/>
<path d="M79.7565 36.4197C79.6936 36.6006 79.5757 36.7574 79.4194 36.8685C79.263 36.9795 79.0758 37.0392 78.8839 37.0393C78.7793 37.0392 78.6755 37.0218 78.5765 36.9879C77.4798 36.6125 76.4831 35.9929 75.6621 35.1763C66.1063 42.2512 55.3834 45.8337 43.7793 45.8337C43.4977 45.8337 43.2183 45.8337 42.9368 45.8337C23.3931 45.5421 10.7832 35.3756 10.2544 34.9426C10.0777 34.7832 9.9693 34.5621 9.95174 34.3251C9.93418 34.0882 10.0088 33.8536 10.1602 33.67C10.3115 33.4865 10.5279 33.3682 10.7644 33.3397C11.0009 33.3112 11.2393 33.3746 11.4301 33.5169C11.5806 33.6412 24.111 43.7048 42.9647 43.9856C54.457 44.1529 65.0746 40.7054 74.5122 33.727C73.8324 32.621 73.3978 31.3826 73.2377 30.0952C73.2221 29.972 73.2316 29.847 73.2656 29.7276C73.2995 29.6081 73.3572 29.4968 73.4353 29.4001C73.5133 29.3034 73.6101 29.2234 73.7199 29.1649C73.8296 29.1063 73.95 29.0705 74.074 29.0594C74.1979 29.0483 74.3228 29.0622 74.4412 29.1003C74.5597 29.1384 74.6692 29.2 74.7632 29.2812C74.8573 29.3625 74.934 29.4618 74.9887 29.5733C75.0434 29.6848 75.0751 29.8061 75.0818 29.9301C75.1011 30.0952 75.5116 33.9585 79.1913 35.247C79.4215 35.3286 79.61 35.4976 79.7159 35.7173C79.8218 35.9369 79.8364 36.1894 79.7565 36.4197V36.4197Z" fill="#59C9A8"/>
<path d="M43.7792 46.1895C43.4955 46.1895 43.2139 46.1895 42.9302 46.1895C23.2447 45.8979 10.5595 35.6564 10.0286 35.219C9.87591 35.1205 9.7458 34.9909 9.64684 34.8387C9.54788 34.6865 9.48231 34.5152 9.45444 34.3359C9.42657 34.1566 9.43703 33.9735 9.48512 33.7986C9.53322 33.6236 9.61787 33.4608 9.73351 33.3208C9.84916 33.1808 9.99318 33.0668 10.1561 32.9862C10.3191 32.9056 10.4973 32.8604 10.679 32.8534C10.8607 32.8464 11.0419 32.8778 11.2106 32.9456C11.3793 33.0133 11.5317 33.1159 11.6578 33.2466C11.7803 33.3474 24.156 43.3531 42.9689 43.6318C54.2936 43.799 64.7371 40.4352 74.0435 33.6325C73.4287 32.5519 73.0342 31.3606 72.8829 30.1272C72.8548 29.7896 72.9614 29.4545 73.1795 29.1948C73.3976 28.9351 73.7097 28.7717 74.0478 28.7401C74.3856 28.7126 74.7207 28.8189 74.9805 29.036C75.2404 29.253 75.4041 29.5634 75.4363 29.8999C75.4793 30.2859 75.9586 33.7419 79.305 34.9146C79.5824 35.0221 79.814 35.222 79.9605 35.4804C80.1069 35.7388 80.1593 36.0398 80.1087 36.3323C80.0581 36.6248 79.9076 36.8909 79.6828 37.0854C79.458 37.2799 79.1726 37.3908 78.8752 37.3994C78.7291 37.4001 78.5839 37.377 78.4453 37.3308C77.3964 36.9701 76.4334 36.3971 75.6168 35.6478C66.0761 42.6391 55.3618 46.1895 43.7792 46.1895ZM10.8432 33.6561H10.7852C10.7105 33.6642 10.6382 33.6873 10.5728 33.7242C10.5074 33.761 10.4502 33.8108 10.4048 33.8705C10.3553 33.9295 10.3183 33.998 10.2962 34.0717C10.274 34.1454 10.2671 34.2228 10.2758 34.2993C10.2839 34.3738 10.3071 34.4459 10.3441 34.5111C10.381 34.5764 10.4309 34.6334 10.4907 34.6788C11.0152 35.1075 23.5134 45.2011 42.9452 45.4884C43.2247 45.4884 43.5019 45.4884 43.7813 45.4884C55.3059 45.4884 65.9622 41.9252 75.4513 34.9017L75.6985 34.7173L75.9134 34.9317C76.6973 35.71 77.6483 36.3002 78.6946 36.6576C78.7557 36.6776 78.8195 36.6877 78.8838 36.6876C79.0018 36.6879 79.1169 36.6516 79.2132 36.5836C79.3096 36.5155 79.3822 36.4193 79.4211 36.3081V36.3081C79.4707 36.166 79.4619 36.01 79.3967 35.8742C79.3315 35.7385 79.2151 35.634 79.0729 35.5835C75.3138 34.2671 74.7743 30.4102 74.7292 29.975C74.7231 29.9005 74.7024 29.828 74.6682 29.7615C74.634 29.695 74.5871 29.6359 74.53 29.5875C74.4729 29.5391 74.4068 29.5024 74.3355 29.4795C74.2642 29.4566 74.1891 29.448 74.1145 29.454C74.0398 29.4601 73.9671 29.4807 73.9004 29.5148C73.8338 29.5489 73.7745 29.5958 73.726 29.6527C73.6775 29.7096 73.6407 29.7755 73.6178 29.8467C73.5948 29.9178 73.5861 29.9927 73.5922 30.0672C73.744 31.3 74.1612 32.4855 74.8151 33.5425L74.9871 33.819L74.7249 34.0141C65.2271 41.0376 54.5214 44.5022 42.9581 44.3414C23.8616 44.0584 11.329 33.8962 11.2043 33.7933C11.104 33.7064 10.9761 33.6577 10.8432 33.6561V33.6561Z" fill="#59C9A8"/>
</g>
<defs>
<clipPath id="clip0_305_260">
<rect width="90" height="46" fill="white" transform="translate(0 0.189453)"/>
</clipPath>
</defs>
</svg>
