<svg width="109" height="46" viewBox="0 0 109 46" fill="none" xmlns="http://www.w3.org/2000/svg">
<g clip-path="url(#clip0_14_160)">
<path d="M-0.000211702 27.7355V0.715943C0.000385411 0.525854 0.0757614 0.343756 0.209395 0.209555C0.343029 0.0753545 0.524021 -9.51814e-07 0.712709 0H7.16734C7.26066 0 7.35307 0.0185178 7.4393 0.0544974C7.52552 0.090477 7.60386 0.143212 7.66985 0.209694C7.73585 0.276175 7.78819 0.355103 7.82391 0.441965C7.85962 0.528827 7.878 0.621924 7.878 0.715943V8.4436C7.8774 8.56452 7.9074 8.68361 7.96518 8.78961C8.02296 8.89561 8.1066 8.98502 8.20822 9.0494C8.30983 9.11377 8.42605 9.151 8.54591 9.15754C8.66577 9.16409 8.78531 9.13975 8.89324 9.08682C9.41204 8.84548 9.94827 8.64414 10.4973 8.48451C11.5943 8.17178 12.7301 8.0187 13.8701 8.02995C16.609 8.02995 18.6064 8.67013 19.8623 9.95049C21.1182 11.2309 21.7468 13.2075 21.7484 15.8803V27.7446C21.7484 27.9344 21.6735 28.1165 21.5402 28.2508C21.4069 28.3851 21.2262 28.4605 21.0377 28.4605H14.5402C14.3517 28.4605 14.171 28.3851 14.0377 28.2508C13.9044 28.1165 13.8295 27.9344 13.8295 27.7446V16.4713C13.8295 15.544 13.6408 14.8826 13.2633 14.4871C12.8857 14.0916 12.2089 13.8946 11.2328 13.8961C10.6025 13.9072 9.98153 14.0512 9.40988 14.3189C8.94084 14.5213 8.50318 14.7908 8.11038 15.1189C8.03668 15.1853 7.97828 15.267 7.93931 15.3585C7.90033 15.45 7.88172 15.549 7.88477 15.6485V27.7446C7.88477 27.9344 7.8099 28.1165 7.67662 28.2508C7.54335 28.3851 7.36259 28.4605 7.17411 28.4605H0.719477C0.624715 28.4614 0.530724 28.4433 0.442999 28.4072C0.355275 28.3711 0.275575 28.3177 0.208565 28.2502C0.141555 28.1827 0.088578 28.1024 0.0527305 28.014C0.0168829 27.9256 -0.0011157 27.8309 -0.000211702 27.7355V27.7355Z" fill="#0028B4"/>
<path d="M30.8834 28.8741C29.6837 28.8832 28.4942 28.6514 27.3843 28.1923C26.3353 27.7636 25.438 27.0282 24.8078 26.0808C24.1656 25.1247 23.8445 23.9125 23.8445 22.4443C23.8445 20.3321 24.5424 18.6926 25.9381 17.5259C27.3339 16.3591 29.4433 15.775 32.2664 15.7735H37.4193V15.3939C37.4388 15.0432 37.3585 14.6941 37.1878 14.3877C37.0172 14.0813 36.7633 13.8303 36.4559 13.6643C35.8137 13.2976 34.6857 13.1143 33.0718 13.1143C31.0861 13.1154 29.1093 13.3805 27.1925 13.9029C27.0875 13.9321 26.9773 13.9367 26.8703 13.9163C26.7632 13.8958 26.6623 13.851 26.5752 13.7852C26.488 13.7193 26.417 13.6343 26.3676 13.5365C26.3182 13.4387 26.2917 13.3308 26.2901 13.2211V9.91639C26.2868 9.76769 26.3302 9.62174 26.414 9.49932C26.4979 9.37689 26.6179 9.28424 26.7571 9.23453C27.8319 8.87835 28.9323 8.60632 30.0487 8.42086C31.5701 8.15568 33.1116 8.02411 34.6556 8.02766C37.8141 8.02766 40.3138 8.67466 42.1548 9.96866C43.9957 11.2627 44.9177 13.3173 44.9207 16.1326V27.7423C44.9207 27.9321 44.8459 28.1142 44.7126 28.2485C44.5793 28.3828 44.3985 28.4582 44.2101 28.4582H38.6218C38.462 28.4584 38.3068 28.4042 38.1815 28.3043C38.0562 28.2045 37.9681 28.0649 37.9314 27.9082V27.9082C37.9069 27.7984 37.857 27.6961 37.7856 27.6096C37.7143 27.5231 37.6236 27.4548 37.521 27.4105C37.4184 27.3661 37.3068 27.3469 37.1954 27.3544C37.084 27.3619 36.9759 27.3959 36.8801 27.4536C36.2842 27.822 35.6464 28.1165 34.9805 28.3309C33.6513 28.7262 32.2689 28.9095 30.8834 28.8741V28.8741ZM33.5659 24.2307C34.3514 24.256 35.1322 24.1006 35.8491 23.7762C36.3436 23.5358 36.7999 23.2225 37.2027 22.8466C37.2712 22.7808 37.3253 22.7014 37.3614 22.6133C37.3976 22.5252 37.415 22.4305 37.4125 22.3352V20.8624C37.4125 20.6723 37.3377 20.49 37.2045 20.3553C37.0713 20.2207 36.8905 20.1448 36.7018 20.1442H33.6065C31.8738 20.1442 31.0083 20.8336 31.0098 22.2124C31.0098 23.558 31.8618 24.2307 33.5659 24.2307Z" fill="#0028B4"/>
<path d="M48.5845 36.8791V9.18454C48.5845 8.99466 48.6593 8.81256 48.7926 8.67829C48.9259 8.54403 49.1067 8.4686 49.2951 8.4686H54.8518C55.0118 8.46871 55.1671 8.52301 55.2927 8.62277C55.4183 8.72253 55.507 8.86195 55.5445 9.01862V9.04363C55.5712 9.15495 55.624 9.25819 55.6985 9.34469C55.7731 9.43119 55.8671 9.49841 55.9727 9.54072C56.0784 9.58303 56.1926 9.59918 56.3057 9.58782C56.4188 9.57647 56.5276 9.53794 56.6229 9.47546C57.197 9.10707 57.8089 8.80226 58.448 8.56633C59.5372 8.1944 60.6823 8.01598 61.8321 8.03903C64.7936 8.03903 67.0775 8.7921 68.6838 10.2982C70.2902 11.8044 71.0933 14.3583 71.0933 17.96C71.0933 21.5344 70.2413 24.2504 68.5372 26.1081C66.8331 27.9658 64.4868 28.8938 61.4982 28.8923C60.1106 28.9215 58.7297 28.6903 57.426 28.2105C57.3178 28.1708 57.2016 28.1582 57.0875 28.1736C56.9733 28.189 56.8646 28.2321 56.7706 28.2991C56.6765 28.3662 56.6 28.4551 56.5476 28.5584C56.4952 28.6617 56.4683 28.7763 56.4695 28.8923V36.8791C56.4695 37.0692 56.3947 37.2515 56.2614 37.3861C56.1282 37.5208 55.9475 37.5967 55.7588 37.5973H49.2951C49.1064 37.5967 48.9257 37.5208 48.7925 37.3861C48.6593 37.2515 48.5845 37.0692 48.5845 36.8791V36.8791ZM59.4791 23.1171C60.6251 23.1171 61.505 22.7087 62.1187 21.892C62.7323 21.0753 63.0399 19.8093 63.0414 18.0941C63.0414 16.4273 62.7549 15.3015 62.1818 14.7166C61.6088 14.1318 60.7357 13.8363 59.5625 13.8302C58.5362 13.8187 57.5364 14.1585 56.7266 14.7939C56.6429 14.8608 56.5755 14.9463 56.5297 15.0436C56.4839 15.141 56.461 15.2476 56.4627 15.3553V21.7306C56.4611 21.8462 56.4878 21.9604 56.5406 22.0631C56.5933 22.1658 56.6704 22.2538 56.765 22.3193C57.089 22.54 57.4372 22.7223 57.8028 22.8625C58.342 23.0473 58.9097 23.1335 59.4791 23.1171V23.1171Z" fill="#0028B4"/>
<path d="M75.1926 27.7605V14.969C75.1926 14.7789 75.1178 14.5965 74.9846 14.4619C74.8514 14.3273 74.6706 14.2513 74.4819 14.2507H73.1012C73.0009 14.2511 72.9017 14.23 72.8101 14.1889C72.7185 14.1477 72.6366 14.0875 72.5698 14.0121C72.5031 13.9366 72.453 13.8478 72.4228 13.7514C72.3927 13.655 72.3833 13.5533 72.3951 13.453L72.8982 9.10275C72.9191 8.92817 73.0027 8.76732 73.1332 8.65052C73.2637 8.53372 73.432 8.46902 73.6066 8.46863H82.3602C82.5486 8.46863 82.7294 8.54406 82.8627 8.67832C82.9959 8.81259 83.0708 8.99469 83.0708 9.18457V27.7605C83.0711 27.8547 83.0529 27.948 83.0174 28.0352C82.9818 28.1223 82.9295 28.2015 82.8635 28.2682C82.7975 28.3349 82.719 28.3879 82.6326 28.424C82.5463 28.4601 82.4537 28.4787 82.3602 28.4787H75.9033C75.8098 28.4787 75.7172 28.4601 75.6308 28.424C75.5444 28.3879 75.466 28.3349 75.4 28.2682C75.3339 28.2015 75.2816 28.1223 75.2461 28.0352C75.2105 27.948 75.1923 27.8547 75.1926 27.7605V27.7605Z" fill="#0028B4"/>
<path d="M108.856 27.3286L102.378 18.735C102.277 18.5971 102.229 18.4266 102.243 18.2554C102.252 18.1203 102.3 17.9908 102.381 17.8827L108.533 9.61863C108.612 9.51205 108.66 9.38547 108.672 9.253C108.684 9.12053 108.659 8.98738 108.6 8.86838C108.541 8.74937 108.45 8.6492 108.338 8.57901C108.226 8.50882 108.096 8.47138 107.964 8.47085H101.237C101.126 8.46988 101.016 8.49506 100.917 8.5444C100.817 8.59373 100.731 8.66584 100.664 8.75496L98.3062 11.921C98.2404 12.0108 98.1545 12.0837 98.0556 12.134C97.9566 12.1843 97.8474 12.2105 97.7366 12.2105C97.6258 12.2105 97.5165 12.1843 97.4176 12.134C97.3186 12.0837 97.2328 12.0108 97.1669 11.921L94.8454 8.76404C94.7798 8.67358 94.6939 8.60006 94.5947 8.54949C94.4955 8.49892 94.3858 8.47275 94.2746 8.47312H87.5064C87.374 8.4728 87.2442 8.50973 87.1316 8.57974C87.0189 8.64976 86.9279 8.75007 86.8688 8.86939C86.8097 8.98871 86.7849 9.12228 86.7971 9.25506C86.8093 9.38784 86.858 9.51455 86.9379 9.62091L93.1285 17.8759C93.2231 18.0001 93.2744 18.1523 93.2744 18.3088C93.2744 18.4654 93.2231 18.6176 93.1285 18.7418L86.6536 27.3331C86.5732 27.4393 86.5239 27.5661 86.5113 27.699C86.4987 27.8319 86.5232 27.9658 86.5821 28.0854C86.641 28.205 86.7319 28.3057 86.8446 28.376C86.9573 28.4463 87.0873 28.4834 87.2199 28.4832H94.031C94.1411 28.4833 94.2497 28.4577 94.3483 28.4084C94.447 28.3591 94.5329 28.2875 94.5995 28.1991L97.1714 24.7671C97.2375 24.6795 97.3228 24.6085 97.4206 24.5596C97.5185 24.5107 97.6262 24.4853 97.7354 24.4853C97.8447 24.4853 97.9524 24.5107 98.0502 24.5596C98.1481 24.6085 98.2334 24.6795 98.2995 24.7671L100.869 28.1991C100.936 28.2875 101.022 28.3591 101.12 28.4084C101.219 28.4577 101.328 28.4833 101.438 28.4832H108.289C108.423 28.4841 108.554 28.4471 108.667 28.3766C108.781 28.3061 108.872 28.2048 108.931 28.0844C108.99 27.964 109.014 27.8292 109.001 27.6956C108.988 27.5619 108.937 27.4348 108.856 27.3286V27.3286Z" fill="#0028B4"/>
<path d="M74.1798 0.711426H79.3823C79.8667 0.711426 80.3464 0.807545 80.7939 0.994296C81.2415 1.18105 81.6481 1.45477 81.9906 1.79984C82.3332 2.14492 82.6049 2.55457 82.7902 3.00543C82.9756 3.45629 83.071 3.93951 83.071 4.42752V4.95482C83.071 5.27309 82.9455 5.57833 82.7221 5.80339C82.4987 6.02844 82.1957 6.15488 81.8798 6.15488H74.1798C74.1038 6.15488 74.031 6.12447 73.9772 6.07033C73.9235 6.0162 73.8933 5.94278 73.8933 5.86623V1.00008C73.8933 0.923521 73.9235 0.850102 73.9772 0.79597C74.031 0.741837 74.1038 0.711426 74.1798 0.711426V0.711426Z" fill="#0028B4"/>
<path d="M107.071 39.6997C106.934 40.0698 106.66 40.3724 106.307 40.5446C105.955 40.7169 105.549 40.7456 105.176 40.6247C104.647 40.4452 104.149 40.1846 103.698 39.852C97.9927 43.9294 91.6238 46 84.7631 46H84.2397C72.2531 45.8182 64.5193 39.5088 64.1967 39.2406C64.0434 39.1155 63.9165 38.9608 63.8235 38.7855C63.7305 38.6102 63.6733 38.418 63.6552 38.2201C63.6162 37.8208 63.7354 37.4221 63.9869 37.1109C64.2423 36.8038 64.6065 36.6089 65.0021 36.5677C65.1975 36.5459 65.3952 36.5634 65.5838 36.6192C65.7724 36.675 65.9482 36.768 66.1008 36.8927C66.1685 36.9496 73.4466 42.8021 84.287 42.9749C90.5745 43.0936 96.7315 41.161 101.839 37.4655C101.589 36.8917 101.427 36.2834 101.356 35.6609C101.338 35.4628 101.359 35.2631 101.417 35.0732C101.476 34.8832 101.571 34.7068 101.697 34.554C101.956 34.2477 102.324 34.0552 102.721 34.0176C103.116 33.983 103.508 34.1072 103.811 34.3631C104.114 34.6236 104.304 34.993 104.341 35.3927C104.362 35.5563 104.589 37.2109 106.146 37.77C106.523 37.905 106.832 38.1832 107.008 38.5451C107.093 38.7239 107.143 38.9179 107.154 39.116C107.165 39.3142 107.137 39.5125 107.071 39.6997V39.6997Z" fill="#0028B4"/>
</g>
<defs>
<clipPath id="clip0_14_160">
<rect width="109" height="46" fill="white"/>
</clipPath>
</defs>
</svg>
