<svg width="119" height="45" viewBox="0 0 119 45" fill="none" xmlns="http://www.w3.org/2000/svg">
<path d="M89.7295 17.9692C89.7295 17.9692 86.6667 23.3149 89.8095 26.0011C89.8095 26.0011 87.439 25.7883 87.4124 22.5702C87.3858 19.3256 89.1436 17.9958 89.7295 17.9692Z" fill="#7C8850"/>
<path d="M91.3276 19.5383C91.3276 19.5383 89.4632 22.783 91.3809 24.4585C91.3809 24.4585 89.9427 24.3256 89.916 22.3575C89.8894 20.3628 90.9547 19.5649 91.3276 19.5383Z" fill="#7C8850"/>
<path d="M84.9888 22.3308C84.9888 22.4638 84.9888 22.5968 84.9888 22.7298C85.042 26.9053 88.1049 27.1979 88.1049 27.1979C84.0299 23.6872 87.9984 16.7723 87.9984 16.7723C87.3059 16.8255 85.4682 18.1553 85.0687 21.3468L84.9888 22.3308Z" fill="#7C8850"/>
<path d="M85.4147 21.3202H1.03872C0.479409 21.3202 0 21.533 0 21.8255C0 22.0915 0.452775 22.3308 1.03872 22.3308H85.3615" fill="#7C8850"/>
<path d="M118.174 12.65C118.174 12.65 119.106 7.72979 117.748 7.14469C117.482 7.0383 106.162 10.5755 106.029 10.9213C105.869 11.267 105.124 12.8362 105.417 12.8894L118.174 12.65Z" fill="#7C8850"/>
<path d="M94.47 30.9745C94.0971 30.8947 96.8404 22.65 98.3852 22.5702C99.9299 22.4904 102.567 23.2883 102.407 23.5809C102.247 23.8734 99.1043 24.6447 98.9445 24.4851C98.7847 24.3255 98.9178 22.9426 98.4917 22.9426C98.0922 22.9692 95.1092 31.0809 94.47 30.9745Z" fill="#7C8850"/>
<path d="M102.46 15.8947C102.46 15.8947 95.4023 19.9638 95.1093 20.6287C94.7897 21.2936 91.567 32.384 91.6203 32.6234C91.6735 32.8627 91.6735 34.2191 94.2304 34.0861C94.2304 34.0861 95.4822 34.0861 95.0028 34.7776C94.55 35.4957 94.9761 36.3202 95.6953 36.6925C95.6953 36.6925 95.5088 37.7032 95.7752 38.1553C95.7752 38.1553 97.0802 38.634 97.1069 39.4851C97.1335 40.3096 96.7606 42.9159 97.9858 42.9425C99.2109 42.9691 103.126 41.3202 103.925 41.1074C104.724 40.8947 105.656 40.3893 105.497 41.7191C105.337 43.0489 104.964 44.5915 105.603 44.5915C106.242 44.5915 106.562 44.8308 106.722 43.7138C106.722 43.7138 108 39.9106 106.136 39.3521C104.298 38.7936 99.2642 41.2404 98.918 41.134C98.5717 41.0276 98.5184 38.4744 97.9591 38.1553C97.3998 37.8361 97.1601 36.6659 97.2667 36.4798C97.3732 36.267 96.2546 35.4159 96.2812 35.15C96.3078 34.884 96.441 33.5276 95.7485 33.2351C95.056 32.9691 93.5113 32.8893 93.165 32.4638C93.165 32.4638 96.0149 21.9585 96.9204 21.2138C97.8526 20.4691 102.194 18.3149 102.38 18.0489C102.593 17.783 102.593 16.1606 102.46 15.8947Z" fill="#7C8850"/>
<path d="M111.01 23.9798C111.01 23.9798 110.93 21.2405 112.235 22.4107C113.54 23.5809 114.126 26.0011 113.647 27.4639C113.194 28.9266 112.368 29.5649 112.182 30.549C111.995 31.533 112.528 35.283 111.756 36.2671C110.983 37.2511 109.119 37.6501 108.293 36.9054C107.494 36.1607 107.761 35.1235 108.4 35.2564C109.039 35.3628 109.971 36.1873 110.504 35.8947C111.037 35.6022 111.143 33.4745 111.116 31.6128C111.09 29.7245 112.182 28.5277 112.608 27.3841C113.087 26.2405 112.288 23.5011 111.01 23.9798Z" fill="#7C8850"/>
<path d="M105.044 13.6075C102.727 15.0702 103.845 18.2883 103.845 18.2883C103.845 18.2883 106.935 19.5915 108.08 15.9745C108.107 14.6447 108 14.5117 108.506 13.3681H105.257C105.177 13.3947 105.07 13.5809 105.044 13.6075Z" fill="#7C8850"/>
<path d="M109.598 1.32022C101.049 -3.62659 94.6834 6.85214 90.5019 7.80958C86.2405 8.79362 89.4898 10.6287 91.6205 9.99043C95.9885 8.71384 105.364 -0.80744 110.078 8.66065C111.25 8.2883 112.555 7.94256 113.78 7.59682C112.422 3.84682 110.797 2.01171 109.598 1.32022Z" fill="#7C8850"/>
<path d="M94.8163 9.99041C92.366 10.5489 98.1455 11.2404 99.3707 10.8947C101.874 10.15 105.47 6.47977 106.029 9.99041L108.985 9.00637C105.337 0.921264 97.24 9.4319 94.8163 9.99041Z" fill="#7C8850"/>
<path d="M107.947 19.4851C107.947 21.7989 106.508 23.6074 106.615 24.4053C106.722 25.2032 110.637 25.1766 110.637 25.1766C110.637 25.1766 110.211 17.8361 112.98 13.3947H109.065C108.479 14.6978 107.947 19.4851 107.947 19.4851Z" fill="#7C8850"/>
<path d="M115.085 2.67659C112.768 -0.222348 110.823 1.3468 110.823 1.3468C111.782 2.17127 114.232 5.0702 114.792 7.35744C115.884 7.03829 116.816 6.77233 117.375 6.61276C116.55 4.51169 116.017 3.8202 115.085 2.67659Z" fill="#7C8850"/>
<path d="M112.155 21.5064C116.39 24.1926 113.993 28.9798 113.353 29.5383C112.714 30.0968 112.554 32.8894 112.608 35.1234C112.661 37.3575 111.995 36.6926 111.995 38.3681C111.995 40.0436 114.738 45.416 115.99 44.9639C117.242 44.5117 113.726 40.9479 114.738 38.2617C115.75 35.5756 116.683 28.9798 116.683 26.2936C116.683 23.6607 116.123 16.9851 118.174 13.4745H114.073C112.927 15.8415 112.155 21.5064 112.155 21.5064Z" fill="#7C8850"/>
<path d="M7.96373 39.3787L3.64905 32.5436V39.0064H0.905762V26.2404H3.64905V31.7723L7.35115 26.001L10.0944 26.6925L6.39233 31.8255L10.9201 38.7404L7.96373 39.3787Z" fill="#7C8850"/>
<path d="M16.1401 39.0064V38.1554C15.5275 38.6075 14.7285 39.2192 13.6632 39.2192C12.1184 39.2192 10.9731 38.3681 10.9731 36.6394C10.9731 34.9639 12.3048 34.1926 14.2225 34.166L16.0868 34.1128V33.3681C16.0868 32.3309 15.7406 32.2511 15.128 32.2511C14.3024 32.2511 13.4767 32.4373 12.2516 32.8096L11.4792 30.8149C12.8908 30.2564 14.1159 29.9639 15.3944 29.9639C17.5783 29.9639 18.7502 31.2937 18.7502 32.916V39.033H16.1401V39.0064ZM16.0868 35.4958L14.6752 35.549C14.1159 35.549 13.5566 35.7617 13.5566 36.4532C13.5566 36.9585 13.8762 37.3043 14.2491 37.3043C14.9416 37.3043 15.6607 36.9851 16.0602 36.799L16.0868 35.4958Z" fill="#7C8850"/>
<path d="M25.4087 39.0064V33.3415C25.4087 32.2777 25.0625 32.0915 24.5831 32.0915C24.0504 32.0915 22.772 32.5703 22.2393 32.8362V39.033H19.6025V30.3096H22.186V31.1873C23.1182 30.6554 24.1037 29.9639 25.2223 29.9639C27.0067 29.9639 28.0455 31.2405 28.0455 33.1022V39.033H25.4087V39.0064Z" fill="#7C8850"/>
<path d="M33.6118 39.0064V38.1554C32.9992 38.6075 32.2002 39.2192 31.1348 39.2192C29.5901 39.2192 28.4448 38.3681 28.4448 36.6394C28.4448 34.9639 29.7765 34.1926 31.6942 34.166L33.5585 34.1128V33.3681C33.5585 32.3309 33.2123 32.2511 32.5997 32.2511C31.7741 32.2511 30.9484 32.4373 29.7232 32.8096L28.9509 30.8149C30.3358 30.2564 31.5876 29.9639 32.866 29.9639C35.0767 29.9639 36.2219 31.2937 36.2219 32.916V39.033H33.6118V39.0064ZM33.5585 35.4958L32.1469 35.549C31.5876 35.549 31.0283 35.7617 31.0283 36.4532C31.0283 36.9585 31.3479 37.3043 31.7208 37.3043C32.4133 37.3043 33.1057 36.9851 33.5319 36.799L33.5585 35.4958Z" fill="#7C8850"/>
<path d="M42.8804 39.0064V33.3415C42.8804 32.2777 42.5342 32.0915 42.0547 32.0915C41.5221 32.0915 40.2436 32.5703 39.711 32.8362V39.033H37.0742V30.3096H39.6577V31.1873C40.5899 30.6554 41.602 29.9639 42.694 29.9639C44.4784 29.9639 45.5171 31.2405 45.5171 33.1022V39.033H42.8804V39.0064Z" fill="#7C8850"/>
<path d="M53.0812 26.9851C52.442 26.7191 51.8028 26.4798 51.0571 26.4798C50.4977 26.4798 49.9651 26.9053 49.9651 28.1819V30.2564H52.149V32.0117H49.9651V39.0064H47.3283V32.0117H45.9434V30.2564H47.3283V28.2085C47.3283 25.7617 48.9796 24.4319 50.9505 24.4319C52.1757 24.4319 52.7883 24.7244 53.9069 25.1234L53.0812 26.9851Z" fill="#7C8850"/>
<path d="M54.4663 39.0064V24.7776H57.1031V39.0064H54.4663Z" fill="#7C8850"/>
<path d="M62.0571 39.2192C59.154 39.2192 57.5293 37.5436 57.5293 34.7511C57.5293 32.2245 58.9409 29.9106 61.8173 29.9106C64.4275 29.9106 65.4928 31.6394 66.0788 33.8202L65.2265 34.9638L60.3259 35.5755C60.6188 36.5596 61.1781 37.2245 62.2435 37.2245C63.2289 37.2245 64.1878 36.8255 65.1199 36.3202L66.1587 37.9958C65.0667 38.7138 63.8149 39.2192 62.0571 39.2192ZM63.2822 33.5277C63.2289 32.8096 62.936 31.6926 61.8706 31.6926C60.752 31.6926 60.166 32.9692 60.166 34.166L63.2822 33.5277Z" fill="#7C8850"/>
<path d="M70.9257 39.2192C68.0226 39.2192 66.3979 37.5436 66.3979 34.7511C66.3979 32.2245 67.8095 29.9106 70.686 29.9106C73.2961 29.9106 74.3615 31.6394 74.9474 33.8202L74.0951 34.9638L69.1945 35.5755C69.4875 36.5596 70.0468 37.2245 71.1121 37.2245C72.0976 37.2245 73.0564 36.8255 73.9886 36.3202L75.0273 37.9958C73.9087 38.7138 72.6835 39.2192 70.9257 39.2192ZM72.1509 33.5277C72.0976 32.8096 71.8046 31.6926 70.7393 31.6926C69.6206 31.6926 69.0347 32.9692 69.0347 34.166L72.1509 33.5277Z" fill="#7C8850"/>
<path d="M79.2889 39.2191C77.7441 39.2191 76.3059 38.3681 76.3059 36.3202V32.0117H74.9209V31.1872L78.9692 27.384V30.2564H81.8457V32.0117H78.9692V35.9479C78.9692 36.8255 79.2356 37.1181 79.8215 37.1181C80.3542 37.1181 80.8602 36.9851 81.9789 36.4798L82.7246 38.2883C81.5261 38.8734 80.5673 39.2191 79.2889 39.2191Z" fill="#7C8850"/>
<path d="M118.334 3.12875H118.094L117.642 2.62343H117.429V3.12875H117.242V1.82556H117.615C117.695 1.82556 117.775 1.82556 117.828 1.82556C117.881 1.82556 117.935 1.85216 117.988 1.87875C118.041 1.90535 118.068 1.93194 118.094 1.98514C118.121 2.03833 118.148 2.09152 118.148 2.14471C118.148 2.25109 118.121 2.33088 118.068 2.38407C118.015 2.43726 117.935 2.49046 117.855 2.51705L118.334 3.12875ZM117.935 2.1979C117.935 2.17131 117.935 2.11811 117.908 2.09152C117.881 2.06492 117.881 2.03833 117.855 2.01173C117.828 1.98514 117.801 1.98514 117.775 1.98514C117.748 1.98514 117.695 1.98514 117.642 1.98514H117.455V2.46386H117.615C117.668 2.46386 117.722 2.46386 117.748 2.46386C117.801 2.46386 117.828 2.43726 117.855 2.41067C117.881 2.38407 117.908 2.35748 117.908 2.33088C117.935 2.27769 117.935 2.25109 117.935 2.1979Z" fill="#7C8850"/>
<path d="M117.668 3.87338C116.949 3.87338 116.336 3.26168 116.336 2.54359C116.336 1.79891 116.922 1.21381 117.668 1.21381C118.387 1.21381 119 1.82551 119 2.54359C119 3.26168 118.414 3.87338 117.668 3.87338ZM117.668 1.37338C117.056 1.37338 116.55 1.8787 116.55 2.517C116.55 3.1553 117.056 3.66061 117.668 3.66061C118.281 3.66061 118.787 3.1553 118.787 2.517C118.787 1.8787 118.307 1.37338 117.668 1.37338Z" fill="#7C8850"/>
<path d="M0.878906 17.8894L2.02416 13.3149H2.95635L4.1016 17.8894H3.22268L3.00961 16.9585H1.94426L1.73119 17.8894H0.878906ZM2.82318 16.134L2.47694 14.6181L2.1307 16.134H2.82318Z" fill="#7C8850"/>
<path d="M6.685 17.8894H5.88598V17.5436C5.83272 17.5968 5.77945 17.65 5.69955 17.7298C5.64628 17.783 5.56638 17.8362 5.51311 17.8894C5.45984 17.9426 5.37994 17.9692 5.32667 17.9692C5.27341 17.9958 5.1935 17.9958 5.1136 17.9958C4.82063 17.9958 4.58093 17.8362 4.42112 17.517C4.26132 17.1979 4.15479 16.7458 4.15479 16.2138C4.15479 15.9213 4.18142 15.6553 4.23469 15.4426C4.28795 15.2298 4.36786 15.017 4.47439 14.8575C4.55429 14.6979 4.68746 14.5915 4.82063 14.5117C4.9538 14.4319 5.08697 14.3787 5.24677 14.3787C5.37994 14.3787 5.48648 14.4053 5.56638 14.4319C5.64628 14.4585 5.75281 14.5383 5.85935 14.6181V13.1553H6.65836V17.8894H6.685ZM5.88598 16.9319V15.2564C5.85935 15.2298 5.80608 15.2032 5.72618 15.2032C5.67291 15.1766 5.61965 15.1766 5.56638 15.1766C5.37994 15.1766 5.22014 15.2564 5.14024 15.4426C5.0337 15.6287 5.00707 15.8681 5.00707 16.1872C5.00707 16.533 5.0337 16.7724 5.1136 16.9319C5.1935 17.0915 5.32667 17.1713 5.48648 17.1713C5.56638 17.1713 5.61965 17.1447 5.69955 17.1181C5.75281 17.0649 5.83272 17.0117 5.88598 16.9319Z" fill="#7C8850"/>
<path d="M10.307 17.8893V16.1606C10.307 16.001 10.307 15.8415 10.307 15.7351C10.307 15.6287 10.2804 15.5223 10.2538 15.4425C10.2271 15.3627 10.2005 15.3096 10.1472 15.283C10.094 15.2564 10.0407 15.2298 9.93416 15.2298C9.88089 15.2298 9.80099 15.2564 9.74772 15.283C9.69445 15.3096 9.61455 15.3627 9.56128 15.4425V17.8893H8.76227V16.1606C8.76227 16.001 8.76227 15.8415 8.76227 15.7351C8.76227 15.6287 8.73564 15.5223 8.709 15.4425C8.68237 15.3627 8.65573 15.3096 8.60247 15.283C8.5492 15.2564 8.49593 15.2298 8.41603 15.2298C8.36276 15.2298 8.28286 15.2564 8.22959 15.283C8.17632 15.3362 8.09642 15.3628 8.04316 15.4159V17.8627H7.24414V14.4585H8.04316V14.8308C8.17632 14.6713 8.28286 14.5649 8.41603 14.4851C8.52256 14.4053 8.65573 14.3521 8.81554 14.3521C8.97534 14.3521 9.10851 14.4053 9.21504 14.5117C9.32158 14.6181 9.42811 14.751 9.48138 14.9638C9.64119 14.7776 9.77436 14.6181 9.90752 14.5117C10.0407 14.4053 10.1739 14.3521 10.307 14.3521C10.4136 14.3521 10.5201 14.3787 10.6266 14.4319C10.7332 14.4851 10.8131 14.5649 10.8663 14.6713C10.9462 14.7776 10.9995 14.9106 11.0261 15.0702C11.0528 15.2298 11.0794 15.4159 11.0794 15.6553V17.8893H10.307Z" fill="#7C8850"/>
<path d="M12.4914 13.9532H11.6392V13.1287H12.4914V13.9532ZM12.4648 17.8894H11.6658V14.4585H12.4648V17.8894Z" fill="#7C8850"/>
<path d="M15.4476 17.8893H14.6485V16.1872C14.6485 16.0542 14.6485 15.9213 14.6485 15.7617C14.6485 15.6287 14.6219 15.5223 14.5953 15.4691C14.5686 15.3893 14.542 15.3362 14.4887 15.3096C14.4355 15.283 14.3556 15.2564 14.2757 15.2564C14.2224 15.2564 14.1425 15.283 14.0892 15.3096C14.036 15.3362 13.9561 15.3893 13.8762 15.4691V17.9159H13.0771V14.4585H13.8762V14.8308C14.0093 14.6713 14.1425 14.5649 14.249 14.4851C14.3822 14.4053 14.5154 14.3521 14.6485 14.3521C14.9149 14.3521 15.1013 14.4585 15.2345 14.6713C15.3677 14.884 15.4476 15.2032 15.4476 15.6287V17.8893Z" fill="#7C8850"/>
<path d="M16.8328 13.9532H15.9805V13.1287H16.8328V13.9532ZM16.8061 17.8894H16.0071V14.4585H16.8061V17.8894Z" fill="#7C8850"/>
<path d="M18.1642 17.9957C17.9777 17.9957 17.7913 17.9691 17.6315 17.9159C17.4717 17.8628 17.3385 17.8096 17.2053 17.7298V16.8255H17.2586C17.2852 16.8521 17.3385 16.9053 17.3918 16.9585C17.4451 17.0117 17.4983 17.0649 17.6049 17.1181C17.6848 17.1713 17.7647 17.1979 17.8446 17.251C17.9245 17.2776 18.031 17.3042 18.1375 17.3042C18.2441 17.3042 18.3506 17.2776 18.4305 17.2245C18.5104 17.1713 18.5637 17.0915 18.5637 17.0117C18.5637 16.9319 18.537 16.8787 18.5104 16.8255C18.4838 16.7723 18.4039 16.7457 18.2707 16.7191C18.2174 16.6925 18.1375 16.6659 18.031 16.6659C17.9511 16.6393 17.8446 16.6128 17.7913 16.5862C17.5782 16.5064 17.445 16.3734 17.3385 16.2138C17.232 16.0542 17.1787 15.8415 17.1787 15.5755C17.1787 15.4159 17.2053 15.283 17.2586 15.15C17.3119 15.017 17.3918 14.884 17.4983 14.7776C17.6049 14.6713 17.738 14.5915 17.8712 14.5383C18.031 14.4851 18.1908 14.4585 18.3772 14.4585C18.5637 14.4585 18.7235 14.4851 18.8566 14.5383C19.0164 14.5915 19.123 14.6447 19.2295 14.7245V15.6021H19.1762C19.1496 15.5755 19.0963 15.5223 19.0431 15.4957C18.9898 15.4425 18.9365 15.4159 18.8833 15.3628C18.83 15.3096 18.7501 15.283 18.6702 15.2564C18.5903 15.2298 18.5104 15.2298 18.4039 15.2298C18.2973 15.2298 18.1908 15.2564 18.1109 15.3096C18.031 15.3628 18.0044 15.4425 18.0044 15.5223C18.0044 15.6021 18.031 15.6553 18.0576 15.7085C18.0843 15.7617 18.1908 15.7883 18.324 15.8415C18.4039 15.8681 18.4571 15.8947 18.5637 15.8947C18.6436 15.9213 18.7501 15.9479 18.83 15.9745C19.0164 16.0542 19.1496 16.1606 19.2562 16.3202C19.3627 16.4798 19.3893 16.6659 19.3893 16.9319C19.3893 17.0915 19.3627 17.251 19.3094 17.384C19.2562 17.517 19.1762 17.65 19.0697 17.7564C18.9632 17.8628 18.83 17.9425 18.6968 17.9957C18.537 17.9691 18.3772 17.9957 18.1642 17.9957Z" fill="#7C8850"/>
<path d="M20.7476 17.9691C20.428 17.9691 20.1883 17.8893 20.0285 17.7032C19.8687 17.517 19.8154 17.2244 19.8154 16.8255V15.2298H19.5225V14.4851H19.8154V13.501H20.6144V14.4851H21.3868V15.2298H20.6144V16.4532C20.6144 16.5861 20.6144 16.6659 20.6144 16.7723C20.6144 16.8521 20.6411 16.9319 20.6411 17.0117C20.6677 17.0915 20.6944 17.1447 20.7476 17.1712C20.8009 17.2244 20.8808 17.2244 20.9873 17.2244C21.0406 17.2244 21.0939 17.2244 21.1471 17.1978C21.227 17.1712 21.2537 17.1447 21.2803 17.1181H21.3602V17.8627C21.2803 17.8893 21.1738 17.9159 21.0939 17.9425C20.9873 17.9425 20.8808 17.9691 20.7476 17.9691Z" fill="#7C8850"/>
<path d="M23.3842 15.4691H23.331C23.3043 15.4425 23.2511 15.4425 23.1978 15.4425C23.1445 15.4425 23.0646 15.4425 23.0114 15.4425C22.9315 15.4425 22.8516 15.4691 22.745 15.4957C22.6651 15.5223 22.5586 15.5755 22.4787 15.6021V17.9159H21.6797V14.4585H22.4787V14.9638C22.5053 14.9106 22.5586 14.8574 22.6385 14.8042C22.6918 14.7245 22.7717 14.6713 22.8249 14.6447C22.8782 14.5915 22.9581 14.5649 23.038 14.5117C23.1179 14.4851 23.1978 14.4585 23.2511 14.4585C23.2777 14.4585 23.3043 14.4585 23.331 14.4585C23.3576 14.4585 23.3842 14.4585 23.4109 14.4585V15.4691H23.3842Z" fill="#7C8850"/>
<path d="M25.0627 17.517C25.0094 17.5702 24.9561 17.6234 24.9029 17.6766C24.8496 17.7298 24.7963 17.783 24.7164 17.8362C24.6365 17.8894 24.5832 17.916 24.5033 17.9426C24.4234 17.9691 24.3435 17.9691 24.2104 17.9691C23.9973 17.9691 23.7842 17.8628 23.6511 17.65C23.4913 17.4372 23.438 17.1979 23.438 16.8787C23.438 16.6128 23.4646 16.4266 23.5445 16.267C23.6244 16.1074 23.731 15.9745 23.8641 15.8947C23.9973 15.7883 24.1837 15.7351 24.3702 15.7085C24.5832 15.6819 24.7963 15.6553 25.0094 15.6287V15.6021C25.0094 15.416 24.9561 15.283 24.8496 15.2032C24.743 15.1234 24.5832 15.0968 24.3702 15.0968C24.2636 15.0968 24.1571 15.1234 24.0506 15.1766C23.9174 15.2298 23.8109 15.283 23.6777 15.3628H23.5978V14.5383C23.6777 14.5117 23.8109 14.4585 23.9707 14.4319C24.1571 14.3787 24.3169 14.3787 24.5033 14.3787C24.9295 14.3787 25.2491 14.4851 25.4622 14.6713C25.6752 14.8574 25.7551 15.1766 25.7551 15.5755V17.916H24.9561V17.517H25.0627ZM25.0627 16.9851V16.267C24.9295 16.2936 24.8229 16.2936 24.743 16.3202C24.6631 16.3202 24.5832 16.3468 24.5033 16.4C24.4234 16.4266 24.3702 16.4798 24.3435 16.5596C24.3169 16.6128 24.2903 16.7191 24.2903 16.8255C24.2903 16.9851 24.3169 17.0915 24.3968 17.1447C24.4501 17.1979 24.5566 17.2245 24.6898 17.2245C24.7697 17.2245 24.8229 17.1979 24.9029 17.1713C24.9295 17.1181 25.0094 17.0649 25.0627 16.9851Z" fill="#7C8850"/>
<path d="M28.7377 17.8894H27.9387V17.5436C27.8855 17.5968 27.8322 17.65 27.7523 17.7298C27.699 17.783 27.6191 17.8362 27.5658 17.8894C27.5126 17.9426 27.4327 17.9692 27.3794 17.9692C27.3261 17.9958 27.2462 17.9958 27.1663 17.9958C26.8734 17.9958 26.6337 17.8362 26.4739 17.517C26.3141 17.1979 26.2075 16.7458 26.2075 16.2138C26.2075 15.9213 26.2342 15.6553 26.2874 15.4426C26.3407 15.2298 26.4206 15.017 26.5271 14.8575C26.607 14.6979 26.7402 14.5915 26.8734 14.5117C27.0065 14.4319 27.1397 14.3787 27.2995 14.3787C27.4327 14.3787 27.5392 14.4053 27.6191 14.4319C27.699 14.4585 27.8056 14.5383 27.9121 14.6181V13.1553H28.7111V17.8894H28.7377ZM27.9387 16.9319V15.2564C27.9121 15.2298 27.8588 15.2032 27.7789 15.2032C27.7256 15.1766 27.6724 15.1766 27.6191 15.1766C27.4327 15.1766 27.2729 15.2564 27.193 15.4426C27.0864 15.6287 27.0598 15.8681 27.0598 16.1872C27.0598 16.533 27.0864 16.7724 27.1663 16.9319C27.2462 17.0915 27.3794 17.1713 27.5392 17.1713C27.6191 17.1713 27.6724 17.1447 27.7523 17.1181C27.8322 17.0649 27.8855 17.0117 27.9387 16.9319Z" fill="#7C8850"/>
<path d="M31.774 16.1607C31.774 16.7192 31.6674 17.1713 31.4277 17.4905C31.188 17.8096 30.8684 17.9692 30.4423 17.9692C30.0161 17.9692 29.6965 17.8096 29.4834 17.4905C29.2437 17.1713 29.1372 16.7192 29.1372 16.1607C29.1372 15.5756 29.2437 15.15 29.4834 14.8043C29.7231 14.4851 30.0428 14.3256 30.4423 14.3256C30.8684 14.3256 31.188 14.4851 31.4011 14.8043C31.6674 15.15 31.774 15.6022 31.774 16.1607ZM30.9483 16.1873C30.9483 15.9745 30.9483 15.8149 30.9217 15.6819C30.895 15.549 30.8684 15.4426 30.8151 15.3628C30.7619 15.283 30.7086 15.2298 30.6553 15.1766C30.6021 15.15 30.5222 15.1234 30.4423 15.1234C30.3624 15.1234 30.3091 15.15 30.2558 15.1766C30.2026 15.2032 30.1493 15.2564 30.096 15.3362C30.0428 15.416 30.0161 15.5224 29.9895 15.6553C29.9629 15.7883 29.9362 15.9745 29.9362 16.1873C29.9362 16.4 29.9362 16.5596 29.9629 16.6926C29.9895 16.8256 30.0161 16.9319 30.0694 17.0117C30.1227 17.0915 30.1759 17.1447 30.2292 17.1979C30.2825 17.2245 30.3624 17.2511 30.4423 17.2511C30.4955 17.2511 30.5754 17.2245 30.6287 17.1979C30.682 17.1713 30.7352 17.1181 30.7885 17.0383C30.8418 16.9585 30.8684 16.8522 30.895 16.7192C30.9483 16.5596 30.9483 16.4 30.9483 16.1873Z" fill="#7C8850"/>
<path d="M33.8784 15.4691H33.8251C33.7985 15.4425 33.7452 15.4425 33.692 15.4425C33.6387 15.4425 33.5588 15.4425 33.5055 15.4425C33.4256 15.4425 33.3457 15.4691 33.2392 15.4957C33.1593 15.5223 33.0527 15.5755 32.9728 15.6021V17.9159H32.1738V14.4585H32.9728V14.9638C32.9995 14.9106 33.0527 14.8574 33.1326 14.8042C33.1859 14.7245 33.2658 14.6713 33.3191 14.6447C33.3723 14.5915 33.4522 14.5649 33.5321 14.5117C33.612 14.4851 33.6919 14.4585 33.7452 14.4585C33.7719 14.4585 33.7985 14.4585 33.8251 14.4585C33.8518 14.4585 33.8784 14.4585 33.905 14.4585V15.4691H33.8784Z" fill="#7C8850"/>
<path d="M37.8203 17.8894H37.0212V17.5436C36.968 17.5968 36.9147 17.65 36.8348 17.7298C36.7815 17.783 36.7016 17.8362 36.6484 17.8894C36.5951 17.9426 36.5152 17.9692 36.4619 17.9692C36.4087 17.9958 36.3288 17.9958 36.2489 17.9958C35.9559 17.9958 35.7162 17.8362 35.5564 17.517C35.3966 17.1979 35.29 16.7458 35.29 16.2138C35.29 15.9213 35.3167 15.6553 35.3699 15.4426C35.4232 15.2298 35.5031 15.017 35.6096 14.8575C35.6895 14.6979 35.8227 14.5915 35.9559 14.5117C36.0891 14.4319 36.2222 14.3787 36.382 14.3787C36.5152 14.3787 36.6217 14.4053 36.7016 14.4319C36.7815 14.4585 36.8881 14.5383 36.9946 14.6181V13.1553H37.7936V17.8894H37.8203ZM37.0212 16.9319V15.2564C36.9946 15.2298 36.9413 15.2032 36.8614 15.2032C36.8082 15.1766 36.7549 15.1766 36.7016 15.1766C36.5152 15.1766 36.3554 15.2564 36.2755 15.4426C36.169 15.6287 36.1423 15.8681 36.1423 16.1872C36.1423 16.533 36.169 16.7724 36.2489 16.9319C36.3288 17.0915 36.4619 17.1713 36.6217 17.1713C36.7016 17.1713 36.7549 17.1447 36.8348 17.1181C36.9147 17.0649 36.968 17.0117 37.0212 16.9319Z" fill="#7C8850"/>
<path d="M39.7112 17.9958C39.2318 17.9958 38.8589 17.8362 38.5926 17.517C38.3263 17.1979 38.2197 16.7724 38.2197 16.1873C38.2197 15.6288 38.3263 15.1766 38.566 14.8309C38.8057 14.4851 39.1519 14.3256 39.5781 14.3256C39.9776 14.3256 40.2705 14.4585 40.457 14.7511C40.6434 15.0436 40.7499 15.4426 40.7499 15.9745V16.3734H39.0187C39.0187 16.533 39.0454 16.666 39.0986 16.7724C39.1519 16.8788 39.2052 16.9585 39.2584 17.0383C39.3383 17.0915 39.4182 17.1447 39.4982 17.1713C39.5781 17.1979 39.6846 17.2245 39.7911 17.2245C39.871 17.2245 39.9776 17.1979 40.0575 17.1713C40.1374 17.1447 40.2173 17.1181 40.2972 17.0649C40.3504 17.0383 40.4303 16.9851 40.4836 16.9319C40.5369 16.8788 40.5901 16.8522 40.6168 16.8256H40.6967V17.7032C40.6434 17.7298 40.5635 17.783 40.5102 17.8096C40.457 17.8362 40.3771 17.8628 40.2972 17.8894C40.2173 17.916 40.1107 17.9426 40.0308 17.9692C39.9509 17.9692 39.8444 17.9958 39.7112 17.9958ZM39.9776 15.7351C39.9776 15.4958 39.9243 15.3362 39.871 15.2298C39.7911 15.1234 39.6846 15.0436 39.5248 15.0436C39.365 15.0436 39.2584 15.0968 39.1519 15.2298C39.072 15.3628 39.0187 15.5224 39.0187 15.7351H39.9776Z" fill="#7C8850"/>
<path d="M44.7981 14.1926H43.3865V15.0436H44.6915V15.9213H43.3865V17.8894H42.5342V13.3415H44.7981V14.1926Z" fill="#7C8850"/>
<path d="M45.9699 17.8894H45.1709V13.1287H45.9699V17.8894Z" fill="#7C8850"/>
<path d="M48.9795 16.1607C48.9795 16.7192 48.873 17.1713 48.6333 17.4905C48.3936 17.8096 48.074 17.9692 47.6478 17.9692C47.2217 17.9692 46.9021 17.8096 46.689 17.4905C46.4493 17.1713 46.3428 16.7192 46.3428 16.1607C46.3428 15.5756 46.4493 15.15 46.689 14.8043C46.9287 14.4851 47.2483 14.3256 47.6478 14.3256C48.074 14.3256 48.3936 14.4851 48.6066 14.8043C48.873 15.15 48.9795 15.6022 48.9795 16.1607ZM48.1805 16.1873C48.1805 15.9745 48.1805 15.8149 48.1539 15.6819C48.1272 15.549 48.1006 15.4426 48.0473 15.3628C47.9941 15.283 47.9408 15.2298 47.8875 15.1766C47.8343 15.15 47.7544 15.1234 47.6745 15.1234C47.5946 15.1234 47.5413 15.15 47.488 15.1766C47.4348 15.2032 47.3815 15.2564 47.3282 15.3362C47.275 15.416 47.2483 15.5224 47.2217 15.6553C47.1951 15.7883 47.1684 15.9745 47.1684 16.1873C47.1684 16.4 47.1684 16.5596 47.1951 16.6926C47.2217 16.8256 47.2483 16.9319 47.3016 17.0117C47.3549 17.0915 47.4081 17.1447 47.4614 17.1979C47.5147 17.2245 47.5946 17.2511 47.6745 17.2511C47.7277 17.2511 47.8076 17.2245 47.8609 17.1979C47.9142 17.1713 47.9674 17.1181 48.0207 17.0383C48.074 16.9585 48.1006 16.8522 48.1272 16.7192C48.1539 16.5596 48.1805 16.4 48.1805 16.1873Z" fill="#7C8850"/>
<path d="M50.3648 17.9691C50.0452 17.9691 49.8055 17.8893 49.6457 17.7032C49.4859 17.517 49.4326 17.2244 49.4326 16.8255V15.2298H49.1396V14.4851H49.4326V13.501H50.2316V14.4851H51.004V15.2298H50.2316V16.4532C50.2316 16.5861 50.2316 16.6659 50.2316 16.7723C50.2316 16.8521 50.2583 16.9319 50.2583 17.0117C50.2849 17.0915 50.3115 17.1447 50.3648 17.1712C50.4181 17.2244 50.498 17.2244 50.6045 17.2244C50.6578 17.2244 50.711 17.2244 50.7643 17.1978C50.8442 17.1712 50.8708 17.1447 50.8975 17.1181H50.9774V17.8627C50.8975 17.8893 50.7909 17.9159 50.711 17.9425C50.6311 17.9425 50.498 17.9691 50.3648 17.9691Z" fill="#7C8850"/>
<path d="M52.1223 13.9532H51.27V13.1287H52.1223V13.9532ZM52.0957 17.8894H51.2967V14.4585H52.0957V17.8894Z" fill="#7C8850"/>
<path d="M53.4807 17.8894H52.6816V13.1287H53.4807V17.8894Z" fill="#7C8850"/>
<path d="M54.8659 17.8894H54.0669V13.1287H54.8659V17.8894Z" fill="#7C8850"/>
<path d="M56.8368 17.517C56.7835 17.5702 56.7303 17.6234 56.7036 17.6766C56.6504 17.7298 56.5971 17.783 56.5172 17.8362C56.4373 17.8894 56.384 17.916 56.3041 17.9426C56.2242 17.9691 56.1443 17.9691 56.0112 17.9691C55.7981 17.9691 55.585 17.8628 55.4518 17.65C55.292 17.4372 55.2388 17.1979 55.2388 16.8787C55.2388 16.6128 55.2654 16.4266 55.3453 16.267C55.4252 16.1074 55.5317 15.9745 55.6649 15.8947C55.7981 15.7883 55.9845 15.7351 56.171 15.7085C56.384 15.6819 56.5971 15.6553 56.8102 15.6287V15.6021C56.8102 15.416 56.7569 15.283 56.6504 15.2032C56.5438 15.1234 56.384 15.0968 56.171 15.0968C56.0644 15.0968 55.9579 15.1234 55.8513 15.1766C55.7182 15.2298 55.6116 15.283 55.4785 15.3628H55.3986V14.5383C55.4785 14.5117 55.6116 14.4585 55.7714 14.4319C55.9579 14.3787 56.1177 14.3787 56.3041 14.3787C56.7303 14.3787 57.0499 14.4851 57.2629 14.6713C57.476 14.8574 57.5559 15.1766 57.5559 15.5755V17.916H56.7569V17.517H56.8368ZM56.8368 16.9851V16.267C56.7036 16.2936 56.5971 16.2936 56.5172 16.3202C56.4373 16.3202 56.3574 16.3468 56.2775 16.4C56.1976 16.4266 56.1443 16.4798 56.1177 16.5596C56.0911 16.6128 56.0644 16.7191 56.0644 16.8255C56.0644 16.9851 56.0911 17.0915 56.171 17.1447C56.2242 17.1979 56.3308 17.2245 56.4639 17.2245C56.5438 17.2245 56.5971 17.1979 56.677 17.1713C56.7303 17.1181 56.7835 17.0649 56.8368 16.9851Z" fill="#7C8850"/>
<path d="M58.9674 17.9957C58.7809 17.9957 58.5945 17.9691 58.4347 17.9159C58.2749 17.8628 58.1417 17.8096 58.0086 17.7298V16.8255H58.0618C58.0885 16.8521 58.1417 16.9053 58.195 16.9585C58.2483 17.0117 58.3015 17.0649 58.4081 17.1181C58.488 17.1713 58.5679 17.1979 58.6478 17.251C58.7277 17.2776 58.8342 17.3042 58.9408 17.3042C59.0473 17.3042 59.1538 17.2776 59.2337 17.2245C59.3136 17.1713 59.3669 17.0915 59.3669 17.0117C59.3669 16.9319 59.3403 16.8787 59.3136 16.8255C59.287 16.7723 59.2071 16.7457 59.0739 16.7191C59.0207 16.6925 58.9408 16.6659 58.8342 16.6659C58.7543 16.6393 58.6478 16.6128 58.5945 16.5862C58.3814 16.5064 58.2483 16.3734 58.1417 16.2138C58.0352 16.0542 57.9819 15.8415 57.9819 15.5755C57.9819 15.4159 58.0086 15.283 58.0618 15.15C58.1151 15.017 58.195 14.884 58.3015 14.7776C58.4081 14.6713 58.5412 14.5915 58.6744 14.5383C58.8342 14.4851 58.994 14.4585 59.1805 14.4585C59.3669 14.4585 59.5267 14.4851 59.6599 14.5383C59.8197 14.5915 59.9262 14.6447 60.0327 14.7245V15.6021H59.9795C59.9528 15.5755 59.8996 15.5223 59.8463 15.4957C59.793 15.4425 59.7398 15.4159 59.6865 15.3628C59.6332 15.3096 59.5533 15.283 59.4734 15.2564C59.3935 15.2298 59.3136 15.2298 59.2071 15.2298C59.1006 15.2298 58.994 15.2564 58.9141 15.3096C58.8342 15.3628 58.8076 15.4425 58.8076 15.5223C58.8076 15.6021 58.8342 15.6553 58.8609 15.7085C58.8875 15.7617 58.994 15.7883 59.1272 15.8415C59.2071 15.8681 59.2604 15.8947 59.3669 15.8947C59.4468 15.9213 59.5533 15.9479 59.6332 15.9745C59.8197 16.0542 59.9528 16.1606 60.0594 16.3202C60.1659 16.4798 60.1925 16.6659 60.1925 16.9319C60.1925 17.0915 60.1659 17.251 60.1126 17.384C60.0594 17.517 59.9795 17.65 59.8729 17.7564C59.7664 17.8628 59.6332 17.9425 59.5001 17.9957C59.3669 17.9691 59.1805 17.9957 58.9674 17.9957Z" fill="#7C8850"/>
<path d="M64.294 14.4585L63.0156 19.1659H62.1633L62.5362 17.8096L61.604 14.4585H62.4296L62.9623 16.6128L63.4684 14.4585H64.294Z" fill="#7C8850"/>
<path d="M65.5728 17.8894L66.718 13.3149H67.6502L68.7955 17.8894H67.9165L67.7035 16.9585H66.6381L66.425 17.8894H65.5728ZM67.517 16.134L67.1708 14.6181L66.8245 16.134H67.517Z" fill="#7C8850"/>
<path d="M70.3132 17.9957C70.1002 17.9957 69.9137 17.9691 69.7273 17.8894C69.5408 17.8096 69.4077 17.7032 69.2745 17.5702C69.1413 17.4106 69.0614 17.2245 68.9815 17.0117C68.9016 16.7989 68.875 16.533 68.875 16.2138C68.875 15.8947 68.9016 15.6021 68.9815 15.3628C69.0614 15.1234 69.168 14.9372 69.3011 14.8043C69.4343 14.6713 69.5675 14.5649 69.7539 14.4851C69.9137 14.4053 70.1002 14.3787 70.2866 14.3787C70.4198 14.3787 70.5796 14.4053 70.7127 14.4319C70.8459 14.4851 71.0057 14.5383 71.1389 14.6447V15.5755H71.0323C71.0057 15.5223 70.9524 15.4957 70.9258 15.4426C70.8725 15.3894 70.8193 15.3362 70.766 15.3096C70.7127 15.2564 70.6328 15.2298 70.5796 15.2032C70.4997 15.1766 70.4198 15.15 70.3399 15.15C70.1268 15.15 69.967 15.2564 69.8604 15.4426C69.7539 15.6287 69.7007 15.8947 69.7007 16.2138C69.7007 16.5596 69.7539 16.8255 69.8871 16.9851C69.9936 17.1447 70.1534 17.2511 70.3665 17.2511C70.473 17.2511 70.5529 17.2245 70.6328 17.1979C70.7127 17.1713 70.766 17.1181 70.8193 17.0915C70.8725 17.0383 70.9258 17.0117 70.9524 16.9585C70.9791 16.9053 71.0323 16.8787 71.059 16.8255H71.1655V17.7564C71.1122 17.783 71.059 17.8096 71.0057 17.8362C70.9524 17.8628 70.8725 17.8894 70.8193 17.916C70.7394 17.9426 70.6595 17.9691 70.6062 17.9691C70.4997 17.9691 70.4198 17.9957 70.3132 17.9957Z" fill="#7C8850"/>
<path d="M72.4708 17.9691C72.1512 17.9691 71.9115 17.8893 71.7516 17.7032C71.5918 17.517 71.5386 17.2244 71.5386 16.8255V15.2298H71.2456V14.4851H71.5386V13.501H72.3376V14.4851H73.11V15.2298H72.3376V16.4532C72.3376 16.5861 72.3376 16.6659 72.3376 16.7723C72.3376 16.8521 72.3642 16.9319 72.3642 17.0117C72.3909 17.0915 72.4175 17.1447 72.4708 17.1712C72.524 17.2244 72.6039 17.2244 72.7105 17.2244C72.7637 17.2244 72.817 17.2244 72.8703 17.1978C72.9502 17.1712 72.9768 17.1447 73.0034 17.1181H73.0833V17.8627C73.0034 17.8893 72.8969 17.9159 72.817 17.9425C72.7371 17.9425 72.6039 17.9691 72.4708 17.9691Z" fill="#7C8850"/>
<path d="M74.2287 13.9532H73.3765V13.1287H74.2287V13.9532ZM74.2021 17.8894H73.4031V14.4585H74.2021V17.8894Z" fill="#7C8850"/>
<path d="M77.1583 14.4585L76.2527 17.8893H75.3738L74.4683 14.4585H75.2939L75.8266 16.7457L76.3326 14.4585H77.1583Z" fill="#7C8850"/>
<path d="M79.9014 16.1607C79.9014 16.7192 79.7949 17.1713 79.5552 17.4905C79.3155 17.8096 78.9958 17.9692 78.5697 17.9692C78.1436 17.9692 77.824 17.8096 77.6109 17.4905C77.3712 17.1713 77.2646 16.7192 77.2646 16.1607C77.2646 15.5756 77.3712 15.15 77.6109 14.8043C77.8506 14.4851 78.1702 14.3256 78.5697 14.3256C78.9958 14.3256 79.3155 14.4851 79.5285 14.8043C79.7682 15.15 79.9014 15.6022 79.9014 16.1607ZM79.0757 16.1873C79.0757 15.9745 79.0757 15.8149 79.0491 15.6819C79.0225 15.549 78.9958 15.4426 78.9426 15.3628C78.8893 15.283 78.836 15.2298 78.7828 15.1766C78.7295 15.15 78.6496 15.1234 78.5697 15.1234C78.4898 15.1234 78.4365 15.15 78.3833 15.1766C78.33 15.2032 78.2767 15.2564 78.2235 15.3362C78.1702 15.416 78.1436 15.5224 78.1169 15.6553C78.0903 15.7883 78.0637 15.9745 78.0637 16.1873C78.0637 16.4 78.0637 16.5596 78.0903 16.6926C78.1169 16.8256 78.1436 16.9319 78.1968 17.0117C78.2501 17.0915 78.3034 17.1447 78.3566 17.1979C78.4099 17.2245 78.4898 17.2511 78.5697 17.2511C78.623 17.2511 78.7029 17.2245 78.7561 17.1979C78.8094 17.1713 78.8627 17.1181 78.9159 17.0383C78.9692 16.9585 78.9959 16.8522 79.0225 16.7192C79.0758 16.5596 79.0757 16.4 79.0757 16.1873Z" fill="#7C8850"/>
<path d="M81.0733 17.9957C80.8869 17.9957 80.7005 17.9691 80.5407 17.9159C80.3809 17.8628 80.2477 17.8096 80.1145 17.7298V16.8255H80.1678C80.1944 16.8521 80.2477 16.9053 80.301 16.9585C80.3542 17.0117 80.4075 17.0649 80.514 17.1181C80.5939 17.1713 80.6738 17.1979 80.7537 17.251C80.8336 17.2776 80.9402 17.3042 81.0467 17.3042C81.1532 17.3042 81.2598 17.2776 81.3397 17.2245C81.4196 17.1713 81.4728 17.0915 81.4728 17.0117C81.4728 16.9319 81.4462 16.8787 81.4196 16.8255C81.3929 16.7723 81.313 16.7457 81.1799 16.7191C81.1266 16.6925 81.0467 16.6659 80.9402 16.6659C80.8603 16.6393 80.7537 16.6128 80.7005 16.5862C80.4874 16.5064 80.3542 16.3734 80.2477 16.2138C80.1412 16.0542 80.0879 15.8415 80.0879 15.5755C80.0879 15.4159 80.1145 15.283 80.1678 15.15C80.2211 15.017 80.301 14.884 80.4075 14.7776C80.514 14.6713 80.6472 14.5915 80.7804 14.5383C80.9402 14.4851 81.1 14.4585 81.2864 14.4585C81.4728 14.4585 81.6326 14.4851 81.7658 14.5383C81.9256 14.5915 82.0322 14.6447 82.1387 14.7245V15.6021H82.0854C82.0588 15.5755 82.0055 15.5223 81.9523 15.4957C81.899 15.4425 81.8457 15.4159 81.7925 15.3628C81.7392 15.3096 81.6593 15.283 81.5794 15.2564C81.4995 15.2298 81.4196 15.2298 81.313 15.2298C81.2065 15.2298 81.1 15.2564 81.0201 15.3096C80.9402 15.3628 80.9135 15.4425 80.9135 15.5223C80.9135 15.6021 80.9402 15.6553 80.9668 15.7085C80.9934 15.7617 81.1 15.7883 81.2331 15.8415C81.313 15.8681 81.3929 15.8947 81.4728 15.8947C81.5527 15.9213 81.6593 15.9479 81.7392 15.9745C81.9256 16.0542 82.0588 16.1606 82.1653 16.3202C82.2719 16.4798 82.2985 16.6659 82.2985 16.9319C82.2985 17.0915 82.2719 17.251 82.2186 17.384C82.1653 17.517 82.0854 17.65 81.9789 17.7564C81.8723 17.8628 81.7392 17.9425 81.606 17.9957C81.4462 17.9691 81.2864 17.9957 81.0733 17.9957Z" fill="#7C8850"/>
</svg>
