<?xml version="1.0" encoding="utf-8"?>
<!-- Generator: Adobe Illustrator 24.0.2, SVG Export Plug-In . SVG Version: 6.00 Build 0)  -->
<svg version="1.1" id="Capa_1" xmlns="http://www.w3.org/2000/svg" xmlns:xlink="http://www.w3.org/1999/xlink" x="0px" y="0px"
	 viewBox="0 0 119 45" style="enable-background:new 0 0 119 45;" xml:space="preserve">
<style type="text/css">
	.st0{fill:#FFFFFF;}
</style>
<path class="st0" d="M89.7,18c0,0-3.1,5.3,0.1,8c0,0-2.4-0.2-2.4-3.4C87.4,19.3,89.1,18,89.7,18z"/>
<path class="st0" d="M91.3,19.5c0,0-1.9,3.2,0.1,4.9c0,0-1.4-0.1-1.5-2.1C89.9,20.4,91,19.6,91.3,19.5z"/>
<path class="st0" d="M85,22.3c0,0.1,0,0.3,0,0.4c0.1,4.2,3.1,4.5,3.1,4.5C84,23.7,88,16.8,88,16.8c-0.7,0.1-2.5,1.4-2.9,4.6L85,22.3
	z"/>
<path class="st0" d="M85.4,21.3H1c-0.6,0-1,0.2-1,0.5s0.5,0.5,1,0.5h84.3"/>
<path class="st0" d="M118.2,12.6c0,0,0.9-4.9-0.4-5.5c-0.3-0.1-11.6,3.4-11.7,3.8c-0.2,0.3-0.9,1.9-0.6,2L118.2,12.6z"/>
<path class="st0" d="M94.5,31c-0.4-0.1,2.4-8.3,3.9-8.4s4.2,0.7,4,1s-3.3,1.1-3.5,0.9s0-1.5-0.5-1.5C98.1,23,95.1,31.1,94.5,31z"/>
<path class="st0" d="M102.5,15.9c0,0-7.1,4.1-7.4,4.7c-0.3,0.7-3.5,11.8-3.5,12c0.1,0.2,0.1,1.6,2.6,1.5c0,0,1.3,0,0.8,0.7
	s0,1.5,0.7,1.9c0,0-0.2,1,0.1,1.5c0,0,1.3,0.5,1.3,1.3S96.8,42.9,98,43c1.2,0,5.1-1.6,5.9-1.8s1.7-0.7,1.6,0.6
	c-0.2,1.3-0.5,2.9,0.1,2.9s1,0.2,1.1-0.9c0,0,1.3-3.8-0.6-4.4c-1.8-0.6-6.9,1.9-7.2,1.8c-0.3-0.1-0.4-2.7-1-3s-0.8-1.5-0.7-1.7
	c0.1-0.2-1-1.1-1-1.3c0-0.3,0.2-1.6-0.5-1.9C95,33,93.5,33,93.1,32.5c0,0,2.8-10.5,3.8-11.2c0.9-0.7,5.3-2.9,5.5-3.2
	C102.6,17.8,102.6,16.2,102.5,15.9z"/>
<path class="st0" d="M111,24c0,0-0.1-2.7,1.2-1.6s1.9,3.6,1.4,5.1s-1.3,2.1-1.5,3.1s0.3,4.7-0.4,5.7c-0.8,1-2.6,1.4-3.5,0.6
	c-0.8-0.7-0.5-1.8,0.1-1.6c0.6,0.1,1.6,0.9,2.1,0.6c0.5-0.3,0.6-2.4,0.6-4.3s1.1-3.1,1.5-4.2C113.1,26.2,112.3,23.5,111,24z"/>
<path class="st0" d="M105,13.6c-2.3,1.5-1.2,4.7-1.2,4.7s3.1,1.3,4.2-2.3c0-1.3-0.1-1.5,0.4-2.6h-3.2
	C105.2,13.4,105.1,13.6,105,13.6z"/>
<path class="st0" d="M109.6,1.3C101-3.6,94.7,6.9,90.5,7.8c-4.3,1-1,2.8,1.1,2.2c4.4-1.3,13.7-10.8,18.5-1.3
	c1.2-0.4,2.5-0.7,3.7-1.1C112.4,3.8,110.8,2,109.6,1.3z"/>
<path class="st0" d="M94.8,10c-2.5,0.6,3.3,1.2,4.6,0.9c2.5-0.7,6.1-4.4,6.7-0.9l3-1C105.3,0.9,97.2,9.4,94.8,10z"/>
<path class="st0" d="M107.9,19.5c0,2.3-1.4,4.1-1.3,4.9s4,0.8,4,0.8s-0.4-7.3,2.3-11.8H109C108.5,14.7,107.9,19.5,107.9,19.5z"/>
<path class="st0" d="M115.1,2.7c-2.3-2.9-4.3-1.3-4.3-1.3c1,0.8,3.4,3.7,4,6c1.1-0.3,2-0.6,2.6-0.7C116.6,4.5,116,3.8,115.1,2.7z"/>
<path class="st0" d="M112.2,21.5c4.2,2.7,1.8,7.5,1.2,8c-0.6,0.6-0.8,3.4-0.7,5.6c0.1,2.2-0.6,1.6-0.6,3.2s2.7,7,4,6.6
	c1.3-0.5-2.3-4-1.3-6.7s1.9-9.3,1.9-12c0-2.6-0.6-9.3,1.5-12.8h-4.1C112.9,15.8,112.2,21.5,112.2,21.5z"/>
<path class="st0" d="M8,39.4l-4.3-6.8V39H0.9V26.2h2.7v5.5L7.4,26l2.7,0.7l-3.7,5.1l4.5,6.9L8,39.4z"/>
<path class="st0" d="M16.1,39v-0.9c-0.6,0.5-1.4,1.1-2.5,1.1c-1.5,0-2.7-0.9-2.7-2.6c0-1.7,1.3-2.4,3.2-2.5L16,34v-0.7
	c0-1-0.3-1.1-1-1.1c-0.8,0-1.7,0.2-2.9,0.6l-0.8-2c1.4-0.6,2.6-0.9,3.9-0.9c2.2,0,3.4,1.3,3.4,3V39H16.1L16.1,39z M16.1,35.5
	l-1.4,0.1c-0.6,0-1.1,0.2-1.1,0.9c0,0.5,0.3,0.9,0.7,0.9c0.7,0,1.4-0.3,1.8-0.5V35.5z"/>
<path class="st0" d="M25.4,39v-5.7c0-1.1-0.3-1.2-0.8-1.2s-1.8,0.5-2.3,0.7V39h-2.6v-8.7h2.6v0.9c0.9-0.5,1.9-1.2,3-1.2
	c1.8,0,2.8,1.3,2.8,3.1V39H25.4L25.4,39z"/>
<path class="st0" d="M33.6,39v-0.9c-0.6,0.5-1.4,1.1-2.5,1.1c-1.5,0-2.7-0.9-2.7-2.6c0-1.7,1.3-2.4,3.2-2.5l1.9-0.1v-0.7
	c0-1-0.3-1.1-1-1.1c-0.8,0-1.7,0.2-2.9,0.6l-0.8-2c1.4-0.6,2.6-0.9,3.9-0.9c2.2,0,3.4,1.3,3.4,3V39H33.6L33.6,39z M33.6,35.5
	l-1.4,0.1c-0.6,0-1.1,0.2-1.1,0.9c0,0.5,0.3,0.9,0.7,0.9c0.7,0,1.4-0.3,1.8-0.5V35.5z"/>
<path class="st0" d="M42.9,39v-5.7c0-1.1-0.3-1.2-0.8-1.2s-1.8,0.5-2.3,0.7V39h-2.6v-8.7h2.6v0.9c0.9-0.5,1.9-1.2,3-1.2
	c1.8,0,2.8,1.3,2.8,3.1V39H42.9L42.9,39z"/>
<path class="st0" d="M53.1,27c-0.6-0.3-1.3-0.5-2-0.5c-0.6,0-1.1,0.4-1.1,1.7v2.1h2.2V32H50v7h-2.6v-7H46v-1.8h1.4v-2
	c0-2.4,1.7-3.8,3.6-3.8c1.2,0,1.8,0.3,3,0.7L53.1,27z"/>
<path class="st0" d="M54.5,39V24.8h2.6V39H54.5z"/>
<path class="st0" d="M62.1,39.2c-2.9,0-4.5-1.7-4.5-4.5c0-2.5,1.4-4.8,4.3-4.8c2.6,0,3.7,1.7,4.3,3.9l-1,1.2l-4.9,0.6
	c0.3,1,0.9,1.6,1.9,1.6s1.9-0.4,2.9-0.9l1,1.7C65.1,38.7,63.8,39.2,62.1,39.2z M63.3,33.5c-0.1-0.7-0.3-1.8-1.4-1.8
	c-1.1,0-1.7,1.3-1.7,2.5L63.3,33.5z"/>
<path class="st0" d="M70.9,39.2c-2.9,0-4.5-1.7-4.5-4.5c0-2.5,1.4-4.8,4.3-4.8c2.6,0,3.7,1.7,4.3,3.9L74.1,35l-4.9,0.6
	c0.3,1,0.9,1.6,1.9,1.6s1.9-0.4,2.9-0.9l1,1.7C73.9,38.7,72.7,39.2,70.9,39.2z M72.2,33.5c-0.1-0.7-0.3-1.8-1.4-1.8
	s-1.7,1.3-1.7,2.5L72.2,33.5z"/>
<path class="st0" d="M79.3,39.2c-1.5,0-3-0.9-3-2.9V32h-1.4v-0.8l4-3.8v2.9h2.9V32H79v3.9c0,0.9,0.3,1.2,0.9,1.2
	c0.5,0,1-0.1,2.2-0.6l0.7,1.8C81.5,38.9,80.6,39.2,79.3,39.2z"/>
<path class="st0" d="M118.3,3.1h-0.2l-0.5-0.5h-0.2v0.5h-0.2V1.8h0.4c0.1,0,0.2,0,0.2,0c0.1,0,0.1,0,0.2,0.1c0.1,0,0.1,0.1,0.1,0.1
	c0,0.1,0.1,0.1,0.1,0.2c0,0.1,0,0.2-0.1,0.2s-0.1,0.1-0.2,0.1L118.3,3.1z M117.9,2.2L117.9,2.2c0-0.1,0-0.2-0.1-0.2h-0.1h-0.1h-0.2
	v0.5h0.2c0.1,0,0.1,0,0.1,0c0.1,0,0.1,0,0.1-0.1l0.1-0.1C117.9,2.3,117.9,2.3,117.9,2.2z"/>
<path class="st0" d="M117.7,3.9c-0.7,0-1.3-0.6-1.3-1.3s0.6-1.3,1.3-1.3c0.7,0,1.3,0.6,1.3,1.3S118.4,3.9,117.7,3.9z M117.7,1.4
	c-0.6,0-1.1,0.5-1.1,1.1s0.5,1.1,1.1,1.1s1.1-0.5,1.1-1.1S118.3,1.4,117.7,1.4z"/>
<path class="st0" d="M0.9,17.9L2,13.3h1l1.1,4.6H3.2L3,17H1.9l-0.2,0.9H0.9z M2.8,16.1l-0.3-1.5l-0.3,1.5H2.8z"/>
<path class="st0" d="M6.7,17.9H5.9v-0.3c-0.1,0.1-0.1,0.1-0.2,0.2S5.6,17.9,5.5,18c0-0.1-0.1,0-0.2,0s-0.1,0-0.2,0
	c-0.3,0-0.5-0.2-0.7-0.5s-0.3-0.8-0.3-1.3c0-0.3,0-0.6,0.1-0.8s0.1-0.4,0.2-0.6c0.1-0.2,0.2-0.3,0.3-0.3c0.1-0.1,0.3-0.1,0.4-0.1
	s0.2,0,0.3,0.1c0.1,0,0.2,0.1,0.3,0.2v-1.5h0.8L6.7,17.9L6.7,17.9z M5.9,16.9v-1.7c0,0-0.1-0.1-0.2-0.1s-0.1,0-0.2,0
	c-0.2,0-0.3,0.1-0.4,0.3C5,15.6,5,15.9,5,16.2c0,0.3,0,0.6,0.1,0.7c0.1,0.2,0.2,0.2,0.4,0.2c0.1,0,0.1,0,0.2-0.1
	C5.8,17.1,5.8,17,5.9,16.9z"/>
<path class="st0" d="M10.3,17.9v-1.7c0-0.2,0-0.3,0-0.4c0-0.1,0-0.2-0.1-0.3s-0.1-0.1-0.1-0.2c-0.1,0-0.1-0.1-0.2-0.1
	c-0.1,0-0.1,0-0.2,0.1c-0.1,0-0.1,0.1-0.2,0.2v2.4H8.8v-1.7c0-0.2,0-0.3,0-0.4c0-0.1,0-0.2-0.1-0.3c0-0.1-0.1-0.1-0.1-0.2
	c-0.1,0-0.1-0.1-0.2-0.1c-0.1,0-0.1,0-0.2,0.1c-0.1,0.1-0.1,0.1-0.2,0.1v2.4H7.2v-3.4H8v0.4c0.1-0.2,0.2-0.3,0.4-0.3
	c0.1-0.1,0.2-0.1,0.4-0.1s0.3,0.1,0.4,0.2c0.1,0.1,0.2,0.2,0.3,0.5c0.2-0.2,0.3-0.3,0.4-0.5c0.1-0.1,0.3-0.2,0.4-0.2
	c0.1,0,0.2,0,0.3,0.1s0.2,0.1,0.2,0.2c0.1,0.1,0.1,0.2,0.2,0.4c0,0.2,0.1,0.3,0.1,0.6v2.2H10.3z"/>
<path class="st0" d="M12.5,14h-0.9v-0.8h0.9V14z M12.5,17.9h-0.8v-3.4h0.8V17.9z"/>
<path class="st0" d="M15.4,17.9h-0.8v-1.7c0-0.1,0-0.3,0-0.4c0-0.1,0-0.2-0.1-0.3c0-0.1-0.1-0.1-0.1-0.2s-0.1-0.1-0.2-0.1
	c-0.1,0-0.1,0-0.2,0.1s-0.1,0.1-0.2,0.2v2.4H13v-3.5h0.8v0.4c0.1-0.2,0.3-0.3,0.4-0.3c0.1-0.1,0.3-0.1,0.4-0.1
	c0.3,0,0.5,0.1,0.6,0.3s0.2,0.5,0.2,1C15.4,15.7,15.4,17.9,15.4,17.9z"/>
<path class="st0" d="M16.8,14H16v-0.8h0.9V14H16.8z M16.8,17.9H16v-3.4h0.8V17.9z"/>
<path class="st0" d="M18.2,18c-0.2,0-0.4,0-0.5-0.1c-0.2-0.1-0.3-0.1-0.4-0.2v-0.9h0.1l0.1,0.1c0.1,0.1,0.1,0.1,0.2,0.2
	s0.2,0.1,0.2,0.1c0.1,0,0.2,0.1,0.3,0.1c0.1,0,0.2,0,0.3-0.1c0.1-0.1,0.1-0.1,0.1-0.2s0-0.1-0.1-0.2c0-0.1-0.1-0.1-0.2-0.1
	s-0.1-0.1-0.2-0.1s-0.2-0.1-0.2-0.1c-0.2-0.1-0.3-0.2-0.5-0.4c-0.1-0.2-0.2-0.4-0.2-0.6c0-0.2,0-0.3,0.1-0.4
	c0.1-0.1,0.1-0.3,0.2-0.4c0.1-0.1,0.2-0.2,0.4-0.2c0.2-0.1,0.3-0.1,0.5-0.1s0.3,0,0.5,0.1s0.3,0.1,0.4,0.2v0.9h-0.1l-0.1-0.1
	c-0.1-0.1-0.1-0.1-0.2-0.1c-0.1-0.1-0.1-0.1-0.2-0.1s-0.2,0-0.3,0c-0.1,0-0.2,0-0.3,0.1s-0.1,0-0.1,0.1s0,0.1,0.1,0.2
	c0,0.1,0.1,0.1,0.3,0.1c0.1,0,0.1,0.1,0.2,0.1s0.2,0.1,0.3,0.1c0.2,0.1,0.3,0.2,0.4,0.3c0.1,0.2,0.1,0.3,0.1,0.6
	c0,0.2,0,0.3-0.1,0.5c-0.1,0.1-0.1,0.3-0.2,0.4S18.9,18,18.7,18S18.4,18,18.2,18z"/>
<path class="st0" d="M20.7,18c-0.3,0-0.6-0.1-0.7-0.3c-0.2-0.2-0.2-0.5-0.2-0.9v-1.6h-0.3v-0.7h0.3v-1h0.8v1h0.8v0.7h-0.8v1.2
	c0,0.1,0,0.2,0,0.3c0,0.1,0,0.2,0,0.2c0,0.1,0.1,0.1,0.1,0.2c0.1,0.1,0.1,0.1,0.2,0.1s0.1,0,0.2,0s0.1-0.1,0.1-0.1h0.1v0.7
	c-0.1,0-0.2,0.1-0.3,0.1C21,17.9,20.9,18,20.7,18z"/>
<path class="st0" d="M23.4,15.5L23.4,15.5c-0.1,0-0.1,0-0.2,0s-0.1,0-0.2,0s-0.2,0-0.3,0.1c-0.1,0-0.2,0.1-0.3,0.1V18h-0.8v-3.5h0.8
	V15c0-0.1,0.1-0.1,0.2-0.2c0.1-0.1,0.1-0.1,0.2-0.2c0.1-0.1,0.1-0.1,0.2-0.1s0.2-0.1,0.2-0.1h0.1h0.1L23.4,15.5L23.4,15.5z"/>
<path class="st0" d="M25.1,17.5c-0.1,0.1-0.1,0.1-0.2,0.2s-0.1,0.1-0.2,0.2S24.6,18,24.5,18s-0.2,0-0.3,0c-0.2,0-0.4-0.1-0.6-0.3
	c-0.2-0.2-0.2-0.5-0.2-0.8s0-0.5,0.1-0.6c0.1-0.2,0.2-0.3,0.3-0.4c0.1-0.1,0.3-0.2,0.5-0.2s0.4-0.1,0.6-0.1l0,0
	c0-0.2-0.1-0.3-0.2-0.4c-0.1-0.1-0.3-0.1-0.5-0.1c-0.1,0-0.2,0-0.3,0.1c-0.1,0.1-0.2,0.1-0.4,0.2h-0.1v-0.8c0.1,0,0.2-0.1,0.4-0.1
	c0.2-0.1,0.3-0.1,0.5-0.1c0.4,0,0.7,0.1,1,0.3c0.2,0.2,0.3,0.5,0.3,0.9v2.3H25v-0.4C25,17.5,25.1,17.5,25.1,17.5z M25.1,17v-0.7
	c-0.1,0-0.2,0-0.3,0.1c-0.1,0-0.2,0-0.2,0.1c-0.1,0-0.1,0.1-0.2,0.2c0,0.1-0.1,0.2-0.1,0.3c0,0.2,0,0.3,0.1,0.3
	c0.1,0.1,0.2,0.1,0.3,0.1c0.1,0,0.1,0,0.2-0.1C24.9,17.1,25,17.1,25.1,17z"/>
<path class="st0" d="M28.7,17.9h-0.8v-0.3c-0.1,0.1-0.1,0.1-0.2,0.2s-0.1,0.1-0.2,0.2s-0.1,0.1-0.2,0.1s-0.1,0-0.2,0
	c-0.3,0-0.5-0.2-0.7-0.5s-0.3-0.8-0.3-1.3c0-0.3,0-0.6,0.1-0.8s0.1-0.4,0.2-0.6c0.1-0.2,0.2-0.3,0.3-0.3c0.1-0.1,0.3-0.1,0.4-0.1
	s0.2,0,0.3,0.1c0.1,0,0.2,0.1,0.3,0.2v-1.5h0.8L28.7,17.9L28.7,17.9z M27.9,16.9v-1.7c0,0-0.1-0.1-0.2-0.1s-0.1,0-0.2,0
	c-0.2,0-0.3,0.1-0.4,0.3S27,15.8,27,16.1c0,0.3,0,0.6,0.1,0.7c0.1,0.2,0.2,0.2,0.4,0.2c0.1,0,0.1,0,0.2-0.1
	C27.8,17.1,27.9,17,27.9,16.9z"/>
<path class="st0" d="M31.8,16.2c0,0.6-0.1,1-0.3,1.3c-0.2,0.3-0.6,0.5-1,0.5s-0.7-0.2-1-0.5c-0.2-0.3-0.3-0.8-0.3-1.3
	c0-0.6,0.1-1,0.3-1.4c0.2-0.3,0.6-0.5,1-0.5s0.7,0.2,1,0.5C31.7,15.1,31.8,15.6,31.8,16.2z M30.9,16.2c0-0.2,0-0.4,0-0.5
	s-0.1-0.2-0.1-0.3c-0.1-0.1-0.1-0.1-0.2-0.2c-0.1,0-0.1-0.1-0.2-0.1s-0.1,0-0.2,0.1c-0.1,0-0.1,0.1-0.2,0.2c0,0,0,0.1,0,0.3
	c0,0.1-0.1,0.3-0.1,0.5c0,0.2,0,0.4,0,0.5S30,16.9,30,17c0.1,0.1,0.1,0.1,0.2,0.2c0.1,0,0.1,0.1,0.2,0.1s0.1,0,0.2-0.1
	c0.1,0,0.1-0.1,0.2-0.2s0.1-0.2,0.1-0.3C30.9,16.6,30.9,16.4,30.9,16.2z"/>
<path class="st0" d="M33.9,15.5L33.9,15.5c-0.1,0-0.1,0-0.2,0c-0.1,0-0.1,0-0.2,0c-0.1,0-0.2,0-0.3,0.1c-0.1,0-0.2,0.1-0.3,0.1V18
	h-0.8v-3.5H33V15c0-0.1,0.1-0.1,0.2-0.2c0.1-0.1,0.1-0.1,0.2-0.2c0.1-0.1,0.1-0.1,0.2-0.1c0.1,0,0.2-0.1,0.2-0.1h0.1H34L33.9,15.5
	L33.9,15.5z"/>
<path class="st0" d="M37.8,17.9H37v-0.3c-0.1,0.1-0.1,0.1-0.2,0.2c-0.1,0.1-0.1,0.1-0.2,0.2c-0.1,0.1-0.1,0.1-0.2,0.1
	c-0.1,0-0.1,0-0.2,0c-0.3,0-0.5-0.2-0.7-0.5s-0.3-0.8-0.3-1.3c0-0.3,0-0.6,0.1-0.8s0.1-0.4,0.2-0.6c0.1-0.2,0.2-0.3,0.3-0.3
	c0.1-0.1,0.3-0.1,0.4-0.1c0.1,0,0.2,0,0.3,0.1c0.1,0,0.2,0.1,0.3,0.2v-1.5h0.8L37.8,17.9L37.8,17.9z M37,16.9v-1.7
	c0,0-0.1-0.1-0.2-0.1c-0.1,0-0.1,0-0.2,0c-0.2,0-0.3,0.1-0.4,0.3c-0.1,0.2-0.1,0.4-0.1,0.7c0,0.3,0,0.6,0.1,0.7
	c0.1,0.2,0.2,0.2,0.4,0.2c0.1,0,0.1,0,0.2-0.1C36.9,17.1,37,17,37,16.9z"/>
<path class="st0" d="M39.7,18c-0.5,0-0.9-0.2-1.1-0.5c-0.3-0.3-0.4-0.7-0.4-1.3c0-0.6,0.1-1,0.3-1.4c0.2-0.3,0.6-0.5,1-0.5
	s0.7,0.1,0.9,0.4c0.2,0.3,0.3,0.7,0.3,1.2v0.4H39c0,0.2,0,0.3,0.1,0.4s0.1,0.2,0.2,0.3c0.1,0.1,0.2,0.1,0.2,0.1
	c0.1,0,0.2,0.1,0.3,0.1s0.2,0,0.3-0.1s0.2-0.1,0.2-0.1c0.1,0,0.1-0.1,0.2-0.1c0.1-0.1,0.1-0.1,0.1-0.1h0.1v0.9
	c-0.1,0-0.1,0.1-0.2,0.1c-0.1,0-0.1,0.1-0.2,0.1c-0.1,0-0.2,0.1-0.3,0.1C40,18,39.8,18,39.7,18z M40,15.7c0-0.2-0.1-0.4-0.1-0.5
	c-0.1-0.1-0.2-0.2-0.3-0.2c-0.2,0-0.3,0.1-0.4,0.2c-0.1,0.1-0.1,0.3-0.1,0.5H40z"/>
<path class="st0" d="M44.8,14.2h-1.4V15h1.3v0.9h-1.3v2h-0.9v-4.5h2.3C44.8,13.4,44.8,14.2,44.8,14.2z"/>
<path class="st0" d="M46,17.9h-0.8v-4.8H46V17.9z"/>
<path class="st0" d="M49,16.2c0,0.6-0.1,1-0.3,1.3s-0.6,0.5-1,0.5s-0.7-0.2-1-0.5c-0.2-0.3-0.3-0.8-0.3-1.3c0-0.6,0.1-1,0.3-1.4
	c0.2-0.3,0.6-0.5,1-0.5s0.7,0.2,1,0.5C48.9,15.1,49,15.6,49,16.2z M48.2,16.2c0-0.2,0-0.4,0-0.5s-0.1-0.2-0.1-0.3
	c-0.1-0.1-0.1-0.1-0.2-0.2c-0.1,0-0.1-0.1-0.2-0.1s-0.1,0-0.2,0.1c-0.1,0-0.1,0.1-0.2,0.2c-0.1,0.1-0.1,0.2-0.1,0.3
	s-0.1,0.3-0.1,0.5c0,0.2,0,0.4,0,0.5s0.1,0.2,0.1,0.3c0.1,0.1,0.1,0.1,0.2,0.2c0.1,0,0.1,0.1,0.2,0.1c0.1,0,0.1,0,0.2-0.1
	c0.1,0,0.1-0.1,0.2-0.2c0.1-0.1,0.1-0.2,0.1-0.3C48.2,16.6,48.2,16.4,48.2,16.2z"/>
<path class="st0" d="M50.4,18c-0.3,0-0.6-0.1-0.7-0.3c-0.2-0.2-0.2-0.5-0.2-0.9v-1.6h-0.3v-0.7h0.3v-1h0.8v1H51v0.7h-0.8v1.2
	c0,0.1,0,0.2,0,0.3c0,0.1,0,0.2,0,0.2c0,0.1,0.1,0.1,0.1,0.2c0.1,0.1,0.1,0.1,0.2,0.1c0.1,0,0.1,0,0.2,0c0.1,0,0.1-0.1,0.1-0.1H51
	v0.7c-0.1,0-0.2,0.1-0.3,0.1C50.6,17.9,50.5,18,50.4,18z"/>
<path class="st0" d="M52.1,14h-0.9v-0.8h0.9V14z M52.1,17.9h-0.8v-3.4h0.8V17.9z"/>
<path class="st0" d="M53.5,17.9h-0.8v-4.8h0.8V17.9z"/>
<path class="st0" d="M54.9,17.9h-0.8v-4.8h0.8V17.9z"/>
<path class="st0" d="M56.8,17.5c-0.1,0.1-0.1,0.1-0.1,0.2c-0.1,0.1-0.1,0.1-0.2,0.2C56.4,18,56.4,18,56.3,18c-0.1,0-0.2,0-0.3,0
	c-0.2,0-0.4-0.1-0.6-0.3c-0.2-0.2-0.2-0.5-0.2-0.8s0-0.5,0.1-0.6c0.1-0.2,0.2-0.3,0.3-0.4c0.1-0.1,0.3-0.2,0.5-0.2s0.4-0.1,0.6-0.1
	l0,0c0-0.2-0.1-0.3-0.2-0.4c-0.1-0.1-0.3-0.1-0.5-0.1c-0.1,0-0.2,0-0.3,0.1s-0.2,0.1-0.4,0.2h-0.1v-0.8c0.1,0,0.2-0.1,0.4-0.1
	c0.2-0.1,0.3-0.1,0.5-0.1c0.4,0,0.7,0.1,1,0.3s0.3,0.5,0.3,0.9v2.3h-0.8L56.8,17.5L56.8,17.5z M56.8,17v-0.7c-0.1,0-0.2,0-0.3,0.1
	c-0.1,0-0.2,0-0.2,0.1c-0.1,0-0.1,0.1-0.2,0.2c0,0.1-0.1,0.2-0.1,0.3c0,0.2,0,0.3,0.1,0.3c0.1,0.1,0.2,0.1,0.3,0.1s0.1,0,0.2-0.1
	C56.7,17.1,56.8,17.1,56.8,17z"/>
<path class="st0" d="M59,18c-0.2,0-0.4,0-0.5-0.1c-0.2-0.1-0.3-0.1-0.4-0.2v-0.9h0.1l0.1,0.1c0.1,0.1,0.1,0.1,0.2,0.2
	c0.1,0.1,0.2,0.1,0.2,0.1c0.1,0,0.2,0.1,0.3,0.1s0.2,0,0.3-0.1s0.1-0.1,0.1-0.2s0-0.1-0.1-0.2c0-0.1-0.1-0.1-0.2-0.1
	c-0.1,0-0.1-0.1-0.2-0.1c-0.1,0-0.2-0.1-0.2-0.1c-0.2-0.1-0.3-0.2-0.5-0.4c-0.2,0-0.2-0.3-0.2-0.5s0-0.3,0.1-0.4
	c0.1-0.1,0.1-0.3,0.2-0.4c0.1-0.1,0.2-0.2,0.4-0.2c0.2-0.1,0.3-0.1,0.5-0.1s0.3,0,0.5,0.1s0.3,0.1,0.4,0.2v0.9H60l-0.1-0.1
	c-0.1-0.1-0.1-0.1-0.2-0.1c-0.1-0.1-0.1-0.1-0.2-0.1s-0.2,0-0.3,0s-0.2,0-0.3,0.1s-0.1,0.1-0.1,0.2c0,0.1,0,0.1,0.1,0.2
	S59,16,59.2,16c0.1,0,0.1,0.1,0.2,0.1c0.1,0,0.2,0.1,0.3,0.1c0.2,0.1,0.3,0.2,0.4,0.3s0.1,0.3,0.1,0.6c0,0.2,0,0.3-0.1,0.5
	C60,17.7,60,17.9,59.9,18c-0.1,0.1-0.2,0.2-0.4,0.2C59.4,18,59.2,18,59,18z"/>
<path class="st0" d="M64.3,14.5L63,19.2h-0.9l0.4-1.4l-0.9-3.4h0.8l0.5,2.2l0.5-2.2L64.3,14.5L64.3,14.5z"/>
<path class="st0" d="M65.6,17.9l1.1-4.6h0.9l1.1,4.6h-0.9L67.7,17h-1.1l-0.2,0.9H65.6z M67.5,16.1l-0.3-1.5l-0.3,1.5H67.5z"/>
<path class="st0" d="M70.3,18c-0.2,0-0.4,0-0.6-0.1s-0.3-0.2-0.5-0.3c-0.1-0.2-0.2-0.3-0.3-0.6c-0.1-0.2-0.1-0.5-0.1-0.8
	s0-0.6,0.1-0.9c0.1-0.2,0.2-0.4,0.3-0.6c0.1-0.1,0.3-0.2,0.5-0.3s0.3-0.1,0.5-0.1c0.1,0,0.3,0,0.4,0.1s0.3,0.1,0.4,0.2v0.9h0
	c0-0.1-0.1-0.1-0.1-0.1c-0.1-0.1-0.1-0.1-0.2-0.1c-0.1-0.1-0.1-0.1-0.2-0.1s-0.2-0.1-0.2-0.1c-0.2,0-0.4,0.1-0.5,0.3
	s-0.2,0.5-0.2,0.8s0.1,0.6,0.2,0.8c0.1,0.2,0.3,0.3,0.5,0.3c0.1,0,0.2,0,0.3-0.1c0.1,0,0.1-0.1,0.2-0.1C70.9,17,70.9,17,71,17
	c0-0.1,0.1-0.1,0.1-0.1h0.1v0.9c-0.1,0-0.1,0.1-0.2,0.1S70.9,18,70.8,18s-0.2,0.1-0.2,0.1C70.5,18,70.4,18,70.3,18z"/>
<path class="st0" d="M72.5,18c-0.3,0-0.6-0.1-0.7-0.3c-0.2-0.2-0.2-0.5-0.2-0.9v-1.6h-0.3v-0.7h0.3v-1h0.8v1h0.8v0.7h-0.8v1.2
	c0,0.1,0,0.2,0,0.3c0,0.1,0,0.2,0,0.2c0,0.1,0.1,0.1,0.1,0.2c0.1,0.1,0.1,0.1,0.2,0.1s0.1,0,0.2,0s0.1-0.1,0.1-0.1h0.1v0.7
	c-0.1,0-0.2,0.1-0.3,0.1C72.7,17.9,72.6,18,72.5,18z"/>
<path class="st0" d="M74.2,14h-0.9v-0.8h0.9V14z M74.2,17.9h-0.8v-3.4h0.8V17.9z"/>
<path class="st0" d="M77.2,14.5l-0.9,3.4h-0.9l-0.9-3.4h0.8l0.5,2.3l0.5-2.3C76.3,14.5,77.2,14.5,77.2,14.5z"/>
<path class="st0" d="M79.9,16.2c0,0.6-0.1,1-0.3,1.3c-0.2,0.3-0.6,0.5-1,0.5s-0.7-0.2-1-0.5c-0.2-0.3-0.3-0.8-0.3-1.3
	c0-0.6,0.1-1,0.3-1.4c0.2-0.3,0.6-0.5,1-0.5s0.7,0.2,1,0.5C79.8,15.1,79.9,15.6,79.9,16.2z M79.1,16.2c0-0.2,0-0.4,0-0.5
	S79,15.5,79,15.4c-0.1-0.1-0.1-0.1-0.2-0.2c-0.1,0-0.1-0.1-0.2-0.1s-0.1,0-0.2,0.1s-0.1,0.1-0.2,0.2c-0.1,0.1-0.1,0.2-0.1,0.3
	S78,16,78,16.2c0,0.2,0,0.4,0,0.5s0.1,0.2,0.1,0.3c0.1,0.1,0.1,0.1,0.2,0.2c0.1,0,0.1,0.1,0.2,0.1s0.1,0,0.2-0.1
	c0.1,0,0.1-0.1,0.2-0.2c0.1,0,0.1-0.1,0.1-0.3C79.1,16.6,79.1,16.4,79.1,16.2z"/>
<path class="st0" d="M81.1,18c-0.2,0-0.4,0-0.5-0.1c-0.2-0.1-0.3-0.1-0.4-0.2v-0.9h0.1l0.1,0.1c0.1,0.1,0.1,0.1,0.2,0.2
	s0.2,0.1,0.2,0.1c0.1,0,0.2,0.1,0.3,0.1c0.1,0,0.2,0,0.3-0.1c0.1-0.1,0.1-0.1,0.1-0.2s0-0.1-0.1-0.2c0-0.1-0.1-0.1-0.2-0.1
	s-0.1-0.1-0.2-0.1s-0.2-0.1-0.2-0.1c-0.2-0.1-0.3-0.2-0.5-0.4c-0.1-0.2-0.2-0.4-0.2-0.6c0-0.2,0-0.3,0.1-0.4
	c0.1-0.1,0.1-0.3,0.2-0.4c0.1-0.1,0.2-0.2,0.4-0.2c0.2-0.1,0.3-0.1,0.5-0.1s0.3,0,0.5,0.1s0.3,0.1,0.4,0.2v0.9h-0.1L82,15.5
	c-0.1-0.1-0.1-0.1-0.2-0.1c-0.1-0.1-0.1-0.1-0.2-0.1s-0.2,0-0.3,0c-0.1,0-0.2,0-0.3,0.1c-0.1,0.1-0.1,0.1-0.1,0.2
	c0,0.1,0,0.1,0.1,0.2c0,0.1,0.1,0.1,0.3,0.1c0.1,0,0.2,0.1,0.2,0.1c0.1,0,0.2,0.1,0.3,0.1c0.2,0.1,0.3,0.2,0.4,0.3
	c0.1,0.2,0.1,0.3,0.1,0.6c0,0.2,0,0.3-0.1,0.5c-0.1,0.1-0.1,0.3-0.2,0.4s-0.2,0.2-0.4,0.2C81.4,18,81.3,18,81.1,18z"/>
</svg>
