<?xml version="1.0" encoding="utf-8"?>
<!-- Generator: Adobe Illustrator 24.0.2, SVG Export Plug-In . SVG Version: 6.00 Build 0)  -->
<svg version="1.1" id="Capa_1" xmlns="http://www.w3.org/2000/svg" xmlns:xlink="http://www.w3.org/1999/xlink" x="0px" y="0px"
	 viewBox="0 0 136.7 40.3" style="enable-background:new 0 0 136.7 40.3;" xml:space="preserve">
<style type="text/css">
	.st0{fill:#5E5E5E;}
</style>
<g>
	<path class="st0" d="M2.3,18.1c0.7-0.4,1.3-0.8,2-1.2c0.1-0.1,0.4,0,0.5,0.2c0.6,0.9,1.5,1.6,2.6,1.8c0.9,0.2,1.9,0.2,2.8-0.2
		c0.5-0.2,0.7-0.7,0.7-1.2c0-0.5-0.1-1.1-0.7-1.3c-0.9-0.4-1.9-0.7-2.9-1.1c-0.9-0.3-1.7-0.6-2.5-1c-1.3-0.6-2-1.7-1.9-3.1
		c0-1.5,0.8-2.7,2.1-3.5c1.4-0.8,2.9-0.9,4.3-0.6c1.5,0.3,3,1.1,4,2.5c0.1,0.1,0.1,0.5,0,0.5c-0.6,0.5-1.2,0.9-1.8,1.3
		c-0.5-0.4-0.9-0.9-1.4-1.2c-0.9-0.7-2-0.7-3-0.5C6.5,9.6,6,10,5.9,10.6c-0.1,0.6,0.1,1.2,0.7,1.4c1,0.4,2.1,0.7,3.2,1.1
		c0.7,0.3,1.4,0.5,2.1,0.8c1.3,0.7,2.1,1.8,2,3.5C13.8,19,13,20,11.7,20.7c-2.6,1.3-6.6,0.9-8.5-1.4C2.9,19,2.6,18.6,2.3,18.1z"/>
	<path class="st0" d="M32.9,16.3c0,1.3,0,2.6,0,3.9c0,1,0,1-0.9,1c-0.5,0-1,0-1.5,0c-0.5,0-0.7-0.2-0.7-0.7c0-3.3,0-6.5,0-9.8
		c0-0.9,0-1.9,0-2.8c0-0.5,0.2-0.7,0.7-0.7c2,0.1,3.9,0,5.9,0.1c2.2,0.2,3.9,1.2,4.2,3.3c0.5,2.9-0.8,5-4,5.5
		C35.5,16.2,34.2,16.2,32.9,16.3z M32.9,11.7C32.9,11.7,32.9,11.7,32.9,11.7c0,0.5,0,1.1,0,1.6c0,0.2,0.3,0.5,0.4,0.5
		c1,0,2-0.1,2.9-0.2c0.8-0.1,1.4-0.9,1.3-1.9c0-0.9-0.6-1.8-1.5-1.9c-0.9-0.1-1.8-0.1-2.8-0.1c-0.4,0-0.5,0.1-0.5,0.5
		C32.9,10.7,32.9,11.2,32.9,11.7z"/>
	<path class="st0" d="M28,21.2c-1,0-1.9,0-2.8,0c-0.2,0-0.4-0.2-0.5-0.4c-0.3-0.7-0.5-1.4-0.7-2.2c-0.1-0.3-0.3-0.4-0.6-0.4
		c-1.3,0-2.7-0.1-4-0.1c-0.2,0-0.5,0.3-0.6,0.6c-0.3,0.6-0.5,1.2-0.7,1.9c-0.1,0.5-0.4,0.7-0.9,0.7c-0.7-0.1-1.4,0-2.2,0
		c0.4-1.1,0.8-2.2,1.2-3.3c1.2-3.4,2.4-6.8,3.6-10.3c0.1-0.4,0.3-0.5,0.7-0.5c0.6,0,1.2,0,1.7,0c0.5-0.1,0.8,0.2,0.9,0.7
		c0.8,2.4,1.7,4.9,2.5,7.3C26.6,17.1,27.3,19.1,28,21.2z M21.6,11.4c-0.1,0-0.1,0-0.2,0c-0.5,1.4-1,2.8-1.5,4.3c1.1,0,2.1,0,3.1,0
		C22.6,14.2,22.1,12.8,21.6,11.4z"/>
	<path class="st0" d="M124.8,12.3c0-1.5,0-2.9,0-4.4c0-0.6,0.4-1,1-0.8c0.2,0.1,0.3,0.4,0.3,0.6c0,1.6,0,3.1,0,4.7c0,2,0,4.1,0,6.1
		c0,0.8,0.1,1.6,0.2,2.4c-1,0.3-1.3,0.2-1.5-1.1c-0.3,0.2-0.5,0.2-0.7,0.4c-1.6,1.3-3.7,1.3-5.2,0c-0.9-0.8-1.3-1.9-1.4-3
		c-0.2-1.5-0.1-2.9,0.6-4.3c1.1-2,3.6-2.7,5.6-1.5c0.3,0.2,0.7,0.4,1,0.6C124.7,12.3,124.8,12.3,124.8,12.3z M124.8,16.2
		c0-0.6,0-1.3,0-1.9c0-0.3-0.2-0.7-0.4-0.9c-0.4-0.4-0.8-0.7-1.3-0.9c-1.5-0.8-3.3-0.2-3.9,1.4c-0.5,1.2-0.5,2.4-0.3,3.7
		c0.4,2,1.8,3.1,3.8,2.5c0.7-0.2,1.4-0.7,1.9-1.3c0.3-0.3,0.2-0.9,0.2-1.3C124.9,17,124.8,16.6,124.8,16.2z"/>
	<path class="st0" d="M64,17c-0.2,1.9-2,4.1-4.5,4.4c-3.3,0.4-5.6-1.9-6.2-4.3c-0.8-2.7-0.6-5.3,0.9-7.8c0.6-1,1.6-1.6,2.6-2.1
		c1.1-0.5,2.2-0.5,3.2-0.3c1.2,0.3,2.3,1.1,3,2.3c0.2,0.5,0.4,1,0.7,1.5c0.1,0.3,0.1,0.5-0.2,0.6c-0.3,0.1-0.7,0.4-1-0.1
		c-0.2-0.4-0.4-0.9-0.6-1.3c-1.2-2.4-5.2-2.1-6.6,0.1c-1.1,1.8-1.3,3.8-1,5.8c0.2,1.2,0.5,2.3,1.4,3.2c0.7,0.8,1.5,1.3,2.6,1.3
		c1.1,0,2.2,0.1,3-0.8c0.4-0.5,0.9-1.1,1.2-1.7C63,16.7,62.9,16.7,64,17z"/>
	<path class="st0" d="M67.4,16.5c-0.2,1.5,0.6,3,1.8,3.6c1.5,0.7,2.9,0.2,4.5-1.5c0.2,0.2,0.4,0.4,0.6,0.6c-1.2,2.4-4.7,3.1-6.7,1.3
		c-2.2-2.1-2.3-6.2-0.1-8.2c2.1-2,5.3-1.4,6.4,1.4c0.3,0.8,0.4,1.6,0.5,2.4c0.1,0.4-0.2,0.5-0.6,0.5c-1.9,0-3.9,0-5.8,0
		C67.9,16.5,67.7,16.5,67.4,16.5z M73.2,15.4c-0.1-0.5-0.1-0.8-0.2-1.1c-0.3-1-0.8-1.8-2-2c-2-0.4-3.3,1-3.6,2.7
		c-0.1,0.4,0.1,0.4,0.5,0.4c0.7,0,1.4,0,2.1,0C71.1,15.4,72.1,15.4,73.2,15.4z"/>
	<path class="st0" d="M115.5,16.5c-2.3,0-4.4,0-6.5,0c-0.8,0-0.9,0.1-0.7,0.9c0.4,2.4,2.1,3.5,4.4,2.8c0.6-0.2,1.1-0.8,1.6-1.2
		c0.1-0.1,0.2-0.2,0.3-0.4c0.2,0.2,0.5,0.4,0.7,0.6c-0.8,1.3-1.8,2.1-3.3,2.2c-2.8,0.3-4.7-1.5-5-4.2c-0.2-1.4-0.1-2.8,0.7-4.1
		c0.9-1.5,2.2-2.2,3.9-2.1c1.8,0.1,3,1.2,3.5,2.9C115.3,14.7,115.4,15.5,115.5,16.5z M108.4,15.4c1.8,0,3.6,0,5.3,0
		c0.1,0,0.3-0.3,0.3-0.4c-0.1-1.7-1.3-2.9-2.8-2.8C109.7,12.3,108.3,13.8,108.4,15.4z"/>
	<path class="st0" d="M87.1,12.3c0,2.3,0,4.6,0,6.8c0,0.7,0.5,1,1.1,1c0.4,0,0.9,0,1.3,0c0.2,1,0.1,1.1-0.7,1.2
		c-0.7,0-1.4-0.1-2-0.3c-0.8-0.3-1.1-1.1-1.1-1.9c0-2,0-4,0-6c0-0.2,0-0.5,0-0.8c-0.4,0-0.8,0-1.1,0c-0.4,0-0.7,0-0.7-0.6
		c0-0.6,0.4-0.5,0.7-0.5c0.3,0,0.7,0,1.1,0c0-1.1,0-2,0-3c0-0.6,0.2-0.6,0.7-0.6c0.5,0,0.7,0.1,0.6,0.6c0,1,0,1.9,0,3
		c0.9,0,1.7,0,2.5,0c0.1,1.1,0.1,1.1-0.8,1.1C88.2,12.3,87.7,12.3,87.1,12.3z"/>
	<path class="st0" d="M100.7,11.2c0.1,1.1,0.1,1.1-0.8,1.1c-1.2,0-1.2,0-1.2,1.2c0,2.2,0,4.4,0,6.5c0,1.2,0,1.2-1.3,1.1
		c0-0.2,0-0.4,0-0.6c0-2.5,0-5,0-7.4c0-0.6-0.2-0.8-0.8-0.7c0,0-0.1,0-0.1,0c-1,0-1,0-0.9-1.1c0.4,0,0.8,0,1.3,0
		c0.4,0,0.5-0.1,0.5-0.5c0-0.7,0-1.5,0.2-2.1c0.3-1,1.9-1.7,2.9-1.4c0.2,0.1,0.4,0.4,0.4,0.6c0,0.1-0.3,0.4-0.5,0.4
		c-0.4,0.1-0.8,0.1-1.1,0.3c-0.3,0.1-0.5,0.5-0.6,0.8c-0.1,0.5-0.1,1.1-0.1,1.6c0,0.1,0.3,0.4,0.4,0.4
		C99.6,11.3,100.2,11.2,100.7,11.2z"/>
	<path class="st0" d="M77.1,21.1c0-3.3,0-6.5,0-9.8c1.3-0.3,1.4-0.2,1.2,1.6c0.3-0.2,0.5-0.3,0.7-0.5c0.9-1,2.1-1.4,3.4-1.5
		c0.3,1,0.1,1.1-0.8,1.2c-1.4,0.2-2.5,1-3.1,2.2c-0.1,0.2-0.1,0.5-0.1,0.7c0,1.7,0,3.4,0,5C78.4,21.2,78.3,21.3,77.1,21.1z"/>
	<path class="st0" d="M103,11.3c0.1,0,0.1,0,0.1,0c1.2-0.1,1.2-0.1,1.2,1c0,2.7,0,5.4,0,8.1c0,0.2,0,0.4,0,0.7c-0.4,0-0.8,0-1.3,0
		C103,17.8,103,14.5,103,11.3z"/>
	<path class="st0" d="M93.4,11.2c0,3.4,0,6.6,0,9.9c-0.3,0-0.5,0-0.8,0.1c-0.4,0-0.5-0.2-0.5-0.5c0-3,0-5.9,0-8.9
		c0-0.3,0.1-0.5,0.5-0.5C92.8,11.2,93.1,11.2,93.4,11.2z"/>
	<path class="st0" d="M92.1,7.4c0.5,0.2,1.2-0.4,1.4,0.5c0.2,0.8-0.1,1-0.7,1C92,9,92,8.9,92.1,7.4z"/>
	<path class="st0" d="M104.2,7.6c0.1,1.3,0.1,1.4-0.6,1.4c-0.6,0-0.8-0.2-0.8-0.9C102.9,7.5,103.1,7.4,104.2,7.6z"/>
	<g>
		<path class="st0" d="M2.9,30.8l0.9-0.1c0,0.4,0.1,0.6,0.3,0.9c0.2,0.2,0.4,0.4,0.7,0.5c0.3,0.1,0.7,0.2,1.1,0.2
			c0.4,0,0.7-0.1,0.9-0.2c0.3-0.1,0.5-0.2,0.6-0.4c0.1-0.2,0.2-0.4,0.2-0.6c0-0.2-0.1-0.4-0.2-0.6c-0.1-0.2-0.3-0.3-0.6-0.4
			c-0.2-0.1-0.6-0.2-1.2-0.3c-0.6-0.2-1.1-0.3-1.4-0.4c-0.3-0.2-0.6-0.4-0.7-0.7c-0.2-0.3-0.2-0.6-0.2-0.9c0-0.4,0.1-0.7,0.3-1
			c0.2-0.3,0.5-0.5,0.9-0.7c0.4-0.2,0.8-0.2,1.3-0.2c0.5,0,1,0.1,1.4,0.3c0.4,0.2,0.7,0.4,0.9,0.7c0.2,0.3,0.3,0.7,0.3,1.1l-0.9,0.1
			c0-0.4-0.2-0.8-0.5-1c-0.3-0.2-0.7-0.3-1.2-0.3c-0.6,0-1,0.1-1.2,0.3c-0.3,0.2-0.4,0.5-0.4,0.7c0,0.3,0.1,0.5,0.3,0.6
			c0.2,0.2,0.6,0.3,1.4,0.5c0.8,0.2,1.3,0.3,1.6,0.4c0.4,0.2,0.7,0.4,0.9,0.7c0.2,0.3,0.3,0.6,0.3,1c0,0.4-0.1,0.7-0.3,1.1
			c-0.2,0.3-0.5,0.6-0.9,0.8c-0.4,0.2-0.9,0.3-1.4,0.3c-0.6,0-1.2-0.1-1.6-0.3c-0.4-0.2-0.8-0.5-1-0.8C3.1,31.7,3,31.3,2.9,30.8z"/>
		<path class="st0" d="M9,33.1l2.7-7h1l2.9,7h-1.1l-0.8-2.1h-2.9L10,33.1H9z M11,30.2h2.4l-0.7-1.9c-0.2-0.6-0.4-1.1-0.5-1.5
			c-0.1,0.4-0.2,0.9-0.4,1.3L11,30.2z"/>
		<path class="st0" d="M16.3,33.1v-7H19c0.5,0,0.8,0,1.1,0.1c0.3,0.1,0.6,0.2,0.9,0.3c0.2,0.2,0.4,0.4,0.6,0.7
			c0.1,0.3,0.2,0.6,0.2,1c0,0.6-0.2,1.1-0.6,1.5C20.7,30,20,30.2,19,30.2h-1.8v2.8H16.3z M17.2,29.4H19c0.6,0,1-0.1,1.3-0.3
			c0.3-0.2,0.4-0.5,0.4-0.9c0-0.3-0.1-0.5-0.2-0.8c-0.1-0.2-0.3-0.3-0.6-0.4c-0.2,0-0.4-0.1-0.9-0.1h-1.8V29.4z"/>
		<path class="st0" d="M25.3,33.1v-7H28c0.5,0,1,0.1,1.3,0.2c0.3,0.1,0.6,0.4,0.8,0.7c0.2,0.3,0.3,0.6,0.3,0.9
			c0,0.3-0.1,0.6-0.2,0.8c-0.2,0.3-0.4,0.5-0.7,0.6c0.4,0.1,0.7,0.3,1,0.6c0.2,0.3,0.3,0.7,0.3,1.1c0,0.3-0.1,0.6-0.2,0.9
			c-0.1,0.3-0.3,0.5-0.5,0.7c-0.2,0.2-0.5,0.3-0.8,0.3c-0.3,0.1-0.7,0.1-1.1,0.1H25.3z M26.3,29h1.5c0.4,0,0.7,0,0.9-0.1
			c0.2-0.1,0.4-0.2,0.5-0.3c0.1-0.2,0.2-0.4,0.2-0.6c0-0.2-0.1-0.4-0.2-0.6c-0.1-0.2-0.3-0.3-0.5-0.4c-0.2-0.1-0.6-0.1-1.1-0.1h-1.4
			V29z M26.3,32.2H28c0.3,0,0.5,0,0.6,0c0.2,0,0.4-0.1,0.5-0.2c0.1-0.1,0.3-0.2,0.4-0.4c0.1-0.2,0.1-0.4,0.1-0.6
			c0-0.3-0.1-0.5-0.2-0.7c-0.1-0.2-0.3-0.3-0.6-0.4c-0.2-0.1-0.6-0.1-1-0.1h-1.6V32.2z"/>
		<path class="st0" d="M35.1,33.1v-0.7c-0.4,0.6-0.9,0.9-1.6,0.9c-0.3,0-0.6-0.1-0.8-0.2c-0.3-0.1-0.5-0.3-0.6-0.4
			c-0.1-0.2-0.2-0.4-0.3-0.6c0-0.2-0.1-0.4-0.1-0.8V28h0.9v2.8c0,0.4,0,0.8,0.1,0.9c0.1,0.2,0.2,0.4,0.3,0.5
			c0.2,0.1,0.4,0.2,0.6,0.2s0.5-0.1,0.7-0.2c0.2-0.1,0.4-0.3,0.5-0.5c0.1-0.2,0.1-0.6,0.1-1V28h0.9v5.1H35.1z"/>
		<path class="st0" d="M36.9,31.5l0.9-0.1c0,0.3,0.2,0.6,0.4,0.8c0.2,0.2,0.5,0.3,0.9,0.3c0.4,0,0.7-0.1,0.9-0.2
			c0.2-0.2,0.3-0.3,0.3-0.6c0-0.2-0.1-0.3-0.3-0.5c-0.1-0.1-0.4-0.2-0.9-0.3c-0.6-0.2-1.1-0.3-1.3-0.4c-0.2-0.1-0.4-0.3-0.6-0.5
			c-0.1-0.2-0.2-0.4-0.2-0.7c0-0.2,0.1-0.4,0.2-0.6c0.1-0.2,0.2-0.4,0.4-0.5c0.1-0.1,0.3-0.2,0.5-0.3c0.2-0.1,0.5-0.1,0.7-0.1
			c0.4,0,0.7,0.1,1,0.2c0.3,0.1,0.5,0.3,0.7,0.5c0.1,0.2,0.2,0.5,0.3,0.8l-0.8,0.1c0-0.3-0.1-0.5-0.3-0.6c-0.2-0.1-0.4-0.2-0.8-0.2
			c-0.4,0-0.7,0.1-0.8,0.2c-0.2,0.1-0.3,0.3-0.3,0.5c0,0.1,0,0.2,0.1,0.3c0.1,0.1,0.2,0.2,0.3,0.2c0.1,0,0.3,0.1,0.8,0.2
			c0.6,0.2,1,0.3,1.3,0.4c0.2,0.1,0.4,0.3,0.6,0.5c0.1,0.2,0.2,0.4,0.2,0.7c0,0.3-0.1,0.6-0.3,0.8c-0.2,0.3-0.4,0.4-0.7,0.6
			c-0.3,0.1-0.7,0.2-1.1,0.2c-0.7,0-1.2-0.1-1.5-0.4C37.2,32.5,37,32.1,36.9,31.5z"/>
		<path class="st0" d="M42.1,27v-1H43v1H42.1z M42.1,33.1V28H43v5.1H42.1z"/>
		<path class="st0" d="M44.3,33.1V28h0.8v0.7c0.4-0.6,0.9-0.8,1.6-0.8c0.3,0,0.6,0.1,0.8,0.2c0.3,0.1,0.4,0.3,0.6,0.4
			c0.1,0.2,0.2,0.4,0.3,0.6c0,0.2,0,0.4,0,0.8v3.1h-0.9V30c0-0.4,0-0.6-0.1-0.8c-0.1-0.2-0.2-0.3-0.4-0.4c-0.2-0.1-0.4-0.2-0.6-0.2
			c-0.4,0-0.7,0.1-0.9,0.3c-0.3,0.2-0.4,0.7-0.4,1.3v2.8H44.3z"/>
		<path class="st0" d="M53.2,31.4l0.9,0.1c-0.1,0.5-0.4,0.9-0.8,1.2c-0.4,0.3-0.9,0.4-1.5,0.4c-0.7,0-1.3-0.2-1.8-0.7
			c-0.4-0.5-0.7-1.1-0.7-1.9c0-0.9,0.2-1.5,0.7-2c0.4-0.5,1-0.7,1.7-0.7c0.7,0,1.2,0.2,1.7,0.7c0.4,0.5,0.6,1.1,0.6,2
			c0,0.1,0,0.1,0,0.2h-3.8c0,0.6,0.2,1,0.5,1.3c0.3,0.3,0.6,0.4,1.1,0.4c0.3,0,0.6-0.1,0.8-0.2C52.9,32,53.1,31.8,53.2,31.4z
			 M50.4,30h2.8c0-0.4-0.1-0.7-0.3-1c-0.3-0.3-0.6-0.5-1.1-0.5c-0.4,0-0.7,0.1-1,0.4C50.6,29.2,50.4,29.6,50.4,30z"/>
		<path class="st0" d="M54.9,31.5l0.9-0.1c0,0.3,0.2,0.6,0.4,0.8c0.2,0.2,0.5,0.3,0.9,0.3c0.4,0,0.7-0.1,0.9-0.2
			c0.2-0.2,0.3-0.3,0.3-0.6c0-0.2-0.1-0.3-0.3-0.5c-0.1-0.1-0.4-0.2-0.9-0.3c-0.6-0.2-1.1-0.3-1.3-0.4c-0.2-0.1-0.4-0.3-0.6-0.5
			c-0.1-0.2-0.2-0.4-0.2-0.7c0-0.2,0.1-0.4,0.2-0.6c0.1-0.2,0.2-0.4,0.4-0.5c0.1-0.1,0.3-0.2,0.5-0.3c0.2-0.1,0.5-0.1,0.7-0.1
			c0.4,0,0.7,0.1,1,0.2c0.3,0.1,0.5,0.3,0.7,0.5c0.1,0.2,0.2,0.5,0.3,0.8L58,29.4c0-0.3-0.1-0.5-0.3-0.6c-0.2-0.1-0.4-0.2-0.8-0.2
			c-0.4,0-0.7,0.1-0.8,0.2c-0.2,0.1-0.3,0.3-0.3,0.5c0,0.1,0,0.2,0.1,0.3c0.1,0.1,0.2,0.2,0.3,0.2c0.1,0,0.3,0.1,0.8,0.2
			c0.6,0.2,1,0.3,1.3,0.4c0.2,0.1,0.4,0.3,0.6,0.5c0.1,0.2,0.2,0.4,0.2,0.7c0,0.3-0.1,0.6-0.3,0.8c-0.2,0.3-0.4,0.4-0.7,0.6
			c-0.3,0.1-0.7,0.2-1.1,0.2c-0.7,0-1.2-0.1-1.5-0.4C55.2,32.5,55,32.1,54.9,31.5z"/>
		<path class="st0" d="M59.8,31.5l0.9-0.1c0,0.3,0.2,0.6,0.4,0.8c0.2,0.2,0.5,0.3,0.9,0.3c0.4,0,0.7-0.1,0.9-0.2
			c0.2-0.2,0.3-0.3,0.3-0.6c0-0.2-0.1-0.3-0.3-0.5c-0.1-0.1-0.4-0.2-0.9-0.3c-0.6-0.2-1.1-0.3-1.3-0.4c-0.2-0.1-0.4-0.3-0.6-0.5
			c-0.1-0.2-0.2-0.4-0.2-0.7c0-0.2,0.1-0.4,0.2-0.6c0.1-0.2,0.2-0.4,0.4-0.5c0.1-0.1,0.3-0.2,0.5-0.3c0.2-0.1,0.5-0.1,0.7-0.1
			c0.4,0,0.7,0.1,1,0.2c0.3,0.1,0.5,0.3,0.7,0.5c0.1,0.2,0.2,0.5,0.3,0.8l-0.8,0.1c0-0.3-0.1-0.5-0.3-0.6c-0.2-0.1-0.4-0.2-0.8-0.2
			c-0.4,0-0.7,0.1-0.8,0.2c-0.2,0.1-0.3,0.3-0.3,0.5c0,0.1,0,0.2,0.1,0.3c0.1,0.1,0.2,0.2,0.3,0.2c0.1,0,0.3,0.1,0.8,0.2
			c0.6,0.2,1,0.3,1.3,0.4c0.2,0.1,0.4,0.3,0.6,0.5c0.1,0.2,0.2,0.4,0.2,0.7c0,0.3-0.1,0.6-0.3,0.8c-0.2,0.3-0.4,0.4-0.7,0.6
			c-0.3,0.1-0.7,0.2-1.1,0.2c-0.7,0-1.2-0.1-1.5-0.4C60.1,32.5,59.8,32.1,59.8,31.5z"/>
		<path class="st0" d="M67.5,29.6c0-1.2,0.3-2.1,0.9-2.7c0.6-0.7,1.4-1,2.4-1c0.6,0,1.2,0.2,1.7,0.5c0.5,0.3,0.9,0.7,1.2,1.3
			c0.3,0.6,0.4,1.2,0.4,1.9c0,0.7-0.1,1.3-0.4,1.9c-0.3,0.6-0.7,1-1.2,1.3c-0.5,0.3-1.1,0.4-1.7,0.4c-0.7,0-1.2-0.2-1.8-0.5
			c-0.5-0.3-0.9-0.8-1.2-1.3C67.7,30.8,67.5,30.3,67.5,29.6z M68.5,29.7c0,0.8,0.2,1.5,0.7,2c0.5,0.5,1,0.7,1.7,0.7
			c0.7,0,1.3-0.2,1.7-0.7c0.5-0.5,0.7-1.2,0.7-2.1c0-0.6-0.1-1.1-0.3-1.5c-0.2-0.4-0.5-0.8-0.8-1c-0.4-0.2-0.8-0.4-1.2-0.4
			c-0.7,0-1.2,0.2-1.7,0.7C68.7,27.8,68.5,28.6,68.5,29.7z"/>
		<path class="st0" d="M75.3,33.1V28h0.8v0.7c0.4-0.6,0.9-0.8,1.6-0.8c0.3,0,0.6,0.1,0.8,0.2c0.3,0.1,0.4,0.3,0.6,0.4
			c0.1,0.2,0.2,0.4,0.3,0.6c0,0.2,0,0.4,0,0.8v3.1h-0.9V30c0-0.4,0-0.6-0.1-0.8c-0.1-0.2-0.2-0.3-0.4-0.4c-0.2-0.1-0.4-0.2-0.6-0.2
			c-0.4,0-0.7,0.1-0.9,0.3c-0.3,0.2-0.4,0.7-0.4,1.3v2.8H75.3z"/>
		<path class="st0" d="M84.2,31.4l0.9,0.1c-0.1,0.5-0.4,0.9-0.8,1.2c-0.4,0.3-0.9,0.4-1.5,0.4c-0.7,0-1.3-0.2-1.8-0.7
			c-0.4-0.5-0.7-1.1-0.7-1.9c0-0.9,0.2-1.5,0.7-2c0.4-0.5,1-0.7,1.7-0.7c0.7,0,1.2,0.2,1.7,0.7c0.4,0.5,0.6,1.1,0.6,2
			c0,0.1,0,0.1,0,0.2h-3.8c0,0.6,0.2,1,0.5,1.3c0.3,0.3,0.6,0.4,1.1,0.4c0.3,0,0.6-0.1,0.8-0.2C83.9,32,84.1,31.8,84.2,31.4z
			 M81.4,30h2.8c0-0.4-0.1-0.7-0.3-1c-0.3-0.3-0.6-0.5-1.1-0.5c-0.4,0-0.7,0.1-1,0.4C81.6,29.2,81.4,29.6,81.4,30z"/>
		<path class="st0" d="M89.2,33.1v-7h0.9v7H89.2z"/>
		<path class="st0" d="M91.6,33.1V28h0.8v0.7c0.4-0.6,0.9-0.8,1.6-0.8c0.3,0,0.6,0.1,0.8,0.2s0.4,0.3,0.6,0.4
			c0.1,0.2,0.2,0.4,0.3,0.6c0,0.2,0,0.4,0,0.8v3.1h-0.9V30c0-0.4,0-0.6-0.1-0.8c-0.1-0.2-0.2-0.3-0.4-0.4c-0.2-0.1-0.4-0.2-0.6-0.2
			c-0.4,0-0.7,0.1-0.9,0.3c-0.3,0.2-0.4,0.7-0.4,1.3v2.8H91.6z"/>
		<path class="st0" d="M99,32.3l0.1,0.8c-0.2,0.1-0.5,0.1-0.6,0.1c-0.3,0-0.6,0-0.7-0.1c-0.2-0.1-0.3-0.2-0.4-0.4
			c-0.1-0.2-0.1-0.5-0.1-1v-2.9h-0.6V28h0.6v-1.3l0.9-0.5V28H99v0.7h-0.9v3c0,0.2,0,0.4,0,0.5c0,0.1,0.1,0.1,0.1,0.2
			c0.1,0,0.2,0.1,0.3,0.1C98.7,32.3,98.8,32.3,99,32.3z"/>
		<path class="st0" d="M103.3,31.4l0.9,0.1c-0.1,0.5-0.4,0.9-0.8,1.2c-0.4,0.3-0.9,0.4-1.5,0.4c-0.7,0-1.3-0.2-1.8-0.7
			c-0.4-0.5-0.7-1.1-0.7-1.9c0-0.9,0.2-1.5,0.7-2c0.4-0.5,1-0.7,1.7-0.7c0.7,0,1.2,0.2,1.7,0.7c0.4,0.5,0.6,1.1,0.6,2
			c0,0.1,0,0.1,0,0.2h-3.8c0,0.6,0.2,1,0.5,1.3c0.3,0.3,0.6,0.4,1.1,0.4c0.3,0,0.6-0.1,0.8-0.2C103,32,103.2,31.8,103.3,31.4z
			 M100.5,30h2.8c0-0.4-0.1-0.7-0.3-1c-0.3-0.3-0.6-0.5-1.1-0.5c-0.4,0-0.7,0.1-1,0.4C100.6,29.2,100.5,29.6,100.5,30z"/>
		<path class="st0" d="M105.1,33.5l0.8,0.1c0,0.3,0.1,0.4,0.3,0.6c0.2,0.2,0.5,0.2,0.9,0.2c0.4,0,0.7-0.1,0.9-0.2
			c0.2-0.2,0.4-0.4,0.4-0.7c0-0.2,0.1-0.5,0.1-1.1c-0.4,0.4-0.8,0.7-1.4,0.7c-0.7,0-1.2-0.3-1.6-0.8c-0.4-0.5-0.6-1.1-0.6-1.8
			c0-0.5,0.1-0.9,0.3-1.3c0.2-0.4,0.4-0.7,0.8-0.9c0.3-0.2,0.7-0.3,1.2-0.3c0.6,0,1.1,0.2,1.5,0.7V28h0.8v4.4c0,0.8-0.1,1.4-0.2,1.7
			c-0.2,0.3-0.4,0.6-0.8,0.8c-0.3,0.2-0.8,0.3-1.3,0.3c-0.6,0-1.1-0.1-1.5-0.4C105.3,34.4,105.1,34,105.1,33.5z M105.8,30.4
			c0,0.7,0.1,1.2,0.4,1.5s0.6,0.5,1,0.5c0.4,0,0.7-0.2,1-0.5c0.3-0.3,0.4-0.8,0.4-1.4c0-0.6-0.1-1.1-0.4-1.4c-0.3-0.3-0.6-0.5-1-0.5
			c-0.4,0-0.7,0.2-1,0.5C105.9,29.4,105.8,29.8,105.8,30.4z"/>
		<path class="st0" d="M110.7,33.1V28h0.8v0.8c0.2-0.4,0.4-0.6,0.5-0.7c0.2-0.1,0.4-0.2,0.6-0.2c0.3,0,0.6,0.1,0.9,0.3l-0.3,0.8
			c-0.2-0.1-0.4-0.2-0.6-0.2c-0.2,0-0.4,0.1-0.5,0.2c-0.1,0.1-0.3,0.3-0.3,0.5c-0.1,0.3-0.1,0.6-0.1,1v2.7H110.7z"/>
		<path class="st0" d="M117.3,32.4c-0.3,0.3-0.6,0.5-0.9,0.6c-0.3,0.1-0.6,0.2-0.9,0.2c-0.6,0-1-0.1-1.3-0.4c-0.3-0.3-0.4-0.6-0.4-1
			c0-0.2,0.1-0.5,0.2-0.7c0.1-0.2,0.3-0.4,0.4-0.5c0.2-0.1,0.4-0.2,0.6-0.3c0.2,0,0.4-0.1,0.8-0.1c0.7-0.1,1.2-0.2,1.5-0.3
			c0-0.1,0-0.2,0-0.2c0-0.4-0.1-0.6-0.2-0.7c-0.2-0.2-0.5-0.3-1-0.3c-0.4,0-0.7,0.1-0.9,0.2s-0.3,0.4-0.4,0.8l-0.8-0.1
			c0.1-0.4,0.2-0.7,0.4-0.9c0.2-0.2,0.4-0.4,0.8-0.5s0.7-0.2,1.2-0.2c0.4,0,0.8,0.1,1.1,0.2c0.3,0.1,0.5,0.2,0.6,0.4
			c0.1,0.2,0.2,0.3,0.3,0.6c0,0.1,0,0.4,0,0.8v1.1c0,0.8,0,1.3,0.1,1.5c0,0.2,0.1,0.4,0.2,0.6h-0.9
			C117.4,32.9,117.3,32.7,117.3,32.4z M117.2,30.5c-0.3,0.1-0.8,0.2-1.4,0.3c-0.4,0.1-0.6,0.1-0.8,0.2c-0.1,0.1-0.3,0.2-0.3,0.3
			c-0.1,0.1-0.1,0.3-0.1,0.4c0,0.2,0.1,0.4,0.3,0.6c0.2,0.2,0.4,0.2,0.8,0.2c0.3,0,0.6-0.1,0.9-0.2c0.3-0.1,0.4-0.3,0.6-0.6
			c0.1-0.2,0.1-0.5,0.1-0.9V30.5z"/>
		<path class="st0" d="M121.3,32.3l0.1,0.8c-0.2,0.1-0.5,0.1-0.6,0.1c-0.3,0-0.6,0-0.7-0.1c-0.2-0.1-0.3-0.2-0.4-0.4
			c-0.1-0.2-0.1-0.5-0.1-1v-2.9h-0.6V28h0.6v-1.3l0.9-0.5V28h0.9v0.7h-0.9v3c0,0.2,0,0.4,0,0.5c0,0.1,0.1,0.1,0.1,0.2
			c0.1,0,0.2,0.1,0.3,0.1C121,32.3,121.1,32.3,121.3,32.3z"/>
		<path class="st0" d="M122.1,27v-1h0.9v1H122.1z M122.1,33.1V28h0.9v5.1H122.1z"/>
		<path class="st0" d="M124,30.5c0-0.9,0.3-1.6,0.8-2.1c0.4-0.4,1-0.6,1.6-0.6c0.7,0,1.3,0.2,1.7,0.7c0.4,0.5,0.7,1.1,0.7,1.9
			c0,0.7-0.1,1.2-0.3,1.5c-0.2,0.4-0.5,0.7-0.9,0.9c-0.4,0.2-0.8,0.3-1.2,0.3c-0.7,0-1.3-0.2-1.7-0.7C124.2,32,124,31.4,124,30.5z
			 M124.9,30.5c0,0.6,0.1,1.1,0.4,1.5c0.3,0.3,0.6,0.5,1.1,0.5c0.4,0,0.8-0.2,1.1-0.5c0.3-0.3,0.4-0.8,0.4-1.5
			c0-0.6-0.1-1.1-0.4-1.4c-0.3-0.3-0.6-0.5-1.1-0.5c-0.4,0-0.8,0.2-1.1,0.5C125,29.4,124.9,29.9,124.9,30.5z"/>
		<path class="st0" d="M129.7,33.1V28h0.8v0.7c0.4-0.6,0.9-0.8,1.6-0.8c0.3,0,0.6,0.1,0.8,0.2c0.3,0.1,0.4,0.3,0.6,0.4
			c0.1,0.2,0.2,0.4,0.3,0.6c0,0.2,0,0.4,0,0.8v3.1H133V30c0-0.4,0-0.6-0.1-0.8c-0.1-0.2-0.2-0.3-0.4-0.4c-0.2-0.1-0.4-0.2-0.6-0.2
			c-0.4,0-0.7,0.1-0.9,0.3c-0.3,0.2-0.4,0.7-0.4,1.3v2.8H129.7z"/>
	</g>
	<g>
		<path class="st0" d="M43.8,7.2c0.3,0,0.7,0.1,1,0.3c0.3,0.2,0.6,0.4,0.8,0.8c0.2,0.3,0.3,0.7,0.3,1c0,0.4-0.1,0.7-0.3,1
			c-0.2,0.3-0.4,0.6-0.8,0.8c-0.3,0.2-0.7,0.3-1,0.3s-0.7-0.1-1-0.3c-0.3-0.2-0.6-0.4-0.8-0.8c-0.2-0.3-0.3-0.7-0.3-1
			c0-0.4,0.1-0.7,0.3-1c0.2-0.3,0.4-0.6,0.8-0.8C43.1,7.3,43.4,7.2,43.8,7.2z M43.8,7.5c-0.3,0-0.6,0.1-0.8,0.2
			c-0.3,0.1-0.5,0.4-0.6,0.6c-0.2,0.3-0.2,0.6-0.2,0.9c0,0.3,0.1,0.6,0.2,0.8c0.2,0.3,0.4,0.5,0.6,0.6c0.3,0.2,0.6,0.2,0.8,0.2
			s0.6-0.1,0.8-0.2c0.3-0.2,0.5-0.4,0.6-0.6c0.1-0.3,0.2-0.6,0.2-0.8c0-0.3-0.1-0.6-0.2-0.9c-0.2-0.3-0.4-0.5-0.6-0.6
			S44,7.5,43.8,7.5z M42.9,10.3V8.2h0.8c0.3,0,0.4,0,0.6,0.1c0.1,0,0.2,0.1,0.3,0.2c0.1,0.1,0.1,0.2,0.1,0.3c0,0.2-0.1,0.3-0.2,0.4
			c-0.1,0.1-0.3,0.2-0.5,0.2c0.1,0,0.1,0.1,0.2,0.1c0.1,0.1,0.2,0.2,0.3,0.4l0.3,0.4h-0.4L44.1,10c-0.2-0.3-0.3-0.4-0.4-0.5
			c-0.1-0.1-0.2-0.1-0.3-0.1h-0.2v0.9H42.9z M43.2,9.1h0.4c0.2,0,0.3,0,0.4-0.1c0.1-0.1,0.1-0.1,0.1-0.2c0-0.1,0-0.1-0.1-0.2
			c0-0.1-0.1-0.1-0.1-0.1c-0.1,0-0.2,0-0.4,0h-0.4V9.1z"/>
	</g>
</g>
</svg>
