<svg width="487" height="192" viewBox="0 0 487 192" fill="none" xmlns="http://www.w3.org/2000/svg">
<path d="M62.3046 121.475C62.3046 119.508 61.6814 117.77 60.435 116.262C59.2542 114.754 57.0894 113.377 53.9406 112.131C50.8574 110.885 46.495 109.639 40.8534 108.393C35.5398 107.279 30.587 105.836 25.9949 104.066C21.4029 102.23 17.4013 100.033 13.9901 97.4754C10.5789 94.8525 7.92211 91.7705 6.0197 88.2295C4.1173 84.623 3.1661 80.5246 3.1661 75.9344C3.1661 71.4754 4.1173 67.2459 6.0197 63.2459C7.98771 59.2459 10.8085 55.7049 14.4821 52.623C18.2213 49.541 22.7477 47.1148 28.0614 45.3443C33.4406 43.5738 39.5414 42.6885 46.3638 42.6885C55.7446 42.6885 63.8462 44.1639 70.6686 47.1148C77.4911 50 82.7391 54.0656 86.4127 59.3115C89.6714 63.9068 91.4848 69.0954 91.8528 74.8775C91.9313 76.1112 90.9206 77.1148 89.6839 77.1148H63.4614C62.2247 77.1148 61.24 76.1091 61.0982 74.8811C60.8863 73.0456 60.4029 71.3967 59.6478 69.9344C58.5982 67.9016 56.991 66.3279 54.8262 65.2131C52.6614 64.0328 49.8078 63.4426 46.2654 63.4426C43.5102 63.4426 41.083 63.9344 38.9838 64.918C36.9502 65.8361 35.343 67.1148 34.1622 68.7541C33.047 70.3934 32.4894 72.2951 32.4894 74.459C32.4894 75.9672 32.8174 77.3443 33.4734 78.5902C34.195 79.7705 35.2774 80.8852 36.7206 81.9344C38.2294 82.918 40.1646 83.8033 42.5262 84.5902C44.9534 85.3771 47.9054 86.1312 51.3822 86.8525C58.795 88.2295 65.5518 90.1639 71.6526 92.6557C77.8191 95.1475 82.7391 98.5902 86.4127 102.984C90.1519 107.377 92.0215 113.18 92.0215 120.393C92.0215 125.115 90.9391 129.443 88.7743 133.377C86.6751 137.311 83.6247 140.754 79.6231 143.705C75.6215 146.656 70.8326 148.951 65.2566 150.59C59.6806 152.23 53.383 153.049 46.3638 153.049C36.327 153.049 27.8318 151.246 20.8781 147.639C13.9245 144.033 8.67651 139.508 5.1341 134.066C2.10769 129.271 0.398463 124.377 0.00640982 119.384C-0.0903486 118.151 0.921392 117.148 2.15804 117.148H26.5924C27.7968 117.148 28.7693 118.103 28.9332 119.296C29.2875 121.874 30.1121 124.043 31.407 125.803C33.1126 128.033 35.3102 129.672 37.9998 130.721C40.6894 131.705 43.707 132.197 47.0526 132.197C50.3982 132.197 53.1862 131.738 55.4166 130.82C57.647 129.902 59.3526 128.656 60.5334 127.082C61.7142 125.443 62.3046 123.574 62.3046 121.475Z" fill="#003EDE"/>
<path d="M139.942 65.1148V189.762C139.942 190.998 138.94 192 137.703 192H111.481C110.244 192 109.242 190.998 109.242 189.762V46.894C109.242 45.6578 110.244 44.6557 111.481 44.6557H135.852C137.001 44.6557 137.964 45.5259 138.079 46.6692L139.942 65.1148ZM206.363 96.6885V98.7541C206.363 106.492 205.477 113.672 203.706 120.295C201.935 126.852 199.278 132.59 195.735 137.508C192.259 142.426 187.962 146.262 182.845 149.016C177.728 151.705 171.791 153.049 165.034 153.049C158.606 153.049 153.03 151.705 148.306 149.016C143.649 146.262 139.713 142.459 136.498 137.607C133.35 132.689 130.791 127.082 128.823 120.787C126.935 114.473 125.467 107.74 124.419 100.587C124.403 100.48 124.395 100.372 124.395 100.264V96.3934C125.445 88.7213 126.954 81.6066 128.922 75.0492C130.89 68.4918 133.448 62.8197 136.597 58.0328C139.746 53.1803 143.649 49.4098 148.306 46.7213C152.964 44.0328 158.507 42.6885 164.936 42.6885C171.627 42.6885 177.564 43.9672 182.747 46.5246C187.929 49.082 192.259 52.7541 195.735 57.541C199.278 62.2623 201.935 67.9344 203.706 74.5574C205.477 81.1803 206.363 88.5574 206.363 96.6885ZM175.563 98.7541V96.6885C175.563 92.3607 175.235 88.3934 174.579 84.7869C173.923 81.1148 172.874 77.9344 171.43 75.2459C169.987 72.4918 168.085 70.3607 165.723 68.8525C163.362 67.3443 160.475 66.5902 157.064 66.5902C153.39 66.5902 150.274 67.1803 147.716 68.3607C145.158 69.541 143.091 71.2787 141.517 73.5738C139.942 75.8033 138.794 78.5574 138.073 81.8361C137.417 85.1148 137.056 88.8525 136.99 93.0492V103.869C137.056 108.787 137.745 113.18 139.057 117.049C140.434 120.852 142.566 123.836 145.453 126C148.405 128.098 152.341 129.148 157.261 129.148C160.738 129.148 163.624 128.393 165.92 126.885C168.282 125.311 170.151 123.115 171.529 120.295C172.972 117.475 173.989 114.23 174.579 110.557C175.235 106.885 175.563 102.951 175.563 98.7541Z" fill="#003EDE"/>
<path d="M252.832 0C254.068 0 255.071 1.0021 255.071 2.23825V148.844C255.071 150.08 254.068 151.082 252.832 151.082H226.511C225.274 151.082 224.271 150.08 224.271 148.844V2.23825C224.271 1.0021 225.274 0 226.511 0H252.832Z" fill="#003EDE"/>
<path d="M307.345 44.6557C308.582 44.6557 309.584 45.6578 309.584 46.894V148.844C309.584 150.08 308.582 151.082 307.345 151.082H281.024C279.788 151.082 278.785 150.08 278.785 148.844V46.894C278.785 45.6578 279.788 44.6557 281.024 44.6557H307.345ZM276.916 17.1148C276.916 12.6557 278.49 9.01639 281.639 6.19672C284.788 3.31148 288.92 1.86885 294.037 1.86885C299.154 1.86885 303.287 3.31148 306.436 6.19672C309.65 9.01639 311.257 12.6557 311.257 17.1148C311.257 21.5082 309.65 25.1475 306.436 28.0328C303.287 30.8525 299.154 32.2623 294.037 32.2623C288.92 32.2623 284.788 30.8525 281.639 28.0328C278.49 25.1475 276.916 21.5082 276.916 17.1148Z" fill="#003EDE"/>
<path d="M383.605 44.6557C384.842 44.6557 385.845 45.6578 385.845 46.894V63.9585C385.845 65.1946 384.842 66.1967 383.605 66.1967H324.911C323.674 66.1967 322.672 65.1946 322.672 63.9585V46.894C322.672 45.6578 323.674 44.6557 324.911 44.6557H383.605ZM337.136 20.5333C337.136 19.2972 338.139 18.2951 339.376 18.2951H365.697C366.933 18.2951 367.936 19.2972 367.936 20.5333V117.738C367.936 120.689 368.297 122.951 369.018 124.525C369.74 126.098 370.921 127.213 372.561 127.869C374.201 128.459 376.3 128.754 378.858 128.754C380.695 128.754 382.269 128.689 383.581 128.557C383.921 128.523 384.255 128.487 384.581 128.449C385.964 128.286 387.222 129.342 387.222 130.733V148.669C387.222 149.639 386.599 150.503 385.667 150.772C383.504 151.396 381.234 151.893 378.858 152.262C375.906 152.787 372.692 153.049 369.215 153.049C362.589 153.049 356.849 151.967 351.995 149.803C347.206 147.639 343.532 144.23 340.974 139.574C338.416 134.852 337.136 128.721 337.136 121.18V20.5333Z" fill="#003EDE"/>
<path d="M457.283 121.475C457.283 119.508 456.66 117.77 455.414 116.262C454.233 114.754 452.068 113.377 448.919 112.131C445.836 110.885 441.473 109.639 435.832 108.393C430.518 107.279 425.565 105.836 420.973 104.066C416.381 102.23 412.38 100.033 408.969 97.4754C405.557 94.8525 402.901 91.7705 400.998 88.2295C399.096 84.623 398.145 80.5246 398.145 75.9344C398.145 71.4754 399.096 67.2459 400.998 63.2459C402.966 59.2459 405.787 55.7049 409.461 52.623C413.2 49.541 417.726 47.1148 423.04 45.3443C428.419 43.5738 434.52 42.6885 441.342 42.6885C450.723 42.6885 458.825 44.1639 465.647 47.1148C472.47 50 477.718 54.0656 481.391 59.3115C484.65 63.9068 486.463 69.0954 486.831 74.8775C486.91 76.1112 485.899 77.1148 484.662 77.1148H458.44C457.203 77.1148 456.218 76.1091 456.077 74.8811C455.865 73.0456 455.381 71.3967 454.626 69.9344C453.577 67.9016 451.97 66.3279 449.805 65.2131C447.64 64.0328 444.786 63.4426 441.244 63.4426C438.489 63.4426 436.061 63.9344 433.962 64.918C431.929 65.8361 430.321 67.1148 429.141 68.7541C428.025 70.3934 427.468 72.2951 427.468 74.459C427.468 75.9672 427.796 77.3443 428.452 78.5902C429.173 79.7705 430.256 80.8852 431.699 81.9344C433.208 82.918 435.143 83.8033 437.505 84.5902C439.932 85.3771 442.884 86.1312 446.361 86.8525C453.774 88.2295 460.53 90.1639 466.631 92.6557C472.798 95.1475 477.718 98.5902 481.391 102.984C485.13 107.377 487 113.18 487 120.393C487 125.115 485.918 129.443 483.753 133.377C481.654 137.311 478.603 140.754 474.602 143.705C470.6 146.656 465.811 148.951 460.235 150.59C454.659 152.23 448.361 153.049 441.342 153.049C431.305 153.049 422.81 151.246 415.857 147.639C408.903 144.033 403.655 139.508 400.113 134.066C397.086 129.271 395.377 124.377 394.985 119.384C394.888 118.151 395.9 117.148 397.137 117.148H421.571C422.775 117.148 423.748 118.103 423.912 119.296C424.266 121.874 425.091 124.043 426.385 125.803C428.091 128.033 430.289 129.672 432.978 130.721C435.668 131.705 438.685 132.197 442.031 132.197C445.377 132.197 448.165 131.738 450.395 130.82C452.626 129.902 454.331 128.656 455.512 127.082C456.693 125.443 457.283 123.574 457.283 121.475Z" fill="#003EDE"/>
</svg>
